<svg width="146" height="32" viewBox="0 0 146 32" fill="none" xmlns="http://www.w3.org/2000/svg">
<path fill-rule="evenodd" clip-rule="evenodd" d="M8.33337 7.33333C8.33337 4.9401 10.2735 3 12.6667 3C14.007 3 15.2052 3.60849 16 4.56429C16.7949 3.60849 17.9931 3 19.3334 3C21.7266 3 23.6667 4.9401 23.6667 7.33333C23.6667 8.19243 23.4167 8.99313 22.9855 9.66667H24C26.0251 9.66667 27.6667 11.3083 27.6667 13.3333V16C27.6667 17.0722 26.9435 17.9755 25.9583 18.2487C26.1504 20.6842 26.0391 23.1355 25.626 25.5463C25.3793 26.9858 24.2102 28.0886 22.7587 28.2509L21.5394 28.3871C17.858 28.7986 14.1421 28.7986 10.4607 28.3871L9.24138 28.2509C7.78989 28.0886 6.62074 26.9858 6.37406 25.5463C5.96096 23.1355 5.8497 20.6842 6.04179 18.2487C5.05657 17.9755 4.33337 17.0722 4.33337 16V13.3333C4.33337 11.3083 5.975 9.66667 8.00004 9.66667H9.01459C8.58337 8.99313 8.33337 8.19243 8.33337 7.33333ZM15 7.33333C15 6.04467 13.9554 5 12.6667 5C11.378 5 10.3334 6.04467 10.3334 7.33333C10.3334 8.622 11.378 9.66667 12.6667 9.66667C13.9554 9.66667 15 8.622 15 7.33333ZM19.3334 9.66667C20.622 9.66667 21.6667 8.622 21.6667 7.33333C21.6667 6.04467 20.622 5 19.3334 5C18.0447 5 17 6.04467 17 7.33333C17 8.622 18.0447 9.66667 19.3334 9.66667ZM6.33337 13.3333C6.33337 12.4129 7.07957 11.6667 8.00004 11.6667H15V16.3333H6.66671C6.48261 16.3333 6.33337 16.1841 6.33337 16V13.3333ZM17 18.3333H23.9587C24.1457 20.6275 24.0439 22.9373 23.6548 25.2085C23.5586 25.7699 23.1026 26.2 22.5366 26.2632L21.3173 26.3995C19.8822 26.5599 18.4416 26.6551 17 26.6853V18.3333ZM17 16.3333H25.3334C25.5175 16.3333 25.6667 16.1841 25.6667 16V13.3333C25.6667 12.4129 24.9205 11.6667 24 11.6667H17V16.3333ZM15 18.3333V26.6853C13.5585 26.6551 12.1179 26.5599 10.6828 26.3995L9.46353 26.2632C8.89748 26.2 8.44153 25.7699 8.34533 25.2085C7.95614 22.9373 7.85435 20.6275 8.04142 18.3333H15Z" fill="#5055BE"/>
<path d="M51.834 23L50.888 19.48H45.85L44.904 23H41.89L46.62 7.798H50.206L54.914 23H51.834ZM46.422 17.28H50.294L48.358 10.02L46.422 17.28ZM66.3102 6.698V23H63.8242L63.6262 21.526C63.2595 22.0833 62.7902 22.5233 62.2182 22.846C61.6608 23.1687 61.0228 23.33 60.3042 23.33C58.8815 23.33 57.7888 22.78 57.0262 21.68C56.2635 20.58 55.8822 19.084 55.8822 17.192C55.8822 16.004 56.0728 14.948 56.4542 14.024C56.8355 13.0853 57.3782 12.352 58.0822 11.824C58.8008 11.296 59.6295 11.032 60.5682 11.032C61.6828 11.032 62.6582 11.45 63.4942 12.286V6.39L66.3102 6.698ZM61.0962 21.196C61.5948 21.196 62.0348 21.0787 62.4162 20.844C62.7975 20.5947 63.1568 20.2133 63.4942 19.7V14.376C63.1568 13.9653 62.8122 13.6573 62.4602 13.452C62.1228 13.2467 61.7268 13.144 61.2722 13.144C60.5242 13.144 59.9302 13.4813 59.4902 14.156C59.0648 14.816 58.8522 15.8207 58.8522 17.17C58.8522 18.6073 59.0428 19.6413 59.4242 20.272C59.8055 20.888 60.3628 21.196 61.0962 21.196ZM79.4801 6.698V23H76.9941L76.7961 21.526C76.4294 22.0833 75.9601 22.5233 75.3881 22.846C74.8308 23.1687 74.1928 23.33 73.4741 23.33C72.0514 23.33 70.9588 22.78 70.1961 21.68C69.4334 20.58 69.0521 19.084 69.0521 17.192C69.0521 16.004 69.2428 14.948 69.6241 14.024C70.0054 13.0853 70.5481 12.352 71.2521 11.824C71.9708 11.296 72.7994 11.032 73.7381 11.032C74.8528 11.032 75.8281 11.45 76.6641 12.286V6.39L79.4801 6.698ZM74.2661 21.196C74.7648 21.196 75.2048 21.0787 75.5861 20.844C75.9674 20.5947 76.3268 20.2133 76.6641 19.7V14.376C76.3268 13.9653 75.9821 13.6573 75.6301 13.452C75.2928 13.2467 74.8968 13.144 74.4421 13.144C73.6941 13.144 73.1001 13.4813 72.6601 14.156C72.2348 14.816 72.0221 15.8207 72.0221 17.17C72.0221 18.6073 72.2128 19.6413 72.5941 20.272C72.9754 20.888 73.5328 21.196 74.2661 21.196ZM85.676 11.362V23H82.86V11.362H85.676ZM84.246 5.466C84.774 5.466 85.1993 5.63467 85.522 5.972C85.8593 6.29467 86.028 6.698 86.028 7.182C86.028 7.666 85.8593 8.06933 85.522 8.392C85.1993 8.71467 84.774 8.876 84.246 8.876C83.7327 8.876 83.3073 8.71467 82.97 8.392C82.6473 8.06933 82.486 7.666 82.486 7.182C82.486 6.698 82.6473 6.29467 82.97 5.972C83.3073 5.63467 83.7327 5.466 84.246 5.466ZM95.735 22.45C95.3243 22.7433 94.8623 22.9633 94.349 23.11C93.8503 23.2567 93.337 23.33 92.809 23.33C91.665 23.3153 90.7923 22.9927 90.191 22.362C89.6043 21.7167 89.311 20.7707 89.311 19.524V13.386H87.485V11.362H89.311V8.788L92.127 8.458V11.362H94.833L94.547 13.386H92.127V19.458C92.127 20.03 92.2223 20.4407 92.413 20.69C92.6183 20.9393 92.9337 21.064 93.359 21.064C93.7843 21.064 94.2463 20.9247 94.745 20.646L95.735 22.45ZM100.135 11.362V23H97.319V11.362H100.135ZM98.705 5.466C99.233 5.466 99.6583 5.63467 99.981 5.972C100.318 6.29467 100.487 6.698 100.487 7.182C100.487 7.666 100.318 8.06933 99.981 8.392C99.6583 8.71467 99.233 8.876 98.705 8.876C98.1917 8.876 97.7663 8.71467 97.429 8.392C97.1063 8.06933 96.945 7.666 96.945 7.182C96.945 6.698 97.1063 6.29467 97.429 5.972C97.7663 5.63467 98.1917 5.466 98.705 5.466ZM108.28 11.032C109.996 11.032 111.331 11.582 112.284 12.682C113.252 13.7673 113.736 15.2633 113.736 17.17C113.736 18.3873 113.516 19.4653 113.076 20.404C112.636 21.328 112.005 22.0467 111.184 22.56C110.363 23.0733 109.387 23.33 108.258 23.33C106.542 23.33 105.2 22.7873 104.232 21.702C103.264 20.602 102.78 19.0913 102.78 17.17C102.78 15.9527 103 14.882 103.44 13.958C103.88 13.034 104.511 12.3153 105.332 11.802C106.168 11.2887 107.151 11.032 108.28 11.032ZM108.28 13.166C106.593 13.166 105.75 14.5007 105.75 17.17C105.75 18.5487 105.955 19.568 106.366 20.228C106.791 20.8733 107.422 21.196 108.258 21.196C109.094 21.196 109.717 20.866 110.128 20.206C110.553 19.546 110.766 18.534 110.766 17.17C110.766 15.806 110.553 14.8013 110.128 14.156C109.717 13.496 109.101 13.166 108.28 13.166ZM122.58 11.032C123.621 11.032 124.428 11.3473 125 11.978C125.586 12.594 125.88 13.4593 125.88 14.574V23H123.064V15.014C123.064 14.3247 122.939 13.8407 122.69 13.562C122.455 13.2833 122.103 13.144 121.634 13.144C121.15 13.144 120.71 13.298 120.314 13.606C119.932 13.8993 119.558 14.332 119.192 14.904V23H116.376V11.362H118.818L119.038 12.88C119.991 11.648 121.172 11.032 122.58 11.032ZM137.761 19.92C137.761 20.3747 137.827 20.712 137.959 20.932C138.106 21.1373 138.333 21.2987 138.641 21.416L138.047 23.286C137.387 23.2273 136.844 23.066 136.419 22.802C136.008 22.538 135.693 22.1347 135.473 21.592C135.077 22.1787 134.578 22.6187 133.977 22.912C133.39 23.1907 132.73 23.33 131.997 23.33C130.838 23.33 129.922 23 129.247 22.34C128.572 21.68 128.235 20.8147 128.235 19.744C128.235 18.4827 128.69 17.522 129.599 16.862C130.523 16.1873 131.836 15.85 133.537 15.85H134.989V15.19C134.989 14.442 134.813 13.9213 134.461 13.628C134.124 13.32 133.574 13.166 132.811 13.166C131.96 13.166 130.934 13.3713 129.731 13.782L129.071 11.868C130.523 11.3107 131.931 11.032 133.295 11.032C136.272 11.032 137.761 12.3667 137.761 15.036V19.92ZM132.745 21.284C133.698 21.284 134.446 20.8073 134.989 19.854V17.5H133.823C132.004 17.5 131.095 18.1747 131.095 19.524C131.095 20.0813 131.234 20.514 131.513 20.822C131.792 21.13 132.202 21.284 132.745 21.284ZM143.704 23.33C142.809 23.33 142.105 23.0733 141.592 22.56C141.093 22.032 140.844 21.2913 140.844 20.338V6.698L143.66 6.39V20.25C143.66 20.7927 143.88 21.064 144.32 21.064C144.54 21.064 144.76 21.0273 144.98 20.954L145.574 22.934C144.987 23.198 144.364 23.33 143.704 23.33Z" fill="#5055BE"/>
</svg>
