<svg width="160" height="24" viewBox="0 0 160 24" fill="none" xmlns="http://www.w3.org/2000/svg">
<path d="M10.5 16.0001C10.5 15.1717 11.1716 14.5001 12 14.5001C12.8284 14.5001 13.5 15.1717 13.5 16.0001C13.5 16.8285 12.8284 17.5001 12 17.5001C11.1716 17.5001 10.5 16.8285 10.5 16.0001Z" fill="black"/>
<path fill-rule="evenodd" clip-rule="evenodd" d="M9.81049 4.00509C10.0428 3.91258 10.2852 3.84763 10.5327 3.81157C12.006 3.5969 13.4327 4.42673 13.9745 5.81347L14.0495 6.00549C14.1424 6.24343 14.2087 6.49092 14.2472 6.74346L14.4638 8.16577L15.9467 7.93992L15.7301 6.51761C15.675 6.15557 15.5799 5.80075 15.4466 5.45964L15.3716 5.26761C14.5758 3.23078 12.4804 2.01194 10.3165 2.32724C9.95295 2.38021 9.59691 2.47561 9.25563 2.61149C7.22397 3.42038 6.01867 5.52367 6.34793 7.6855L6.37897 7.88931C6.43411 8.25135 6.52918 8.60617 6.66245 8.94728L7.3166 10.6216L6.93512 10.6521C5.85239 10.7385 4.96829 11.5524 4.79277 12.6243C4.4267 14.86 4.4267 17.1403 4.79277 19.3759C4.96829 20.4478 5.85239 21.2617 6.93512 21.3482L8.43125 21.4676C10.8066 21.6572 13.1934 21.6572 15.5687 21.4676L17.0649 21.3482C18.1476 21.2617 19.0317 20.4478 19.2072 19.3759C19.5733 17.1403 19.5733 14.86 19.2072 12.6243C19.0317 11.5524 18.1476 10.7385 17.0649 10.6521L15.5687 10.5326C13.3426 10.3549 11.1065 10.3437 8.87916 10.4991L8.0596 8.40142C7.96665 8.16349 7.90033 7.91599 7.86187 7.66346L7.83083 7.45965C7.60666 5.9878 8.42727 4.55582 9.81049 4.00509ZM15.4494 12.0279C13.1534 11.8446 10.8466 11.8446 8.55062 12.0279L7.05449 12.1473C6.65956 12.1788 6.33708 12.4757 6.27306 12.8667C5.93327 14.9418 5.93327 17.0584 6.27306 19.1335C6.33708 19.5245 6.65956 19.8214 7.05449 19.8529L8.55062 19.9724C10.8465 20.1556 13.1534 20.1556 15.4494 19.9724L16.9455 19.8529C17.3404 19.8214 17.6629 19.5245 17.7269 19.1335C18.0667 17.0584 18.0667 14.9418 17.7269 12.8667C17.6629 12.4757 17.3404 12.1788 16.9455 12.1473L15.4494 12.0279Z" fill="black"/>
<path d="M39.52 6.704C40.192 6.704 40.7787 6.8 41.28 6.992C41.7813 7.184 42.272 7.47733 42.752 7.872L41.68 9.12C41.0293 8.59733 40.3467 8.336 39.632 8.336C38.8107 8.336 38.1493 8.66667 37.648 9.328C37.1573 9.98933 36.912 11.0293 36.912 12.448C36.912 13.8347 37.1573 14.864 37.648 15.536C38.1387 16.208 38.8 16.544 39.632 16.544C40.0693 16.544 40.4587 16.4693 40.8 16.32C41.1413 16.16 41.504 15.936 41.888 15.648L42.88 16.896C42.5067 17.28 42.032 17.6 41.456 17.856C40.8907 18.112 40.256 18.24 39.552 18.24C38.592 18.24 37.744 18.016 37.008 17.568C36.272 17.12 35.7013 16.464 35.296 15.6C34.8907 14.7253 34.688 13.6747 34.688 12.448C34.688 11.2427 34.896 10.208 35.312 9.344C35.7387 8.48 36.3147 7.824 37.04 7.376C37.776 6.928 38.6027 6.704 39.52 6.704ZM48.6815 9.296C49.4282 9.296 50.0148 9.52533 50.4415 9.984C50.8682 10.4427 51.0815 11.072 51.0815 11.872V18H49.0335V12.192C49.0335 11.6907 48.9428 11.3387 48.7615 11.136C48.5908 10.9333 48.3348 10.832 47.9935 10.832C47.6522 10.832 47.3375 10.944 47.0495 11.168C46.7615 11.3813 46.4842 11.6907 46.2175 12.096V18H44.1695V6.16L46.2175 5.952V10.544C46.9002 9.712 47.7215 9.296 48.6815 9.296ZM59.7224 15.76C59.7224 16.0907 59.7704 16.336 59.8664 16.496C59.973 16.6453 60.1384 16.7627 60.3624 16.848L59.9304 18.208C59.4504 18.1653 59.0557 18.048 58.7464 17.856C58.4477 17.664 58.2184 17.3707 58.0584 16.976C57.7704 17.4027 57.4077 17.7227 56.9704 17.936C56.5437 18.1387 56.0637 18.24 55.5304 18.24C54.6877 18.24 54.021 18 53.5304 17.52C53.0397 17.04 52.7944 16.4107 52.7944 15.632C52.7944 14.7147 53.125 14.016 53.7864 13.536C54.4584 13.0453 55.413 12.8 56.6504 12.8H57.7064V12.32C57.7064 11.776 57.5784 11.3973 57.3224 11.184C57.077 10.96 56.677 10.848 56.1224 10.848C55.5037 10.848 54.757 10.9973 53.8824 11.296L53.4024 9.904C54.4584 9.49867 55.4824 9.296 56.4744 9.296C58.6397 9.296 59.7224 10.2667 59.7224 12.208V15.76ZM56.0744 16.752C56.7677 16.752 57.3117 16.4053 57.7064 15.712V14H56.8584C55.5357 14 54.8744 14.4907 54.8744 15.472C54.8744 15.8773 54.9757 16.192 55.1784 16.416C55.381 16.64 55.6797 16.752 56.0744 16.752ZM66.7128 9.296C67.4701 9.296 68.0568 9.52533 68.4728 9.984C68.8994 10.432 69.1128 11.0613 69.1128 11.872V18H67.0648V12.192C67.0648 11.6907 66.9741 11.3387 66.7928 11.136C66.6221 10.9333 66.3661 10.832 66.0248 10.832C65.6728 10.832 65.3528 10.944 65.0648 11.168C64.7874 11.3813 64.5154 11.696 64.2488 12.112V18H62.2008V9.536H63.9768L64.1368 10.64C64.8301 9.744 65.6888 9.296 66.7128 9.296ZM78.8576 9.984C78.3136 10.176 77.4976 10.272 76.4096 10.272C76.9323 10.5067 77.3163 10.8 77.5616 11.152C77.8176 11.4933 77.9456 11.9253 77.9456 12.448C77.9456 13.0027 77.807 13.4933 77.5296 13.92C77.263 14.3467 76.8683 14.6827 76.3456 14.928C75.8336 15.1733 75.231 15.296 74.5376 15.296C74.1536 15.296 73.8176 15.2533 73.5296 15.168C73.295 15.328 73.1776 15.536 73.1776 15.792C73.1776 16.1867 73.519 16.384 74.2016 16.384H75.4976C76.1163 16.384 76.655 16.4853 77.1136 16.688C77.583 16.8907 77.9456 17.1787 78.2016 17.552C78.4576 17.9147 78.5856 18.3253 78.5856 18.784C78.5856 19.6373 78.223 20.2987 77.4976 20.768C76.7723 21.248 75.727 21.488 74.3616 21.488C73.3803 21.488 72.607 21.3867 72.0416 21.184C71.487 20.9813 71.0923 20.688 70.8576 20.304C70.623 19.92 70.5056 19.4293 70.5056 18.832H72.3456C72.3456 19.1307 72.399 19.3653 72.5056 19.536C72.623 19.7067 72.8256 19.8347 73.1136 19.92C73.4123 20.0053 73.839 20.048 74.3936 20.048C75.1723 20.048 75.7216 19.952 76.0416 19.76C76.3616 19.568 76.5216 19.2907 76.5216 18.928C76.5216 18.608 76.399 18.3573 76.1536 18.176C75.9083 18.0053 75.551 17.92 75.0816 17.92H73.8016C73.0016 17.92 72.399 17.7653 71.9936 17.456C71.5883 17.1467 71.3856 16.7573 71.3856 16.288C71.3856 15.9893 71.471 15.7013 71.6416 15.424C71.823 15.1467 72.0683 14.912 72.3776 14.72C71.8656 14.4533 71.487 14.128 71.2416 13.744C71.007 13.3493 70.8896 12.88 70.8896 12.336C70.8896 11.728 71.039 11.1947 71.3376 10.736C71.6363 10.2773 72.047 9.92533 72.5696 9.68C73.103 9.424 73.711 9.296 74.3936 9.296C75.2896 9.31733 76.0096 9.25333 76.5536 9.104C77.1083 8.944 77.7056 8.69333 78.3456 8.352L78.8576 9.984ZM74.4256 10.688C73.967 10.688 73.6043 10.8373 73.3376 11.136C73.0816 11.424 72.9536 11.8133 72.9536 12.304C72.9536 12.816 73.087 13.2213 73.3536 13.52C73.6203 13.8187 73.9883 13.968 74.4576 13.968C74.9483 13.968 75.3216 13.824 75.5776 13.536C75.8336 13.2373 75.9616 12.8213 75.9616 12.288C75.9616 11.2213 75.4496 10.688 74.4256 10.688ZM86.7385 13.568C86.7385 13.6747 86.7225 13.952 86.6905 14.4H81.3785C81.4425 15.2213 81.6558 15.808 82.0185 16.16C82.3812 16.512 82.8612 16.688 83.4585 16.688C83.8318 16.688 84.1838 16.6293 84.5145 16.512C84.8452 16.384 85.1972 16.192 85.5705 15.936L86.4185 17.104C85.4798 17.8613 84.4345 18.24 83.2825 18.24C81.9918 18.24 80.9945 17.8453 80.2905 17.056C79.5972 16.2667 79.2505 15.1893 79.2505 13.824C79.2505 12.96 79.3998 12.1867 79.6985 11.504C79.9972 10.8107 80.4292 10.272 80.9945 9.888C81.5598 9.49333 82.2318 9.296 83.0105 9.296C84.1945 9.296 85.1118 9.67467 85.7625 10.432C86.4132 11.1787 86.7385 12.224 86.7385 13.568ZM84.7065 12.976C84.7065 11.4933 84.1572 10.752 83.0585 10.752C82.5572 10.752 82.1625 10.9387 81.8745 11.312C81.5972 11.6747 81.4318 12.2613 81.3785 13.072H84.7065V12.976ZM95.9038 6.944C97.3224 6.944 98.4211 7.23733 99.1998 7.824C99.9891 8.41067 100.384 9.29067 100.384 10.464C100.384 11.6907 99.9891 12.6133 99.1998 13.232C98.4104 13.84 97.3598 14.144 96.0477 14.144H94.7518V18H92.6398V6.944H95.9038ZM95.8878 12.56C96.6451 12.56 97.2158 12.4053 97.5998 12.096C97.9838 11.776 98.1758 11.232 98.1758 10.464C98.1758 9.152 97.4131 8.496 95.8878 8.496H94.7518V12.56H95.8878ZM107.441 15.76C107.441 16.0907 107.489 16.336 107.585 16.496C107.692 16.6453 107.857 16.7627 108.081 16.848L107.649 18.208C107.169 18.1653 106.774 18.048 106.465 17.856C106.166 17.664 105.937 17.3707 105.777 16.976C105.489 17.4027 105.126 17.7227 104.689 17.936C104.262 18.1387 103.782 18.24 103.249 18.24C102.406 18.24 101.74 18 101.249 17.52C100.758 17.04 100.513 16.4107 100.513 15.632C100.513 14.7147 100.844 14.016 101.505 13.536C102.177 13.0453 103.132 12.8 104.369 12.8H105.425V12.32C105.425 11.776 105.297 11.3973 105.041 11.184C104.796 10.96 104.396 10.848 103.841 10.848C103.222 10.848 102.476 10.9973 101.601 11.296L101.121 9.904C102.177 9.49867 103.201 9.296 104.193 9.296C106.358 9.296 107.441 10.2667 107.441 12.208V15.76ZM103.793 16.752C104.486 16.752 105.03 16.4053 105.425 15.712V14H104.577C103.254 14 102.593 14.4907 102.593 15.472C102.593 15.8773 102.694 16.192 102.897 16.416C103.1 16.64 103.398 16.752 103.793 16.752ZM112.435 9.296C113.577 9.296 114.579 9.632 115.443 10.304L114.643 11.504C113.918 11.0453 113.209 10.816 112.515 10.816C112.11 10.816 111.795 10.896 111.571 11.056C111.347 11.2053 111.235 11.408 111.235 11.664C111.235 11.856 111.283 12.016 111.379 12.144C111.475 12.272 111.646 12.3947 111.891 12.512C112.147 12.6187 112.521 12.7413 113.011 12.88C113.929 13.1253 114.606 13.4507 115.043 13.856C115.491 14.2613 115.715 14.8267 115.715 15.552C115.715 16.3947 115.374 17.056 114.691 17.536C114.009 18.0053 113.161 18.24 112.147 18.24C111.454 18.24 110.819 18.1333 110.243 17.92C109.678 17.7067 109.187 17.4133 108.771 17.04L109.795 15.888C110.531 16.4427 111.299 16.72 112.099 16.72C112.558 16.72 112.921 16.6293 113.187 16.448C113.465 16.2667 113.603 16.016 113.603 15.696C113.603 15.4507 113.55 15.2587 113.443 15.12C113.347 14.9707 113.166 14.8427 112.899 14.736C112.643 14.6187 112.238 14.48 111.683 14.32C110.819 14.0853 110.185 13.76 109.779 13.344C109.374 12.9173 109.171 12.3893 109.171 11.76C109.171 11.2907 109.305 10.8693 109.571 10.496C109.849 10.1227 110.233 9.82933 110.723 9.616C111.225 9.40267 111.795 9.296 112.435 9.296ZM119.92 9.296C121.061 9.296 122.064 9.632 122.928 10.304L122.128 11.504C121.402 11.0453 120.693 10.816 120 10.816C119.594 10.816 119.28 10.896 119.056 11.056C118.832 11.2053 118.72 11.408 118.72 11.664C118.72 11.856 118.768 12.016 118.864 12.144C118.96 12.272 119.13 12.3947 119.376 12.512C119.632 12.6187 120.005 12.7413 120.496 12.88C121.413 13.1253 122.09 13.4507 122.528 13.856C122.976 14.2613 123.2 14.8267 123.2 15.552C123.2 16.3947 122.858 17.056 122.176 17.536C121.493 18.0053 120.645 18.24 119.632 18.24C118.938 18.24 118.304 18.1333 117.728 17.92C117.162 17.7067 116.672 17.4133 116.256 17.04L117.28 15.888C118.016 16.4427 118.784 16.72 119.584 16.72C120.042 16.72 120.405 16.6293 120.672 16.448C120.949 16.2667 121.088 16.016 121.088 15.696C121.088 15.4507 121.034 15.2587 120.928 15.12C120.832 14.9707 120.65 14.8427 120.384 14.736C120.128 14.6187 119.722 14.48 119.168 14.32C118.304 14.0853 117.669 13.76 117.264 13.344C116.858 12.9173 116.656 12.3893 116.656 11.76C116.656 11.2907 116.789 10.8693 117.056 10.496C117.333 10.1227 117.717 9.82933 118.208 9.616C118.709 9.40267 119.28 9.296 119.92 9.296ZM135.068 9.536L133.228 18H130.668L129.388 11.36L128.076 18H125.564L123.692 9.536H125.74L126.924 16.496L128.396 9.536H130.492L131.836 16.496L133.1 9.536H135.068ZM139.938 9.296C141.186 9.296 142.157 9.696 142.85 10.496C143.554 11.2853 143.906 12.3733 143.906 13.76C143.906 14.6453 143.746 15.4293 143.426 16.112C143.106 16.784 142.647 17.3067 142.05 17.68C141.453 18.0533 140.743 18.24 139.922 18.24C138.674 18.24 137.698 17.8453 136.994 17.056C136.29 16.256 135.938 15.1573 135.938 13.76C135.938 12.8747 136.098 12.096 136.418 11.424C136.738 10.752 137.197 10.2293 137.794 9.856C138.402 9.48267 139.117 9.296 139.938 9.296ZM139.938 10.848C138.711 10.848 138.098 11.8187 138.098 13.76C138.098 14.7627 138.247 15.504 138.546 15.984C138.855 16.4533 139.314 16.688 139.922 16.688C140.53 16.688 140.983 16.448 141.282 15.968C141.591 15.488 141.746 14.752 141.746 13.76C141.746 12.768 141.591 12.0373 141.282 11.568C140.983 11.088 140.535 10.848 139.938 10.848ZM150.002 9.312C150.311 9.312 150.594 9.34933 150.85 9.424L150.498 11.408C150.242 11.344 149.991 11.312 149.746 11.312C149.244 11.312 148.85 11.4933 148.562 11.856C148.274 12.208 148.044 12.752 147.874 13.488V18H145.826V9.536H147.602L147.794 11.2C147.996 10.592 148.29 10.128 148.674 9.808C149.058 9.47733 149.5 9.312 150.002 9.312ZM158.758 6.144V18H156.95L156.806 16.928C156.54 17.3333 156.198 17.6533 155.782 17.888C155.377 18.1227 154.913 18.24 154.39 18.24C153.356 18.24 152.561 17.84 152.006 17.04C151.452 16.24 151.174 15.152 151.174 13.776C151.174 12.912 151.313 12.144 151.59 11.472C151.868 10.7893 152.262 10.256 152.774 9.872C153.297 9.488 153.9 9.296 154.582 9.296C155.393 9.296 156.102 9.6 156.71 10.208V5.92L158.758 6.144ZM154.966 16.688C155.329 16.688 155.649 16.6027 155.926 16.432C156.204 16.2507 156.465 15.9733 156.71 15.6V11.728C156.465 11.4293 156.214 11.2053 155.958 11.056C155.713 10.9067 155.425 10.832 155.094 10.832C154.55 10.832 154.118 11.0773 153.798 11.568C153.489 12.048 153.334 12.7787 153.334 13.76C153.334 14.8053 153.473 15.5573 153.75 16.016C154.028 16.464 154.433 16.688 154.966 16.688Z" fill="black"/>
</svg>
