<svg width="113" height="24" viewBox="0 0 113 24" fill="none" xmlns="http://www.w3.org/2000/svg">
<path fill-rule="evenodd" clip-rule="evenodd" d="M8.92918 4.4703C7.65796 4.32822 6.34205 4.32822 5.07084 4.4703C4.76195 4.50482 4.51835 4.74941 4.48361 5.04647C4.3318 6.34441 4.3318 7.65562 4.48361 8.95356C4.51835 9.25062 4.76195 9.49521 5.07084 9.52973C6.34206 9.67181 7.65796 9.67181 8.92918 9.52973C9.23807 9.49521 9.48167 9.25062 9.51641 8.95356C9.66822 7.65562 9.66822 6.34441 9.51641 5.04647C9.48167 4.74941 9.23807 4.50482 8.92918 4.4703ZM4.90423 2.97958C6.28617 2.82513 7.71384 2.82513 9.09579 2.97958C10.0866 3.09032 10.8891 3.87031 11.0063 4.87222C11.1716 6.28593 11.1716 7.7141 11.0063 9.12781C10.8891 10.1297 10.0866 10.9097 9.09579 11.0204C7.71384 11.1749 6.28617 11.1749 4.90423 11.0204C3.91339 10.9097 3.11094 10.1297 2.99376 9.12781C2.82841 7.7141 2.82841 6.28593 2.99376 4.87222C3.11094 3.87031 3.91339 3.09032 4.90423 2.97958Z" fill="#5055BE"/>
<path fill-rule="evenodd" clip-rule="evenodd" d="M8.92918 14.4703C7.65796 14.3282 6.34205 14.3282 5.07084 14.4703C4.76195 14.5048 4.51835 14.7494 4.48361 15.0465C4.3318 16.3444 4.3318 17.6556 4.48361 18.9536C4.51835 19.2506 4.76195 19.4952 5.07084 19.5297C6.34206 19.6718 7.65796 19.6718 8.92918 19.5297C9.23807 19.4952 9.48167 19.2506 9.51641 18.9536C9.66822 17.6556 9.66822 16.3444 9.51641 15.0465C9.48167 14.7494 9.23807 14.5048 8.92918 14.4703ZM4.90423 12.9796C6.28617 12.8251 7.71384 12.8251 9.09579 12.9796C10.0866 13.0903 10.8891 13.8703 11.0063 14.8722C11.1716 16.2859 11.1716 17.7141 11.0063 19.1278C10.8891 20.1297 10.0866 20.9097 9.09579 21.0205C7.71384 21.1749 6.28617 21.1749 4.90423 21.0205C3.91339 20.9097 3.11094 20.1297 2.99376 19.1278C2.82841 17.7141 2.82841 16.2859 2.99376 14.8722C3.11094 13.8703 3.91339 13.0903 4.90423 12.9796Z" fill="#5055BE"/>
<path fill-rule="evenodd" clip-rule="evenodd" d="M18.9292 4.4703C17.658 4.32822 16.3421 4.32822 15.0708 4.4703C14.7619 4.50482 14.5183 4.74941 14.4836 5.04647C14.3318 6.34441 14.3318 7.65562 14.4836 8.95356C14.5183 9.25062 14.7619 9.49521 15.0708 9.52973C16.3421 9.67181 17.658 9.67181 18.9292 9.52973C19.2381 9.49521 19.4817 9.25062 19.5164 8.95356C19.6682 7.65562 19.6682 6.34441 19.5164 5.04647C19.4817 4.74941 19.2381 4.50482 18.9292 4.4703ZM14.9042 2.97958C16.2862 2.82513 17.7138 2.82513 19.0958 2.97958C20.0866 3.09032 20.8891 3.87031 21.0063 4.87222C21.1716 6.28593 21.1716 7.7141 21.0063 9.12781C20.8891 10.1297 20.0866 10.9097 19.0958 11.0204C17.7138 11.1749 16.2862 11.1749 14.9042 11.0204C13.9134 10.9097 13.1109 10.1297 12.9938 9.12781C12.8284 7.7141 12.8284 6.28593 12.9938 4.87222C13.1109 3.87031 13.9134 3.09032 14.9042 2.97958Z" fill="#5055BE"/>
<path fill-rule="evenodd" clip-rule="evenodd" d="M18.9292 14.4703C17.658 14.3282 16.3421 14.3282 15.0708 14.4703C14.7619 14.5048 14.5183 14.7494 14.4836 15.0465C14.3318 16.3444 14.3318 17.6556 14.4836 18.9536C14.5183 19.2506 14.7619 19.4952 15.0708 19.5297C16.3421 19.6718 17.658 19.6718 18.9292 19.5297C19.2381 19.4952 19.4817 19.2506 19.5164 18.9536C19.6682 17.6556 19.6682 16.3444 19.5164 15.0465C19.4817 14.7494 19.2381 14.5048 18.9292 14.4703ZM14.9042 12.9796C16.2862 12.8251 17.7138 12.8251 19.0958 12.9796C20.0866 13.0903 20.8891 13.8703 21.0063 14.8722C21.1716 16.2859 21.1716 17.7141 21.0063 19.1278C20.8891 20.1297 20.0866 20.9097 19.0958 21.0205C17.7138 21.1749 16.2862 21.1749 14.9042 21.0205C13.9134 20.9097 13.1109 20.1297 12.9938 19.1278C12.8284 17.7141 12.8284 16.2859 12.9938 14.8722C13.1109 13.8703 13.9134 13.0903 14.9042 12.9796Z" fill="#5055BE"/>
<path d="M38.016 6.944C39.7333 6.944 41.104 7.33333 42.128 8.112C43.1627 8.89067 43.68 10.3253 43.68 12.416C43.68 14.464 43.1733 15.9093 42.16 16.752C41.1467 17.584 39.8613 18 38.304 18H35.296V6.944H38.016ZM37.408 8.528V16.416H38.448C39.3867 16.416 40.1227 16.128 40.656 15.552C41.1893 14.9653 41.456 13.92 41.456 12.416C41.456 11.3707 41.3173 10.5653 41.04 10C40.7733 9.424 40.416 9.03467 39.968 8.832C39.5307 8.62933 39.0027 8.528 38.384 8.528H37.408ZM51.7068 15.76C51.7068 16.0907 51.7548 16.336 51.8508 16.496C51.9574 16.6453 52.1228 16.7627 52.3468 16.848L51.9148 18.208C51.4348 18.1653 51.0401 18.048 50.7308 17.856C50.4321 17.664 50.2028 17.3707 50.0428 16.976C49.7548 17.4027 49.3921 17.7227 48.9548 17.936C48.5281 18.1387 48.0481 18.24 47.5148 18.24C46.6721 18.24 46.0054 18 45.5148 17.52C45.0241 17.04 44.7788 16.4107 44.7788 15.632C44.7788 14.7147 45.1094 14.016 45.7708 13.536C46.4428 13.0453 47.3974 12.8 48.6348 12.8H49.6908V12.32C49.6908 11.776 49.5628 11.3973 49.3068 11.184C49.0614 10.96 48.6614 10.848 48.1068 10.848C47.4881 10.848 46.7414 10.9973 45.8668 11.296L45.3868 9.904C46.4428 9.49867 47.4668 9.296 48.4588 9.296C50.6241 9.296 51.7068 10.2667 51.7068 12.208V15.76ZM48.0588 16.752C48.7521 16.752 49.2961 16.4053 49.6908 15.712V14H48.8428C47.5201 14 46.8588 14.4907 46.8588 15.472C46.8588 15.8773 46.9601 16.192 47.1628 16.416C47.3654 16.64 47.6641 16.752 48.0588 16.752ZM56.7009 9.296C57.8422 9.296 58.8449 9.632 59.7089 10.304L58.9089 11.504C58.1835 11.0453 57.4742 10.816 56.7809 10.816C56.3755 10.816 56.0609 10.896 55.8369 11.056C55.6129 11.2053 55.5009 11.408 55.5009 11.664C55.5009 11.856 55.5489 12.016 55.6449 12.144C55.7409 12.272 55.9115 12.3947 56.1569 12.512C56.4129 12.6187 56.7862 12.7413 57.2769 12.88C58.1942 13.1253 58.8715 13.4507 59.3089 13.856C59.7569 14.2613 59.9809 14.8267 59.9809 15.552C59.9809 16.3947 59.6395 17.056 58.9569 17.536C58.2742 18.0053 57.4262 18.24 56.4129 18.24C55.7195 18.24 55.0849 18.1333 54.5089 17.92C53.9435 17.7067 53.4529 17.4133 53.0369 17.04L54.0609 15.888C54.7969 16.4427 55.5649 16.72 56.3649 16.72C56.8235 16.72 57.1862 16.6293 57.4529 16.448C57.7302 16.2667 57.8689 16.016 57.8689 15.696C57.8689 15.4507 57.8155 15.2587 57.7089 15.12C57.6129 14.9707 57.4315 14.8427 57.1649 14.736C56.9089 14.6187 56.5035 14.48 55.9489 14.32C55.0849 14.0853 54.4502 13.76 54.0449 13.344C53.6395 12.9173 53.4369 12.3893 53.4369 11.76C53.4369 11.2907 53.5702 10.8693 53.8369 10.496C54.1142 10.1227 54.4982 9.82933 54.9889 9.616C55.4902 9.40267 56.0609 9.296 56.7009 9.296ZM66.1503 9.296C66.8969 9.296 67.4836 9.52533 67.9103 9.984C68.3369 10.4427 68.5503 11.072 68.5503 11.872V18H66.5023V12.192C66.5023 11.6907 66.4116 11.3387 66.2303 11.136C66.0596 10.9333 65.8036 10.832 65.4623 10.832C65.1209 10.832 64.8063 10.944 64.5182 11.168C64.2303 11.3813 63.9529 11.6907 63.6863 12.096V18H61.6383V6.16L63.6863 5.952V10.544C64.3689 9.712 65.1903 9.296 66.1503 9.296ZM75.3191 9.296C76.3005 9.296 77.0685 9.69067 77.6231 10.48C78.1778 11.2587 78.4551 12.352 78.4551 13.76C78.4551 14.6347 78.3165 15.4133 78.0391 16.096C77.7725 16.768 77.3885 17.296 76.8871 17.68C76.3858 18.0533 75.7938 18.24 75.1111 18.24C74.6525 18.24 74.2311 18.144 73.8471 17.952C73.4738 17.76 73.1485 17.488 72.8711 17.136L72.7431 18H70.9351V6.144L72.9831 5.92V10.496C73.2605 10.112 73.5965 9.81867 73.9911 9.616C74.3965 9.40267 74.8391 9.296 75.3191 9.296ZM74.5511 16.704C75.1058 16.704 75.5378 16.4693 75.8471 16C76.1565 15.52 76.3111 14.7733 76.3111 13.76C76.3111 12.6933 76.1671 11.9413 75.8791 11.504C75.5911 11.056 75.1858 10.832 74.6631 10.832C74.0125 10.832 73.4525 11.216 72.9831 11.984V15.728C73.1645 16.0373 73.3885 16.2773 73.6551 16.448C73.9325 16.6187 74.2311 16.704 74.5511 16.704ZM83.9224 9.296C85.1704 9.296 86.141 9.696 86.8344 10.496C87.5384 11.2853 87.8904 12.3733 87.8904 13.76C87.8904 14.6453 87.7304 15.4293 87.4104 16.112C87.0904 16.784 86.6317 17.3067 86.0344 17.68C85.437 18.0533 84.7277 18.24 83.9064 18.24C82.6584 18.24 81.6824 17.8453 80.9784 17.056C80.2744 16.256 79.9224 15.1573 79.9224 13.76C79.9224 12.8747 80.0824 12.096 80.4024 11.424C80.7224 10.752 81.181 10.2293 81.7784 9.856C82.3864 9.48267 83.101 9.296 83.9224 9.296ZM83.9224 10.848C82.6957 10.848 82.0824 11.8187 82.0824 13.76C82.0824 14.7627 82.2317 15.504 82.5304 15.984C82.8397 16.4533 83.2984 16.688 83.9064 16.688C84.5144 16.688 84.9677 16.448 85.2664 15.968C85.5757 15.488 85.7304 14.752 85.7304 13.76C85.7304 12.768 85.5757 12.0373 85.2664 11.568C84.9677 11.088 84.5197 10.848 83.9224 10.848ZM95.9099 15.76C95.9099 16.0907 95.9579 16.336 96.0539 16.496C96.1605 16.6453 96.3259 16.7627 96.5499 16.848L96.1179 18.208C95.6379 18.1653 95.2432 18.048 94.9339 17.856C94.6352 17.664 94.4059 17.3707 94.2459 16.976C93.9579 17.4027 93.5952 17.7227 93.1579 17.936C92.7312 18.1387 92.2512 18.24 91.7179 18.24C90.8752 18.24 90.2085 18 89.7179 17.52C89.2272 17.04 88.9819 16.4107 88.9819 15.632C88.9819 14.7147 89.3125 14.016 89.9739 13.536C90.6459 13.0453 91.6005 12.8 92.8379 12.8H93.8939V12.32C93.8939 11.776 93.7659 11.3973 93.5099 11.184C93.2645 10.96 92.8645 10.848 92.3099 10.848C91.6912 10.848 90.9445 10.9973 90.0699 11.296L89.5899 9.904C90.6459 9.49867 91.6699 9.296 92.6619 9.296C94.8272 9.296 95.9099 10.2667 95.9099 12.208V15.76ZM92.2619 16.752C92.9552 16.752 93.4992 16.4053 93.8939 15.712V14H93.0459C91.7232 14 91.0619 14.4907 91.0619 15.472C91.0619 15.8773 91.1632 16.192 91.3659 16.416C91.5685 16.64 91.8672 16.752 92.2619 16.752ZM102.564 9.312C102.874 9.312 103.156 9.34933 103.412 9.424L103.06 11.408C102.804 11.344 102.554 11.312 102.308 11.312C101.807 11.312 101.412 11.4933 101.124 11.856C100.836 12.208 100.607 12.752 100.436 13.488V18H98.3883V9.536H100.164L100.356 11.2C100.559 10.592 100.852 10.128 101.236 9.808C101.62 9.47733 102.063 9.312 102.564 9.312ZM111.321 6.144V18H109.513L109.369 16.928C109.102 17.3333 108.761 17.6533 108.345 17.888C107.939 18.1227 107.475 18.24 106.953 18.24C105.918 18.24 105.123 17.84 104.569 17.04C104.014 16.24 103.737 15.152 103.737 13.776C103.737 12.912 103.875 12.144 104.153 11.472C104.43 10.7893 104.825 10.256 105.337 9.872C105.859 9.488 106.462 9.296 107.145 9.296C107.955 9.296 108.665 9.6 109.273 10.208V5.92L111.321 6.144ZM107.529 16.688C107.891 16.688 108.211 16.6027 108.489 16.432C108.766 16.2507 109.027 15.9733 109.273 15.6V11.728C109.027 11.4293 108.777 11.2053 108.521 11.056C108.275 10.9067 107.987 10.832 107.657 10.832C107.113 10.832 106.681 11.0773 106.361 11.568C106.051 12.048 105.897 12.7787 105.897 13.76C105.897 14.8053 106.035 15.5573 106.313 16.016C106.59 16.464 106.995 16.688 107.529 16.688Z" fill="#5055BE"/>
</svg>
