<svg width="145" height="32" viewBox="0 0 145 32" fill="none" xmlns="http://www.w3.org/2000/svg">
<path d="M18 12.9998C18 12.4475 17.5523 11.9998 17 11.9998H9C8.44772 11.9998 8 12.4475 8 12.9998C8 13.5521 8.44772 13.9998 9 13.9998H17C17.5523 13.9998 18 13.5521 18 12.9998Z" fill="#5055BE"/>
<path d="M16.6667 16.9998C16.6667 16.4475 16.219 15.9998 15.6667 15.9998H9C8.44772 15.9998 8 16.4475 8 16.9998C8 17.5521 8.44772 17.9998 9 17.9998H15.6667C16.219 17.9998 16.6667 17.5521 16.6667 16.9998Z" fill="#5055BE"/>
<path d="M17 19.9998C17.5523 19.9998 18 20.4475 18 20.9998C18 21.5521 17.5523 21.9998 17 21.9998H9C8.44772 21.9998 8 21.5521 8 20.9998C8 20.4475 8.44772 19.9998 9 19.9998H17Z" fill="#5055BE"/>
<path fill-rule="evenodd" clip-rule="evenodd" d="M8 28.9998H25.3333C27.3584 28.9998 29 27.3582 29 25.3331V17.9998C29 17.4475 28.5523 16.9998 28 16.9998H23.6667V6.59071C23.6667 4.69284 21.5215 3.58888 19.9771 4.69199L19.7437 4.85871C18.7031 5.60203 17.2934 5.59953 16.2479 4.85272C14.5094 3.61094 12.1572 3.61094 10.4188 4.85272C9.37322 5.59953 7.96361 5.60203 6.92295 4.85871L6.68956 4.69199C5.1452 3.58888 3 4.69284 3 6.59071V23.9998C3 26.7612 5.23858 28.9998 8 28.9998ZM11.5812 6.48019C12.6243 5.73512 14.0423 5.73512 15.0854 6.48019C16.8215 7.72022 19.1653 7.72969 20.9062 6.48617L21.1396 6.31946C21.3602 6.16187 21.6667 6.31958 21.6667 6.59071V25.3331C21.6667 25.9333 21.8109 26.4997 22.0665 26.9998H8C6.34315 26.9998 5 25.6566 5 23.9998V6.59071C5 6.31958 5.30646 6.16187 5.52708 6.31946L5.76048 6.48617C7.5014 7.72969 9.8452 7.72022 11.5812 6.48019ZM23.6667 25.3331V18.9998H27V25.3331C27 26.2536 26.2538 26.9998 25.3333 26.9998C24.4129 26.9998 23.6667 26.2536 23.6667 25.3331Z" fill="#5055BE"/>
<path d="M47.522 7.798C49.8833 7.798 51.768 8.33333 53.176 9.404C54.5987 10.4747 55.31 12.4473 55.31 15.322C55.31 18.138 54.6133 20.1253 53.22 21.284C51.8267 22.428 50.0593 23 47.918 23H43.782V7.798H47.522ZM46.686 9.976V20.822H48.116C49.4067 20.822 50.4187 20.426 51.152 19.634C51.8853 18.8273 52.252 17.39 52.252 15.322C52.252 13.8847 52.0613 12.7773 51.68 12C51.3133 11.208 50.822 10.6727 50.206 10.394C49.6047 10.1153 48.8787 9.976 48.028 9.976H46.686ZM67.5076 16.906C67.5076 17.0527 67.4856 17.434 67.4416 18.05H60.1376C60.2256 19.1793 60.519 19.986 61.0176 20.47C61.5163 20.954 62.1763 21.196 62.9976 21.196C63.511 21.196 63.995 21.1153 64.4496 20.954C64.9043 20.778 65.3883 20.514 65.9016 20.162L67.0676 21.768C65.777 22.8093 64.3396 23.33 62.7556 23.33C60.981 23.33 59.6096 22.7873 58.6416 21.702C57.6883 20.6167 57.2116 19.1353 57.2116 17.258C57.2116 16.07 57.417 15.0067 57.8276 14.068C58.2383 13.1147 58.8323 12.374 59.6096 11.846C60.387 11.3033 61.311 11.032 62.3816 11.032C64.0096 11.032 65.271 11.5527 66.1656 12.594C67.0603 13.6207 67.5076 15.058 67.5076 16.906ZM64.7136 16.092C64.7136 14.0533 63.9583 13.034 62.4476 13.034C61.7583 13.034 61.2156 13.2907 60.8196 13.804C60.4383 14.3027 60.211 15.1093 60.1376 16.224H64.7136V16.092ZM79.8238 6.698V23H77.3378L77.1398 21.526C76.7732 22.0833 76.3038 22.5233 75.7318 22.846C75.1745 23.1687 74.5365 23.33 73.8178 23.33C72.3952 23.33 71.3025 22.78 70.5398 21.68C69.7772 20.58 69.3958 19.084 69.3958 17.192C69.3958 16.004 69.5865 14.948 69.9678 14.024C70.3492 13.0853 70.8918 12.352 71.5958 11.824C72.3145 11.296 73.1432 11.032 74.0818 11.032C75.1965 11.032 76.1718 11.45 77.0078 12.286V6.39L79.8238 6.698ZM74.6098 21.196C75.1085 21.196 75.5485 21.0787 75.9298 20.844C76.3112 20.5947 76.6705 20.2133 77.0078 19.7V14.376C76.6705 13.9653 76.3258 13.6573 75.9738 13.452C75.6365 13.2467 75.2405 13.144 74.7858 13.144C74.0378 13.144 73.4438 13.4813 73.0038 14.156C72.5785 14.816 72.3658 15.8207 72.3658 17.17C72.3658 18.6073 72.5565 19.6413 72.9378 20.272C73.3192 20.888 73.8765 21.196 74.6098 21.196ZM92.5098 23H90.0678L89.9138 21.372C89.4884 22.032 88.9824 22.5233 88.3958 22.846C87.8238 23.1687 87.1418 23.33 86.3498 23.33C85.3084 23.33 84.5018 23.0147 83.9298 22.384C83.3724 21.7387 83.0938 20.8513 83.0938 19.722V11.362H85.9098V19.37C85.9098 20.03 86.0198 20.4993 86.2398 20.778C86.4744 21.0567 86.8411 21.196 87.3398 21.196C88.2344 21.196 89.0191 20.646 89.6938 19.546V11.362H92.5098V23ZM100.587 11.032C101.35 11.032 102.032 11.142 102.633 11.362C103.249 11.582 103.828 11.9267 104.371 12.396L103.117 14.09C102.721 13.7967 102.34 13.584 101.973 13.452C101.606 13.32 101.203 13.254 100.763 13.254C99.0177 13.254 98.145 14.5813 98.145 17.236C98.145 18.5853 98.3724 19.5607 98.827 20.162C99.2817 20.7487 99.927 21.042 100.763 21.042C101.174 21.042 101.548 20.976 101.885 20.844C102.237 20.712 102.648 20.4993 103.117 20.206L104.371 21.988C103.271 22.8827 102.017 23.33 100.609 23.33C99.4944 23.33 98.5264 23.088 97.705 22.604C96.8837 22.1053 96.253 21.4013 95.813 20.492C95.373 19.5827 95.153 18.512 95.153 17.28C95.153 16.048 95.373 14.9627 95.813 14.024C96.253 13.0707 96.8837 12.3373 97.705 11.824C98.5264 11.296 99.487 11.032 100.587 11.032ZM113.073 22.45C112.662 22.7433 112.2 22.9633 111.687 23.11C111.188 23.2567 110.675 23.33 110.147 23.33C109.003 23.3153 108.13 22.9927 107.529 22.362C106.942 21.7167 106.649 20.7707 106.649 19.524V13.386H104.823V11.362H106.649V8.788L109.465 8.458V11.362H112.171L111.885 13.386H109.465V19.458C109.465 20.03 109.56 20.4407 109.751 20.69C109.956 20.9393 110.272 21.064 110.697 21.064C111.122 21.064 111.584 20.9247 112.083 20.646L113.073 22.45ZM117.473 11.362V23H114.657V11.362H117.473ZM116.043 5.466C116.571 5.466 116.996 5.63467 117.319 5.972C117.656 6.29467 117.825 6.698 117.825 7.182C117.825 7.666 117.656 8.06933 117.319 8.392C116.996 8.71467 116.571 8.876 116.043 8.876C115.53 8.876 115.104 8.71467 114.767 8.392C114.444 8.06933 114.283 7.666 114.283 7.182C114.283 6.698 114.444 6.29467 114.767 5.972C115.104 5.63467 115.53 5.466 116.043 5.466ZM125.618 11.032C127.334 11.032 128.669 11.582 129.622 12.682C130.59 13.7673 131.074 15.2633 131.074 17.17C131.074 18.3873 130.854 19.4653 130.414 20.404C129.974 21.328 129.343 22.0467 128.522 22.56C127.701 23.0733 126.725 23.33 125.596 23.33C123.88 23.33 122.538 22.7873 121.57 21.702C120.602 20.602 120.118 19.0913 120.118 17.17C120.118 15.9527 120.338 14.882 120.778 13.958C121.218 13.034 121.849 12.3153 122.67 11.802C123.506 11.2887 124.489 11.032 125.618 11.032ZM125.618 13.166C123.931 13.166 123.088 14.5007 123.088 17.17C123.088 18.5487 123.293 19.568 123.704 20.228C124.129 20.8733 124.76 21.196 125.596 21.196C126.432 21.196 127.055 20.866 127.466 20.206C127.891 19.546 128.104 18.534 128.104 17.17C128.104 15.806 127.891 14.8013 127.466 14.156C127.055 13.496 126.439 13.166 125.618 13.166ZM139.918 11.032C140.959 11.032 141.766 11.3473 142.338 11.978C142.924 12.594 143.218 13.4593 143.218 14.574V23H140.402V15.014C140.402 14.3247 140.277 13.8407 140.028 13.562C139.793 13.2833 139.441 13.144 138.972 13.144C138.488 13.144 138.048 13.298 137.652 13.606C137.27 13.8993 136.896 14.332 136.53 14.904V23H133.714V11.362H136.156L136.376 12.88C137.329 11.648 138.51 11.032 139.918 11.032Z" fill="#5055BE"/>
</svg>
