<svg width="12" height="16" viewBox="0 0 12 16" fill="none" xmlns="http://www.w3.org/2000/svg">
<path d="M4.5 0.6875C4.18934 0.6875 3.9375 0.93934 3.9375 1.25V1.8125H0.75C0.43934 1.8125 0.1875 2.06434 0.1875 2.375C0.1875 2.68566 0.43934 2.9375 0.75 2.9375H11.25C11.5607 2.9375 11.8125 2.68566 11.8125 2.375C11.8125 2.06434 11.5607 1.8125 11.25 1.8125H8.0625V1.25C8.0625 0.93934 7.81066 0.6875 7.5 0.6875H4.5Z" fill="black"/>
<path d="M4.5 6.9875C4.81066 6.9875 5.0625 7.23934 5.0625 7.55L5.0625 12.8C5.0625 13.1107 4.81066 13.3625 4.5 13.3625C4.18934 13.3625 3.9375 13.1107 3.9375 12.8L3.9375 7.55C3.9375 7.23934 4.18934 6.9875 4.5 6.9875Z" fill="black"/>
<path d="M8.0625 7.55C8.0625 7.23934 7.81066 6.9875 7.5 6.9875C7.18934 6.9875 6.9375 7.23934 6.9375 7.55V12.8C6.9375 13.1107 7.18934 13.3625 7.5 13.3625C7.81066 13.3625 8.0625 13.1107 8.0625 12.8V7.55Z" fill="black"/>
<path fill-rule="evenodd" clip-rule="evenodd" d="M1.49357 4.93788C1.52522 4.65301 1.76601 4.4375 2.05263 4.4375H9.94736C10.234 4.4375 10.4748 4.65301 10.5064 4.93788L10.6565 6.28889C10.9286 8.73788 10.9286 11.2095 10.6565 13.6585L10.6418 13.7915C10.5337 14.7636 9.78034 15.5387 8.81168 15.6744C6.94632 15.9355 5.05367 15.9355 3.18831 15.6744C2.21966 15.5387 1.46625 14.7636 1.35823 13.7915L1.34346 13.6585C1.07135 11.2095 1.07135 8.73788 1.34346 6.28889L1.49357 4.93788ZM2.55609 5.5625L2.46158 6.41313C2.19864 8.77955 2.19864 11.1678 2.46158 13.5342L2.47635 13.6672C2.52758 14.1283 2.88489 14.4959 3.34429 14.5602C5.10617 14.8069 6.89382 14.8069 8.65571 14.5602C9.1151 14.4959 9.47241 14.1283 9.52364 13.6672L9.53842 13.5342C9.80135 11.1678 9.80135 8.77955 9.53842 6.41313L9.4439 5.5625H2.55609Z" fill="black"/>
</svg>
