<svg width="16" height="16" viewBox="0 0 16 16" fill="none" xmlns="http://www.w3.org/2000/svg">
<path fill-rule="evenodd" clip-rule="evenodd" d="M15.0907 3.06181C15.2348 3.28015 15.2108 3.57686 15.0186 3.76907L8.1243 10.6634C8.05364 10.734 7.96541 10.7846 7.86871 10.8099L4.99739 11.5599C4.90374 11.5843 4.80721 11.5838 4.71651 11.5607C4.62009 11.5362 4.53026 11.4861 4.4575 11.4134C4.31629 11.2721 4.26054 11.0667 4.311 10.8734L5.061 8.00213C5.0831 7.91752 5.12458 7.83396 5.18194 7.76841L12.1018 0.852252C12.1624 0.79168 12.2353 0.746345 12.3147 0.718723C12.3736 0.698243 12.436 0.6875 12.4995 0.6875C12.6487 0.6875 12.7918 0.746763 12.8973 0.852252L15.0186 2.97357C15.0461 3.00103 15.0701 3.03062 15.0907 3.06181ZM13.8254 3.37132L12.4995 2.0455L6.1109 8.43412L5.64216 10.2287L7.43674 9.75994L13.8254 3.37132Z" fill="black"/>
<path d="M13.7305 11.8702C13.9356 10.117 14.0008 8.35158 13.9263 6.59059C13.9227 6.50628 13.9544 6.42424 14.0141 6.36456L14.7516 5.62707C14.8423 5.53639 14.9972 5.59396 15.0057 5.72191C15.1444 7.81415 15.0918 9.91589 14.8479 12.0009C14.6705 13.5178 13.4523 14.7066 11.9432 14.8752C9.34329 15.1658 6.65579 15.1658 4.05585 14.8752C2.54681 14.7066 1.32856 13.5178 1.15115 12.0009C0.840243 9.3427 0.840243 6.6573 1.15115 3.99907C1.32856 2.48217 2.54681 1.29342 4.05585 1.12476C6.02816 0.904324 8.05087 0.851111 10.0475 0.965121C10.1762 0.972469 10.2349 1.12818 10.1437 1.21932L9.3993 1.96374C9.34028 2.02276 9.25935 2.05445 9.17593 2.05164C7.50611 1.99532 5.82494 2.05904 4.18081 2.2428C3.18323 2.35429 2.38412 3.1415 2.26853 4.12976C1.96778 6.70115 1.96778 9.29884 2.26853 11.8702C2.38412 12.8585 3.18323 13.6457 4.18081 13.7572C6.6977 14.0385 9.30137 14.0385 11.8183 13.7572C12.8158 13.6457 13.615 12.8585 13.7305 11.8702Z" fill="black"/>
</svg>
