<svg width="27" height="23" viewBox="0 0 27 23" fill="none" xmlns="http://www.w3.org/2000/svg">
<path fill-rule="evenodd" clip-rule="evenodd" d="M4.99992 6.00001C4.99992 2.8704 7.53697 0.333344 10.6666 0.333344C13.7962 0.333344 16.3333 2.8704 16.3333 6.00001C16.3333 9.12962 13.7962 11.6667 10.6666 11.6667C7.53697 11.6667 4.99992 9.12962 4.99992 6.00001ZM10.6666 2.33334C8.64154 2.33334 6.99992 3.97497 6.99992 6.00001C6.99992 8.02505 8.64154 9.66668 10.6666 9.66668C12.6916 9.66668 14.3333 8.02505 14.3333 6.00001C14.3333 3.97497 12.6916 2.33334 10.6666 2.33334Z" fill="#5055BE"/>
<path fill-rule="evenodd" clip-rule="evenodd" d="M0.333252 18.6667C0.333252 15.9053 2.57183 13.6667 5.33325 13.6667H5.78774C6.03373 13.6667 6.27818 13.7056 6.51202 13.7819L7.66603 14.1588C9.61575 14.7954 11.7174 14.7954 13.6671 14.1588L14.8212 13.7819C15.055 13.7056 15.2994 13.6667 15.5454 13.6667H15.9999C18.7613 13.6667 20.9999 15.9053 20.9999 18.6667V20.2511C20.9999 21.2554 20.2721 22.1117 19.2809 22.2735C13.5758 23.2049 7.75738 23.2049 2.05228 22.2735C1.0611 22.1117 0.333252 21.2554 0.333252 20.2511V18.6667ZM5.33325 15.6667C3.6764 15.6667 2.33325 17.0098 2.33325 18.6667V20.2511C2.33325 20.2752 2.35074 20.2957 2.37454 20.2996C7.86622 21.1962 13.467 21.1962 18.9586 20.2996C18.9824 20.2957 18.9999 20.2752 18.9999 20.2511V18.6667C18.9999 17.0098 17.6568 15.6667 15.9999 15.6667H15.5454C15.5103 15.6667 15.4754 15.6722 15.442 15.6831L14.2879 16.06C11.9348 16.8283 9.39833 16.8283 7.04523 16.06L5.89121 15.6831C5.85781 15.6722 5.82289 15.6667 5.78774 15.6667H5.33325Z" fill="#5055BE"/>
<path d="M21.9999 4.33334C22.5522 4.33334 22.9999 4.78106 22.9999 5.33334V7.66668H25.3333C25.8855 7.66668 26.3333 8.11439 26.3333 8.66668C26.3333 9.21896 25.8855 9.66668 25.3333 9.66668H22.9999V12C22.9999 12.5523 22.5522 13 21.9999 13C21.4476 13 20.9999 12.5523 20.9999 12V9.66668H18.6666C18.1143 9.66668 17.6666 9.21896 17.6666 8.66668C17.6666 8.11439 18.1143 7.66668 18.6666 7.66668H20.9999V5.33334C20.9999 4.78106 21.4476 4.33334 21.9999 4.33334Z" fill="#5055BE"/>
</svg>
