<svg width="26" height="26" viewBox="0 0 26 26" fill="none" xmlns="http://www.w3.org/2000/svg">
<path d="M15 9.99999C15 9.44771 14.5523 8.99999 14 8.99999H6C5.44772 8.99999 5 9.44771 5 9.99999C5 10.5523 5.44772 11 6 11H14C14.5523 11 15 10.5523 15 9.99999Z" fill="black"/>
<path d="M13.6667 14C13.6667 13.4477 13.219 13 12.6667 13H6C5.44772 13 5 13.4477 5 14C5 14.5523 5.44772 15 6 15H12.6667C13.219 15 13.6667 14.5523 13.6667 14Z" fill="black"/>
<path d="M14 17C14.5523 17 15 17.4477 15 18C15 18.5523 14.5523 19 14 19H6C5.44772 19 5 18.5523 5 18C5 17.4477 5.44772 17 6 17H14Z" fill="black"/>
<path fill-rule="evenodd" clip-rule="evenodd" d="M5 26H22.3333C24.3584 26 26 24.3584 26 22.3333V15C26 14.4477 25.5523 14 25 14H20.6667V3.59092C20.6667 1.69305 18.5215 0.589093 16.9771 1.69221L16.7437 1.85892C15.7031 2.60224 14.2934 2.59975 13.2479 1.85293C11.5094 0.611156 9.15725 0.611156 7.41876 1.85293C6.37322 2.59975 4.96361 2.60224 3.92295 1.85892L3.68956 1.69221C2.1452 0.589093 0 1.69305 0 3.59092V21C0 23.7614 2.23858 26 5 26ZM8.58124 3.4804C9.62433 2.73533 11.0423 2.73533 12.0854 3.4804C13.8215 4.72043 16.1653 4.72991 17.9062 3.48639L18.1396 3.31967C18.3602 3.16209 18.6667 3.31979 18.6667 3.59092V22.3333C18.6667 22.9335 18.8109 23.5 19.0665 24H5C3.34315 24 2 22.6569 2 21V3.59092C2 3.31979 2.30646 3.16209 2.52708 3.31967L2.76048 3.48639C4.5014 4.72991 6.8452 4.72043 8.58124 3.4804ZM20.6667 22.3333V16H24V22.3333C24 23.2538 23.2538 24 22.3333 24C21.4129 24 20.6667 23.2538 20.6667 22.3333Z" fill="black"/>
</svg>
