<svg width="22" height="24" viewBox="0 0 22 24" fill="none" xmlns="http://www.w3.org/2000/svg">
<path fill-rule="evenodd" clip-rule="evenodd" d="M9.31701 18.1697C8.28554 18.1697 7.42511 17.3814 7.33503 16.3538C7.14671 14.2055 7.09905 12.0475 7.1922 9.89377C7.07976 9.88624 6.96735 9.87838 6.85495 9.87019L4.86887 9.72541C3.59947 9.63288 2.88986 8.21745 3.57518 7.14494C5.03677 4.85759 7.71574 2.29752 9.92034 0.713876C10.5654 0.250485 11.4343 0.250486 12.0794 0.713876C14.284 2.29752 16.963 4.85759 18.4245 7.14494C19.1099 8.21745 18.4002 9.63288 17.1308 9.72541L15.1448 9.87019C15.0324 9.87838 14.92 9.88624 14.8075 9.89377C14.9007 12.0475 14.853 14.2055 14.6647 16.3538C14.5746 17.3814 13.7142 18.1697 12.6827 18.1697H9.31701ZM9.24181 9.01671C9.09019 11.3997 9.11851 13.7908 9.32656 16.1697H12.6732C12.8812 13.7908 12.9095 11.3997 12.7579 9.01671C12.7409 8.74955 12.8317 8.48673 13.0101 8.28708C13.1884 8.08742 13.4393 7.96759 13.7067 7.95442C14.1378 7.93318 14.5687 7.90687 14.9994 7.87548L16.4418 7.77034C15.1624 5.88594 13.5604 4.24027 11.7082 2.9098L10.9999 2.40094L10.2915 2.9098C8.43933 4.24027 6.83734 5.88594 5.55794 7.77034L7.00035 7.87548C7.43099 7.90687 7.86192 7.93318 8.29303 7.95442C8.56041 7.9676 8.81134 8.08742 8.98966 8.28708C9.16798 8.48673 9.25881 8.74955 9.24181 9.01671Z" fill="#A5A5A5"/>
<path d="M2.6665 18.6667C2.6665 18.1144 2.21879 17.6667 1.6665 17.6667C1.11422 17.6667 0.666504 18.1144 0.666504 18.6667V21.3333C0.666504 22.622 1.71117 23.6667 2.99984 23.6667H18.9998C20.2885 23.6667 21.3332 22.622 21.3332 21.3333V18.6667C21.3332 18.1144 20.8855 17.6667 20.3332 17.6667C19.7809 17.6667 19.3332 18.1144 19.3332 18.6667V21.3333C19.3332 21.5174 19.1839 21.6667 18.9998 21.6667H2.99984C2.81574 21.6667 2.6665 21.5174 2.6665 21.3333V18.6667Z" fill="#A5A5A5"/>
</svg>
