<svg width="173" height="24" viewBox="0 0 173 24" fill="none" xmlns="http://www.w3.org/2000/svg">
<path fill-rule="evenodd" clip-rule="evenodd" d="M11.1991 2.58722C11.6974 2.31036 12.3034 2.31036 12.8017 2.58722L20.0017 6.58722C20.5255 6.87823 20.8504 7.43035 20.8504 8.02958V15.9705C20.8504 16.5697 20.5255 17.1218 20.0017 17.4128L12.8017 21.4128C12.3034 21.6897 11.6974 21.6897 11.1991 21.4128L3.99908 17.4128C3.47526 17.1218 3.15039 16.5697 3.15039 15.9705V8.02958C3.15039 7.43035 3.47526 6.87823 3.99908 6.58722L11.1991 2.58722ZM12.0732 3.89845C12.0279 3.87329 11.9728 3.87329 11.9275 3.89845L4.72754 7.89845C4.67992 7.92491 4.65039 7.9751 4.65039 8.02958V15.9705C4.65039 16.0249 4.67992 16.0751 4.72754 16.1016L11.9275 20.1016C11.9728 20.1267 12.0279 20.1267 12.0732 20.1016L19.2732 16.1016C19.3209 16.0751 19.3504 16.0249 19.3504 15.9705V8.02958C19.3504 7.9751 19.3209 7.92491 19.2732 7.89845L12.0732 3.89845Z" fill="#5055BE"/>
<path fill-rule="evenodd" clip-rule="evenodd" d="M7.25039 12C7.25039 9.37666 9.37704 7.25001 12.0004 7.25001C14.6237 7.25001 16.7504 9.37666 16.7504 12C16.7504 14.6234 14.6237 16.75 12.0004 16.75C9.37704 16.75 7.25039 14.6234 7.25039 12ZM12.0004 8.75001C10.2055 8.75001 8.75039 10.2051 8.75039 12C8.75039 13.7949 10.2055 15.25 12.0004 15.25C13.7953 15.25 15.2504 13.7949 15.2504 12C15.2504 10.2051 13.7953 8.75001 12.0004 8.75001Z" fill="#5055BE"/>
<path d="M37.408 6.944V18H35.296V6.944H37.408ZM44.4471 9.296C45.2045 9.296 45.7911 9.52533 46.2071 9.984C46.6338 10.432 46.8471 11.0613 46.8471 11.872V18H44.7991V12.192C44.7991 11.6907 44.7085 11.3387 44.5271 11.136C44.3565 10.9333 44.1005 10.832 43.7591 10.832C43.4071 10.832 43.0871 10.944 42.7991 11.168C42.5218 11.3813 42.2498 11.696 41.9831 12.112V18H39.9351V9.536H41.7111L41.8711 10.64C42.5645 9.744 43.4231 9.296 44.4471 9.296ZM51.28 9.536V18H49.232V9.536H51.28ZM50.24 5.248C50.624 5.248 50.9333 5.37067 51.168 5.616C51.4133 5.85067 51.536 6.144 51.536 6.496C51.536 6.848 51.4133 7.14133 51.168 7.376C50.9333 7.61067 50.624 7.728 50.24 7.728C49.8667 7.728 49.5573 7.61067 49.312 7.376C49.0773 7.14133 48.96 6.848 48.96 6.496C48.96 6.144 49.0773 5.85067 49.312 5.616C49.5573 5.37067 49.8667 5.248 50.24 5.248ZM58.5956 17.6C58.297 17.8133 57.961 17.9733 57.5876 18.08C57.225 18.1867 56.8516 18.24 56.4676 18.24C55.6356 18.2293 55.001 17.9947 54.5636 17.536C54.137 17.0667 53.9236 16.3787 53.9236 15.472V11.008H52.5956V9.536H53.9236V7.664L55.9716 7.424V9.536H57.9396L57.7316 11.008H55.9716V15.424C55.9716 15.84 56.041 16.1387 56.1796 16.32C56.329 16.5013 56.5583 16.592 56.8676 16.592C57.177 16.592 57.513 16.4907 57.8756 16.288L58.5956 17.6ZM61.7956 9.536V18H59.7476V9.536H61.7956ZM60.7556 5.248C61.1396 5.248 61.449 5.37067 61.6836 5.616C61.929 5.85067 62.0516 6.144 62.0516 6.496C62.0516 6.848 61.929 7.14133 61.6836 7.376C61.449 7.61067 61.1396 7.728 60.7556 7.728C60.3823 7.728 60.073 7.61067 59.8276 7.376C59.593 7.14133 59.4756 6.848 59.4756 6.496C59.4756 6.144 59.593 5.85067 59.8276 5.616C60.073 5.37067 60.3823 5.248 60.7556 5.248ZM70.5193 15.76C70.5193 16.0907 70.5673 16.336 70.6633 16.496C70.7699 16.6453 70.9353 16.7627 71.1593 16.848L70.7273 18.208C70.2473 18.1653 69.8526 18.048 69.5433 17.856C69.2446 17.664 69.0153 17.3707 68.8553 16.976C68.5673 17.4027 68.2046 17.7227 67.7673 17.936C67.3406 18.1387 66.8606 18.24 66.3273 18.24C65.4846 18.24 64.8179 18 64.3273 17.52C63.8366 17.04 63.5913 16.4107 63.5913 15.632C63.5913 14.7147 63.9219 14.016 64.5833 13.536C65.2553 13.0453 66.2099 12.8 67.4473 12.8H68.5033V12.32C68.5033 11.776 68.3753 11.3973 68.1193 11.184C67.8739 10.96 67.4739 10.848 66.9193 10.848C66.3006 10.848 65.5539 10.9973 64.6793 11.296L64.1993 9.904C65.2553 9.49867 66.2793 9.296 67.2713 9.296C69.4366 9.296 70.5193 10.2667 70.5193 12.208V15.76ZM66.8713 16.752C67.5646 16.752 68.1086 16.4053 68.5033 15.712V14H67.6553C66.3326 14 65.6713 14.4907 65.6713 15.472C65.6713 15.8773 65.7726 16.192 65.9753 16.416C66.1779 16.64 66.4766 16.752 66.8713 16.752ZM74.8414 18.24C74.1907 18.24 73.6787 18.0533 73.3054 17.68C72.9427 17.296 72.7614 16.7573 72.7614 16.064V6.144L74.8094 5.92V16C74.8094 16.3947 74.9694 16.592 75.2894 16.592C75.4494 16.592 75.6094 16.5653 75.7694 16.512L76.2014 17.952C75.7747 18.144 75.3214 18.24 74.8414 18.24ZM79.6081 9.536V18H77.5601V9.536H79.6081ZM78.5681 5.248C78.9521 5.248 79.2615 5.37067 79.4961 5.616C79.7415 5.85067 79.8641 6.144 79.8641 6.496C79.8641 6.848 79.7415 7.14133 79.4961 7.376C79.2615 7.61067 78.9521 7.728 78.5681 7.728C78.1948 7.728 77.8855 7.61067 77.6401 7.376C77.4055 7.14133 77.2881 6.848 77.2881 6.496C77.2881 6.144 77.4055 5.85067 77.6401 5.616C77.8855 5.37067 78.1948 5.248 78.5681 5.248ZM87.5798 9.536V11.008L83.4838 16.4H87.6598L87.4518 18H81.1318V16.528L85.2438 11.136H81.4838V9.536H87.5798ZM95.2849 15.76C95.2849 16.0907 95.3329 16.336 95.4289 16.496C95.5355 16.6453 95.7009 16.7627 95.9249 16.848L95.4929 18.208C95.0129 18.1653 94.6182 18.048 94.3089 17.856C94.0102 17.664 93.7809 17.3707 93.6209 16.976C93.3329 17.4027 92.9702 17.7227 92.5329 17.936C92.1062 18.1387 91.6262 18.24 91.0929 18.24C90.2502 18.24 89.5835 18 89.0929 17.52C88.6022 17.04 88.3569 16.4107 88.3569 15.632C88.3569 14.7147 88.6875 14.016 89.3489 13.536C90.0209 13.0453 90.9755 12.8 92.2129 12.8H93.2689V12.32C93.2689 11.776 93.1409 11.3973 92.8849 11.184C92.6395 10.96 92.2395 10.848 91.6849 10.848C91.0662 10.848 90.3195 10.9973 89.4449 11.296L88.9649 9.904C90.0209 9.49867 91.0449 9.296 92.0369 9.296C94.2022 9.296 95.2849 10.2667 95.2849 12.208V15.76ZM91.6369 16.752C92.3302 16.752 92.8742 16.4053 93.2689 15.712V14H92.4209C91.0982 14 90.4369 14.4907 90.4369 15.472C90.4369 15.8773 90.5382 16.192 90.7409 16.416C90.9435 16.64 91.2422 16.752 91.6369 16.752ZM102.611 17.6C102.313 17.8133 101.977 17.9733 101.603 18.08C101.241 18.1867 100.867 18.24 100.483 18.24C99.6513 18.2293 99.0166 17.9947 98.5793 17.536C98.1526 17.0667 97.9393 16.3787 97.9393 15.472V11.008H96.6113V9.536H97.9393V7.664L99.9873 7.424V9.536H101.955L101.747 11.008H99.9873V15.424C99.9873 15.84 100.057 16.1387 100.195 16.32C100.345 16.5013 100.574 16.592 100.883 16.592C101.193 16.592 101.529 16.4907 101.891 16.288L102.611 17.6ZM105.811 9.536V18H103.763V9.536H105.811ZM104.771 5.248C105.155 5.248 105.465 5.37067 105.699 5.616C105.945 5.85067 106.067 6.144 106.067 6.496C106.067 6.848 105.945 7.14133 105.699 7.376C105.465 7.61067 105.155 7.728 104.771 7.728C104.398 7.728 104.089 7.61067 103.843 7.376C103.609 7.14133 103.491 6.848 103.491 6.496C103.491 6.144 103.609 5.85067 103.843 5.616C104.089 5.37067 104.398 5.248 104.771 5.248ZM111.735 9.296C112.983 9.296 113.954 9.696 114.647 10.496C115.351 11.2853 115.703 12.3733 115.703 13.76C115.703 14.6453 115.543 15.4293 115.223 16.112C114.903 16.784 114.444 17.3067 113.847 17.68C113.25 18.0533 112.54 18.24 111.719 18.24C110.471 18.24 109.495 17.8453 108.791 17.056C108.087 16.256 107.735 15.1573 107.735 13.76C107.735 12.8747 107.895 12.096 108.215 11.424C108.535 10.752 108.994 10.2293 109.591 9.856C110.199 9.48267 110.914 9.296 111.735 9.296ZM111.735 10.848C110.508 10.848 109.895 11.8187 109.895 13.76C109.895 14.7627 110.044 15.504 110.343 15.984C110.652 16.4533 111.111 16.688 111.719 16.688C112.327 16.688 112.78 16.448 113.079 15.968C113.388 15.488 113.543 14.752 113.543 13.76C113.543 12.768 113.388 12.0373 113.079 11.568C112.78 11.088 112.332 10.848 111.735 10.848ZM122.135 9.296C122.892 9.296 123.479 9.52533 123.895 9.984C124.321 10.432 124.535 11.0613 124.535 11.872V18H122.487V12.192C122.487 11.6907 122.396 11.3387 122.215 11.136C122.044 10.9333 121.788 10.832 121.447 10.832C121.095 10.832 120.775 10.944 120.487 11.168C120.209 11.3813 119.937 11.696 119.671 12.112V18H117.623V9.536H119.399L119.559 10.64C120.252 9.744 121.111 9.296 122.135 9.296ZM134.168 6.704C134.946 6.704 135.624 6.816 136.2 7.04C136.776 7.264 137.314 7.60533 137.816 8.064L136.776 9.264C136.381 8.93333 135.981 8.69333 135.576 8.544C135.181 8.39467 134.754 8.32 134.296 8.32C133.784 8.32 133.368 8.43733 133.048 8.672C132.738 8.896 132.584 9.216 132.584 9.632C132.584 9.90933 132.642 10.1387 132.76 10.32C132.888 10.5013 133.112 10.672 133.432 10.832C133.752 10.992 134.226 11.168 134.856 11.36C135.944 11.7013 136.76 12.128 137.304 12.64C137.858 13.1413 138.135 13.8773 138.135 14.848C138.135 15.5093 137.965 16.096 137.624 16.608C137.293 17.12 136.813 17.52 136.184 17.808C135.554 18.096 134.808 18.24 133.944 18.24C133.101 18.24 132.344 18.1067 131.672 17.84C131.01 17.5627 130.44 17.1893 129.96 16.72L131.048 15.504C131.474 15.8667 131.917 16.144 132.376 16.336C132.834 16.5173 133.341 16.608 133.896 16.608C134.504 16.608 134.994 16.464 135.368 16.176C135.741 15.888 135.928 15.4827 135.928 14.96C135.928 14.64 135.864 14.3787 135.736 14.176C135.608 13.9627 135.389 13.776 135.08 13.616C134.77 13.4453 134.322 13.2693 133.736 13.088C132.562 12.7253 131.714 12.288 131.192 11.776C130.669 11.264 130.408 10.592 130.408 9.76C130.408 9.152 130.568 8.61867 130.888 8.16C131.208 7.70133 131.65 7.344 132.216 7.088C132.792 6.832 133.442 6.704 134.168 6.704ZM146.817 13.568C146.817 13.6747 146.801 13.952 146.769 14.4H141.457C141.521 15.2213 141.734 15.808 142.097 16.16C142.459 16.512 142.939 16.688 143.537 16.688C143.91 16.688 144.262 16.6293 144.593 16.512C144.923 16.384 145.275 16.192 145.649 15.936L146.497 17.104C145.558 17.8613 144.513 18.24 143.361 18.24C142.07 18.24 141.073 17.8453 140.369 17.056C139.675 16.2667 139.329 15.1893 139.329 13.824C139.329 12.96 139.478 12.1867 139.777 11.504C140.075 10.8107 140.507 10.272 141.073 9.888C141.638 9.49333 142.31 9.296 143.089 9.296C144.273 9.296 145.19 9.67467 145.841 10.432C146.491 11.1787 146.817 12.224 146.817 13.568ZM144.785 12.976C144.785 11.4933 144.235 10.752 143.137 10.752C142.635 10.752 142.241 10.9387 141.953 11.312C141.675 11.6747 141.51 12.2613 141.457 13.072H144.785V12.976ZM153.502 17.6C153.203 17.8133 152.867 17.9733 152.494 18.08C152.131 18.1867 151.758 18.24 151.374 18.24C150.542 18.2293 149.907 17.9947 149.47 17.536C149.043 17.0667 148.83 16.3787 148.83 15.472V11.008H147.502V9.536H148.83V7.664L150.878 7.424V9.536H152.846L152.638 11.008H150.878V15.424C150.878 15.84 150.947 16.1387 151.086 16.32C151.235 16.5013 151.465 16.592 151.774 16.592C152.083 16.592 152.419 16.4907 152.782 16.288L153.502 17.6ZM161.422 18H159.646L159.534 16.816C159.225 17.296 158.857 17.6533 158.43 17.888C158.014 18.1227 157.518 18.24 156.942 18.24C156.185 18.24 155.598 18.0107 155.182 17.552C154.777 17.0827 154.574 16.4373 154.574 15.616V9.536H156.622V15.36C156.622 15.84 156.702 16.1813 156.862 16.384C157.033 16.5867 157.299 16.688 157.662 16.688C158.313 16.688 158.883 16.288 159.374 15.488V9.536H161.422V18ZM168.272 9.296C169.339 9.296 170.128 9.68533 170.64 10.464C171.152 11.2427 171.408 12.336 171.408 13.744C171.408 14.6187 171.275 15.3973 171.008 16.08C170.752 16.752 170.368 17.28 169.856 17.664C169.355 18.048 168.758 18.24 168.064 18.24C167.168 18.24 166.459 17.9307 165.936 17.312V21.264L163.888 21.488V9.536H165.68L165.792 10.576C166.123 10.1493 166.502 9.82933 166.928 9.616C167.355 9.40267 167.803 9.296 168.272 9.296ZM167.488 16.672C168.672 16.672 169.264 15.7013 169.264 13.76C169.264 12.7253 169.131 11.9787 168.864 11.52C168.598 11.0613 168.198 10.832 167.664 10.832C167.323 10.832 167.003 10.9387 166.704 11.152C166.406 11.3547 166.15 11.632 165.936 11.984V15.792C166.331 16.3787 166.848 16.672 167.488 16.672Z" fill="#5055BE"/>
</svg>
