<svg width="111" height="24" viewBox="0 0 111 24" fill="none" xmlns="http://www.w3.org/2000/svg">
<path d="M13.5 9.7502C13.5 9.33599 13.1642 9.0002 12.75 9.0002H6.75C6.33579 9.0002 6 9.33599 6 9.7502C6 10.1644 6.33579 10.5002 6.75 10.5002H12.75C13.1642 10.5002 13.5 10.1644 13.5 9.7502Z" fill="black"/>
<path d="M12.5 12.7502C12.5 12.336 12.1642 12.0002 11.75 12.0002H6.75C6.33579 12.0002 6 12.336 6 12.7502C6 13.1644 6.33579 13.5002 6.75 13.5002H11.75C12.1642 13.5002 12.5 13.1644 12.5 12.7502Z" fill="black"/>
<path d="M12.75 15.0002C13.1642 15.0002 13.5 15.336 13.5 15.7502C13.5 16.1644 13.1642 16.5002 12.75 16.5002H6.75C6.33579 16.5002 6 16.1644 6 15.7502C6 15.336 6.33579 15.0002 6.75 15.0002H12.75Z" fill="black"/>
<path fill-rule="evenodd" clip-rule="evenodd" d="M6 21.7502H19C20.5188 21.7502 21.75 20.519 21.75 19.0002V13.5002C21.75 13.086 21.4142 12.7502 21 12.7502H17.75V4.9434C17.75 3.51999 16.1411 2.69203 14.9828 3.51936L14.8078 3.6444C14.0273 4.20189 12.9701 4.20002 12.1859 3.63991C10.8821 2.70857 9.11794 2.70857 7.81407 3.63991C7.02992 4.20002 5.9727 4.20189 5.19221 3.6444L5.01717 3.51936C3.8589 2.69203 2.25 3.51999 2.25 4.9434V18.0002C2.25 20.0713 3.92893 21.7502 6 21.7502ZM8.68593 4.86051C9.46825 4.30171 10.5318 4.30171 11.3141 4.86051C12.6161 5.79053 14.3739 5.79764 15.6796 4.865L15.8547 4.73996C16.0202 4.62177 16.25 4.74005 16.25 4.9434V19.0002C16.25 19.4503 16.3581 19.8752 16.5499 20.2502H6C4.75736 20.2502 3.75 19.2428 3.75 18.0002V4.9434C3.75 4.74005 3.97984 4.62177 4.14531 4.73996L4.32036 4.865C5.62605 5.79764 7.3839 5.79053 8.68593 4.86051ZM17.75 19.0002V14.2502H20.25V19.0002C20.25 19.6906 19.6904 20.2502 19 20.2502C18.3096 20.2502 17.75 19.6906 17.75 19.0002Z" fill="black"/>
<path d="M39.52 6.704C40.192 6.704 40.7787 6.8 41.28 6.992C41.7813 7.184 42.272 7.47733 42.752 7.872L41.68 9.12C41.0293 8.59733 40.3467 8.336 39.632 8.336C38.8107 8.336 38.1493 8.66667 37.648 9.328C37.1573 9.98933 36.912 11.0293 36.912 12.448C36.912 13.8347 37.1573 14.864 37.648 15.536C38.1387 16.208 38.8 16.544 39.632 16.544C40.0693 16.544 40.4587 16.4693 40.8 16.32C41.1413 16.16 41.504 15.936 41.888 15.648L42.88 16.896C42.5067 17.28 42.032 17.6 41.456 17.856C40.8907 18.112 40.256 18.24 39.552 18.24C38.592 18.24 37.744 18.016 37.008 17.568C36.272 17.12 35.7013 16.464 35.296 15.6C34.8907 14.7253 34.688 13.6747 34.688 12.448C34.688 11.2427 34.896 10.208 35.312 9.344C35.7387 8.48 36.3147 7.824 37.04 7.376C37.776 6.928 38.6027 6.704 39.52 6.704ZM50.4255 15.76C50.4255 16.0907 50.4735 16.336 50.5695 16.496C50.6762 16.6453 50.8415 16.7627 51.0655 16.848L50.6335 18.208C50.1535 18.1653 49.7588 18.048 49.4495 17.856C49.1508 17.664 48.9215 17.3707 48.7615 16.976C48.4735 17.4027 48.1108 17.7227 47.6735 17.936C47.2468 18.1387 46.7668 18.24 46.2335 18.24C45.3908 18.24 44.7242 18 44.2335 17.52C43.7428 17.04 43.4975 16.4107 43.4975 15.632C43.4975 14.7147 43.8282 14.016 44.4895 13.536C45.1615 13.0453 46.1162 12.8 47.3535 12.8H48.4095V12.32C48.4095 11.776 48.2815 11.3973 48.0255 11.184C47.7802 10.96 47.3802 10.848 46.8255 10.848C46.2068 10.848 45.4602 10.9973 44.5855 11.296L44.1055 9.904C45.1615 9.49867 46.1855 9.296 47.1775 9.296C49.3428 9.296 50.4255 10.2667 50.4255 12.208V15.76ZM46.7775 16.752C47.4708 16.752 48.0148 16.4053 48.4095 15.712V14H47.5615C46.2388 14 45.5775 14.4907 45.5775 15.472C45.5775 15.8773 45.6788 16.192 45.8815 16.416C46.0842 16.64 46.3828 16.752 46.7775 16.752ZM55.4196 9.296C56.561 9.296 57.5636 9.632 58.4276 10.304L57.6276 11.504C56.9023 11.0453 56.193 10.816 55.4996 10.816C55.0943 10.816 54.7796 10.896 54.5556 11.056C54.3316 11.2053 54.2196 11.408 54.2196 11.664C54.2196 11.856 54.2676 12.016 54.3636 12.144C54.4596 12.272 54.6303 12.3947 54.8756 12.512C55.1316 12.6187 55.505 12.7413 55.9956 12.88C56.913 13.1253 57.5903 13.4507 58.0276 13.856C58.4756 14.2613 58.6996 14.8267 58.6996 15.552C58.6996 16.3947 58.3583 17.056 57.6756 17.536C56.993 18.0053 56.145 18.24 55.1316 18.24C54.4383 18.24 53.8036 18.1333 53.2276 17.92C52.6623 17.7067 52.1716 17.4133 51.7556 17.04L52.7796 15.888C53.5156 16.4427 54.2836 16.72 55.0836 16.72C55.5423 16.72 55.905 16.6293 56.1716 16.448C56.449 16.2667 56.5876 16.016 56.5876 15.696C56.5876 15.4507 56.5343 15.2587 56.4276 15.12C56.3316 14.9707 56.1503 14.8427 55.8836 14.736C55.6276 14.6187 55.2223 14.48 54.6676 14.32C53.8036 14.0853 53.169 13.76 52.7636 13.344C52.3583 12.9173 52.1556 12.3893 52.1556 11.76C52.1556 11.2907 52.289 10.8693 52.5556 10.496C52.833 10.1227 53.217 9.82933 53.7076 9.616C54.209 9.40267 54.7796 9.296 55.4196 9.296ZM64.869 9.296C65.6157 9.296 66.2023 9.52533 66.629 9.984C67.0557 10.4427 67.269 11.072 67.269 11.872V18H65.221V12.192C65.221 11.6907 65.1303 11.3387 64.949 11.136C64.7783 10.9333 64.5223 10.832 64.181 10.832C63.8397 10.832 63.525 10.944 63.237 11.168C62.949 11.3813 62.6717 11.6907 62.405 12.096V18H60.357V6.16L62.405 5.952V10.544C63.0877 9.712 63.909 9.296 64.869 9.296ZM79.1419 12.144C79.8992 12.2827 80.5072 12.5547 80.9659 12.96C81.4352 13.3653 81.6699 13.984 81.6699 14.816C81.6699 15.968 81.2645 16.7893 80.4539 17.28C79.6432 17.76 78.5072 18 77.0459 18H73.7179V6.944H76.6139C79.6645 6.944 81.1899 7.88267 81.1899 9.76C81.1899 10.4107 80.9925 10.944 80.5979 11.36C80.2032 11.7653 79.7179 12.0267 79.1419 12.144ZM75.8299 8.496V11.488H77.1259C77.7125 11.488 78.1765 11.36 78.5179 11.104C78.8592 10.8373 79.0299 10.448 79.0299 9.936C79.0299 9.40267 78.8485 9.02933 78.4859 8.816C78.1339 8.60267 77.5792 8.496 76.8219 8.496H75.8299ZM77.0619 16.416C77.8405 16.416 78.4325 16.2987 78.8379 16.064C79.2539 15.8293 79.4619 15.3867 79.4619 14.736C79.4619 14.1067 79.2645 13.6533 78.8699 13.376C78.4859 13.0987 77.9579 12.96 77.2859 12.96H75.8299V16.416H77.0619ZM86.9224 9.296C88.1704 9.296 89.141 9.696 89.8344 10.496C90.5384 11.2853 90.8904 12.3733 90.8904 13.76C90.8904 14.6453 90.7304 15.4293 90.4104 16.112C90.0904 16.784 89.6317 17.3067 89.0344 17.68C88.437 18.0533 87.7277 18.24 86.9064 18.24C85.6584 18.24 84.6824 17.8453 83.9784 17.056C83.2744 16.256 82.9224 15.1573 82.9224 13.76C82.9224 12.8747 83.0824 12.096 83.4024 11.424C83.7224 10.752 84.181 10.2293 84.7784 9.856C85.3864 9.48267 86.101 9.296 86.9224 9.296ZM86.9224 10.848C85.6957 10.848 85.0824 11.8187 85.0824 13.76C85.0824 14.7627 85.2317 15.504 85.5304 15.984C85.8397 16.4533 86.2984 16.688 86.9064 16.688C87.5144 16.688 87.9677 16.448 88.2664 15.968C88.5757 15.488 88.7304 14.752 88.7304 13.76C88.7304 12.768 88.5757 12.0373 88.2664 11.568C87.9677 11.088 87.5197 10.848 86.9224 10.848ZM97.3221 9.296C98.0795 9.296 98.6661 9.52533 99.0821 9.984C99.5088 10.432 99.7221 11.0613 99.7221 11.872V18H97.6741V12.192C97.6741 11.6907 97.5835 11.3387 97.4021 11.136C97.2315 10.9333 96.9755 10.832 96.6341 10.832C96.2821 10.832 95.9621 10.944 95.6741 11.168C95.3968 11.3813 95.1248 11.696 94.8581 12.112V18H92.8101V9.536H94.5861L94.7461 10.64C95.4395 9.744 96.2981 9.296 97.3221 9.296ZM109.227 6.144V18H107.419L107.275 16.928C107.008 17.3333 106.667 17.6533 106.251 17.888C105.846 18.1227 105.382 18.24 104.859 18.24C103.824 18.24 103.03 17.84 102.475 17.04C101.92 16.24 101.643 15.152 101.643 13.776C101.643 12.912 101.782 12.144 102.059 11.472C102.336 10.7893 102.731 10.256 103.243 9.872C103.766 9.488 104.368 9.296 105.051 9.296C105.862 9.296 106.571 9.6 107.179 10.208V5.92L109.227 6.144ZM105.435 16.688C105.798 16.688 106.118 16.6027 106.395 16.432C106.672 16.2507 106.934 15.9733 107.179 15.6V11.728C106.934 11.4293 106.683 11.2053 106.427 11.056C106.182 10.9067 105.894 10.832 105.563 10.832C105.019 10.832 104.587 11.0773 104.267 11.568C103.958 12.048 103.803 12.7787 103.803 13.76C103.803 14.8053 103.942 15.5573 104.219 16.016C104.496 16.464 104.902 16.688 105.435 16.688Z" fill="black"/>
</svg>
