<svg width="134" height="36" viewBox="0 0 134 36" fill="none" xmlns="http://www.w3.org/2000/svg">
<path d="M68.4245 14.971C68.298 15.0905 68.1973 15.2359 68.1289 15.3977C68.0604 15.5596 68.0258 15.7343 68.0271 15.9107V16.2838H67.9695L67.8304 16.0534C67.7038 15.8634 67.5489 15.6949 67.3715 15.554C67.1196 15.3373 66.8541 15.1378 66.5767 14.9567C66.1863 14.7215 65.7636 14.5476 65.3229 14.441C64.7629 14.2979 64.1873 14.2294 63.6102 14.2372C61.6431 14.2372 60.1039 14.9228 58.9925 16.294C57.8812 17.6652 57.3248 19.3972 57.3235 21.49C57.3235 23.5611 57.8944 25.3067 59.0362 26.7268C60.1781 28.1469 61.7305 28.8556 63.6936 28.8529C65.4739 28.8529 66.7906 28.2251 67.6437 26.9694H67.6993L67.6755 27.7379V28.4249C67.6755 29.6602 67.2993 30.5639 66.5469 31.136C65.7945 31.7081 64.8348 31.9935 63.6678 31.9922C62.3009 32.011 60.9514 31.6766 59.7436 31.0198L58.6567 33.8737C60.2087 34.7128 61.9394 35.1435 63.6936 35.1273C64.6207 35.1313 65.5437 35.0016 66.4356 34.742C67.2889 34.4924 68.095 34.0968 68.8199 33.572C69.5676 33.0187 70.1603 32.2736 70.5386 31.4112C70.9843 30.4181 71.2051 29.3345 71.1844 28.2414V18.2224C71.1844 17.8412 71.3831 17.6516 71.7924 17.6516H72.2772L72.8733 14.5715H69.5909C69.0703 14.5715 68.6808 14.7019 68.4245 14.971ZM66.8211 24.7903C66.5147 25.1196 66.1438 25.3786 65.7329 25.5504C65.3219 25.7222 64.8802 25.8029 64.4367 25.7871C63.3241 25.7871 62.4571 25.3794 61.8358 24.564C61.2146 23.7486 60.904 22.6832 60.904 21.3677C60.904 20.1147 61.1914 19.1261 61.7663 18.4017C62.3412 17.6774 63.1578 17.3152 64.2162 17.3152C66.5714 17.3152 67.749 18.715 67.749 21.5145C67.7569 23.027 67.443 24.1237 66.8211 24.7903Z" fill="black"/>
<path d="M97.4121 25.4445V20.0202C97.4121 16.1566 95.3722 14.2255 91.2924 14.2269C90.804 14.2282 90.3163 14.2609 89.832 14.3247C89.2666 14.4107 88.7077 14.5361 88.1589 14.6998C87.582 14.8525 87.0608 15.1741 86.6588 15.6253C86.2791 16.0652 86.0754 16.636 86.0886 17.2234V18.7584H89.371V17.994C89.371 17.6332 89.5697 17.3824 89.9849 17.2418C90.3955 17.0945 90.8276 17.0208 91.2625 17.0237C92.1726 17.0237 92.8349 17.2431 93.2495 17.6821C93.6641 18.121 93.8734 18.8528 93.8774 19.8775V19.9937H93.4343C92.9475 19.9937 92.4726 20.0141 91.9997 20.0508C91.5268 20.0875 90.9427 20.1568 90.2452 20.2546C89.5924 20.3397 88.9524 20.5074 88.3398 20.7541C87.7638 20.9936 87.2099 21.2856 86.6846 21.6265C86.1608 21.9621 85.733 22.434 85.4448 22.9943C85.1419 23.5942 84.9884 24.2615 84.9977 24.937C84.9977 26.3231 85.4746 27.43 86.4204 28.2454C87.3784 29.0656 88.5945 29.5003 89.8419 29.4685C90.4095 29.4711 90.9738 29.3795 91.5129 29.1974C91.9488 29.0601 92.3611 28.8538 92.7349 28.5858C93.0339 28.3582 93.3054 28.0947 93.5436 27.801C93.7097 27.6119 93.858 27.4071 93.9867 27.1895C94.0443 27.0753 94.09 26.9856 94.1257 26.9041H94.1834L94.1575 27.5319C94.1489 27.7459 94.1839 27.9594 94.2601 28.1588C94.3364 28.3581 94.4524 28.539 94.6006 28.6898C94.8987 28.9854 95.3517 29.1321 95.9676 29.1321H98.5348L99.1308 26.0744H98.0281C97.6148 26.0724 97.4121 25.8645 97.4121 25.4445ZM93.933 22.817C93.9265 23.7721 93.5979 24.6955 93.0031 25.4303C92.3819 26.2457 91.6156 26.6534 90.7042 26.6534C90.0194 26.6534 89.4895 26.4672 89.1147 26.0948C88.9362 25.9256 88.7941 25.7199 88.6976 25.491C88.6012 25.2621 88.5523 25.0151 88.5544 24.7657C88.5544 23.2464 90.1439 22.4867 93.323 22.4867H93.931L93.933 22.817Z" fill="black"/>
<path d="M132.271 25.4447V19.7635C132.271 16.0739 130.621 14.2284 127.32 14.227C126.252 14.204 125.201 14.5039 124.298 15.0893C123.512 15.5747 122.874 16.2749 122.454 17.1114H122.398L122.456 15.8884V10.7718C122.456 9.49982 121.82 8.86179 120.56 8.86179H117.794L117.198 11.9439H118.313C118.72 11.9439 118.921 12.1478 118.921 12.5718V29.1282H122.46V22.4481C122.446 21.8126 122.521 21.1784 122.682 20.5646C122.936 19.7029 123.44 18.9412 124.127 18.3814C124.802 17.8245 125.645 17.5268 126.511 17.5395C127.346 17.5395 127.93 17.7916 128.264 18.2958C128.599 18.7993 128.762 19.5352 128.762 20.5075V27.1855C128.762 27.8704 128.915 28.3678 129.209 28.6715C129.503 28.9753 129.982 29.1282 130.63 29.1282H133.394L133.99 26.0705H132.881C132.474 26.0725 132.271 25.8646 132.271 25.4447Z" fill="black"/>
<path d="M134 26.074V26.0459L133.994 26.074H134Z" fill="black"/>
<path d="M109.737 14.227C109.149 14.2223 108.564 14.3068 108.001 14.4777C107.55 14.6016 107.119 14.7889 106.719 15.0342C106.412 15.235 106.127 15.4687 105.869 15.7314C105.691 15.9029 105.528 16.0897 105.382 16.2899L105.231 16.5305H105.175V15.9597C105.175 15.0301 104.579 14.5633 103.387 14.5633H100.854L100.248 17.6435H101.362C101.445 17.6317 101.53 17.6398 101.61 17.6672C101.689 17.6945 101.762 17.7404 101.821 17.8012C101.88 17.862 101.925 17.936 101.952 18.0176C101.979 18.0991 101.987 18.186 101.976 18.2713V34.8277H105.479V28.8142C105.483 28.3949 105.464 27.9756 105.422 27.5585H105.479L105.877 28.0416C106.139 28.3494 106.606 28.6532 107.283 28.9854C107.995 29.3157 108.768 29.4814 109.548 29.4706C111.44 29.4706 112.997 28.7714 114.22 27.373C115.442 25.9746 116.056 24.1332 116.06 21.8488C116.06 19.582 115.483 17.7515 114.335 16.345C113.187 14.9384 111.645 14.227 109.737 14.227ZM111.47 25.2041C111.158 25.5896 110.767 25.8985 110.323 26.1081C109.88 26.3176 109.397 26.4225 108.909 26.4149C108.404 26.4366 107.902 26.3261 107.45 26.094C106.998 25.8618 106.611 25.5156 106.326 25.0879C105.699 24.1641 105.377 23.0593 105.406 21.9344C105.406 20.4096 105.748 19.2627 106.433 18.4935C106.747 18.1246 107.136 17.8299 107.572 17.6293C108.008 17.4288 108.481 17.3272 108.958 17.3316C109.451 17.318 109.94 17.4247 110.385 17.643C110.83 17.8613 111.218 18.185 111.517 18.5873C112.169 19.4257 112.494 20.5299 112.493 21.8998C112.492 23.2696 112.151 24.3711 111.47 25.2041Z" fill="black"/>
<path d="M80.8707 15.4297C80.0607 16.1351 79.4672 17.0661 79.162 18.1102H79.1043L79.162 17.197V16.3408C79.162 15.1606 78.5281 14.5715 77.2684 14.5715H74.6456L74.0496 17.6516H75.1622C75.5596 17.6516 75.7722 17.8554 75.7722 18.2794V29.1281H79.2812V23.3633C79.2732 22.5655 79.3735 21.7703 79.5792 21.0008C79.8046 20.1233 80.3072 19.3473 81.0082 18.794C81.7093 18.2408 82.5693 17.9415 83.4538 17.9431C83.7422 17.9406 84.0304 17.9597 84.3161 18.0002V14.4308L83.6763 14.3697C82.6456 14.3553 81.6462 14.7329 80.8707 15.4297Z" fill="black"/>
<path d="M41.2811 15.4296C40.4718 16.1356 39.8785 17.0665 39.5724 18.1102H39.5148L39.5724 17.1969V16.3408C39.5724 15.1598 38.9418 14.57 37.6808 14.5714H35.056L34.46 17.6515H35.5687C35.9661 17.6515 36.1787 17.8554 36.1787 18.2794V29.128H39.6856V23.3633C39.68 22.5653 39.7816 21.7702 39.9876 21.0007C40.2149 20.1255 40.7171 19.3516 41.4165 18.7988C42.1159 18.246 42.9734 17.9452 43.8562 17.943C44.1453 17.9406 44.4342 17.9597 44.7205 18.0001V14.4307L44.0808 14.3696C43.0523 14.3579 42.0557 14.7353 41.2811 15.4296Z" fill="black"/>
<path d="M52.9128 15.4296C52.1023 16.1353 51.5075 17.0661 51.2 18.1102H51.1484L51.2 17.1969V16.3408C51.2 15.1598 50.5695 14.57 49.3085 14.5714H46.6837L46.0876 17.6515H47.2023C47.5997 17.6515 47.8123 17.8554 47.8123 18.2794V29.1281H51.3193V23.3633C51.3123 22.5654 51.4126 21.7704 51.6173 21.0007C51.844 20.1248 52.3464 19.3502 53.0463 18.7973C53.7462 18.2444 54.6045 17.9441 55.4879 17.943C55.7756 17.9407 56.0631 17.9598 56.3482 18.0001V14.4307L55.7084 14.3696C54.6811 14.3578 53.6857 14.7352 52.9128 15.4296Z" fill="black"/>
<path d="M0.451008 5.38922H0.504655C2.69326 5.51585 4.76076 6.46093 6.3161 8.0457C7.87144 9.63047 8.80677 11.7451 8.94519 13.9895C8.94225 14.0104 8.94225 14.0317 8.94519 14.0527C8.94577 14.0932 8.95043 14.1335 8.95909 14.1729C8.98511 14.2858 9.04756 14.3863 9.13631 14.4581C9.22505 14.5299 9.33486 14.5688 9.44788 14.5684H13.7019C13.8209 14.5681 13.9359 14.5245 14.0265 14.4454C14.1171 14.3662 14.1774 14.2567 14.1967 14.1363C14.1996 14.1092 14.1996 14.0818 14.1967 14.0547C14.1973 14.0155 14.1926 13.9764 14.1828 13.9385C14.0287 10.2983 12.5509 6.84937 10.0407 4.27178C7.53044 1.69419 4.16998 0.175021 0.621885 0.0138011C0.584026 0.00538759 0.545378 0.00128585 0.506642 0.00157037C0.480189 -0.000523458 0.453618 -0.000523458 0.427165 0.00157037C0.308039 0.0211288 0.199743 0.0839865 0.122045 0.178668C0.0443472 0.273351 0.00243015 0.393542 0.00394597 0.517301V4.87757C0.00372487 5.00444 0.0492731 5.1269 0.131816 5.22137C0.214359 5.31584 0.328058 5.37563 0.451008 5.38922Z" fill="#FFB600"/>
<path d="M14.648 5.39221H14.7036C16.8911 5.51883 18.9576 6.46348 20.5122 8.04749C22.0668 9.6315 23.0017 11.745 23.1402 13.9884C23.1402 14.0088 23.1402 14.0312 23.1402 14.0516C23.1397 14.0921 23.1444 14.1325 23.1541 14.1719C23.1794 14.2861 23.2422 14.3881 23.3318 14.4607C23.4214 14.5334 23.5326 14.5725 23.6468 14.5714H27.9029C28.022 14.5708 28.137 14.5271 28.2279 14.4481C28.3187 14.369 28.3795 14.2597 28.3996 14.1392C28.4016 14.1121 28.4016 14.0848 28.3996 14.0577C28.4009 14.0186 28.3968 13.9795 28.3877 13.9415C28.233 10.3001 26.754 6.85032 24.2421 4.27263C21.7303 1.69494 18.3682 0.176488 14.8188 0.0167919C14.7816 0.00872263 14.7436 0.00462393 14.7056 0.0045611C14.6791 0.00246727 14.6526 0.00246727 14.6261 0.0045611C14.508 0.023962 14.4005 0.0859313 14.3229 0.179337C14.2454 0.272744 14.2028 0.391465 14.2029 0.514176V4.88056C14.2026 5.00711 14.2479 5.12931 14.33 5.22374C14.4121 5.31816 14.5254 5.37815 14.648 5.39221Z" fill="#FFB600"/>
<path d="M13.583 29.1261C10.0341 28.9669 6.67215 27.4488 4.16062 24.8714C1.64909 22.294 0.170357 18.8444 0.0161869 15.2034C0.00743182 15.166 0.00276683 15.1277 0.00227826 15.0893C-0.000759418 15.0622 -0.000759418 15.0348 0.00227825 15.0077C0.0208055 14.8864 0.0810996 14.7758 0.17223 14.6962C0.26336 14.6165 0.379294 14.573 0.499014 14.5735H4.75703C4.88048 14.5733 4.9996 14.6201 5.09136 14.7049C5.18311 14.7896 5.24098 14.9062 5.25377 15.0322C5.25377 15.0505 5.25377 15.0689 5.25377 15.0893C5.37766 17.3337 6.29885 19.4538 7.84315 21.0487C9.38746 22.6435 11.4478 23.6026 13.6347 23.7446C13.6552 23.7424 13.6758 23.7424 13.6963 23.7446C13.7351 23.7452 13.7737 23.7499 13.8115 23.7588C13.9237 23.7839 14.0242 23.8474 14.0965 23.9389C14.1687 24.0305 14.2084 24.1445 14.2089 24.2623V28.6246C14.2081 28.7469 14.1652 28.8649 14.0878 28.9578C14.0103 29.0507 13.9033 29.1125 13.7857 29.1322C13.76 29.1353 13.7339 29.1353 13.7082 29.1322C13.6694 29.1317 13.6308 29.1269 13.593 29.1179L13.583 29.1261Z" fill="#FFB600"/>
<path d="M28.3878 28.5043C28.2322 24.8638 26.7526 21.4153 24.2409 18.8388C21.7291 16.2623 18.3675 14.7449 14.819 14.5857C14.7812 14.5768 14.7426 14.5721 14.7038 14.5715C14.6774 14.5683 14.6507 14.5683 14.6243 14.5715C14.5045 14.5903 14.3954 14.6532 14.3175 14.7485C14.2396 14.8438 14.1982 14.9649 14.2011 15.0892V19.4475C14.2008 19.5743 14.2464 19.6968 14.3289 19.7913C14.4115 19.8857 14.5252 19.9455 14.6481 19.9591H14.7038C16.8916 20.0858 18.9584 21.0307 20.513 22.6151C22.0677 24.1996 23.0024 26.3136 23.1403 28.5573C23.1393 28.5784 23.1393 28.5995 23.1403 28.6205C23.1399 28.6604 23.1446 28.7001 23.1542 28.7388C23.1782 28.8537 23.2398 28.9568 23.3287 29.0309C23.4175 29.105 23.5285 29.1458 23.643 29.1465H27.899C28.0184 29.1457 28.1337 29.1018 28.2246 29.0223C28.3155 28.9429 28.3761 28.8331 28.3958 28.7123V28.696C28.3958 28.6756 28.3958 28.6531 28.3958 28.6328C28.399 28.5898 28.3963 28.5466 28.3878 28.5043Z" fill="#FFB600"/>
</svg>
