<svg width="84" height="24" viewBox="0 0 84 24" fill="none" xmlns="http://www.w3.org/2000/svg">
<path d="M12 18.25C11.5858 18.25 11.25 18.5858 11.25 19C11.25 19.4142 11.5858 19.75 12 19.75H18C18.9665 19.75 19.75 18.9665 19.75 18V6C19.75 5.0335 18.9665 4.25 18 4.25H12C11.5858 4.25 11.25 4.58579 11.25 5C11.25 5.41421 11.5858 5.75 12 5.75L18 5.75C18.1381 5.75 18.25 5.86193 18.25 6L18.25 18C18.25 18.1381 18.1381 18.25 18 18.25H12Z" fill="black"/>
<path fill-rule="evenodd" clip-rule="evenodd" d="M14.5031 14.3652C15.1934 14.3652 15.7531 13.8056 15.7531 13.1152V10.8747C15.7531 10.1843 15.1934 9.6247 14.5031 9.6247L9.89048 9.6247C9.88396 9.55128 9.87713 9.47787 9.87 9.40448L9.81597 8.8486C9.73354 8.00049 8.83294 7.49258 8.06451 7.86084C6.43029 8.64403 4.95085 9.71578 3.69736 11.0245L3.59816 11.1281C3.13395 11.6128 3.13395 12.3771 3.59815 12.8618L3.69736 12.9654C4.95085 14.2741 6.43029 15.3459 8.06451 16.1291C8.83293 16.4973 9.73354 15.9894 9.81597 15.1413L9.87 14.5854C9.87713 14.512 9.88396 14.4386 9.89048 14.3652H14.5031ZM9.19511 12.8652C8.92874 12.8652 8.69326 13.0045 8.56008 13.216C8.49523 13.319 8.45464 13.4391 8.44656 13.5685C8.42842 13.8594 8.40524 14.15 8.37703 14.4403L8.36135 14.6017C7.3253 14.0677 6.36316 13.4028 5.49838 12.6239C5.27402 12.4218 5.05622 12.2121 4.84538 11.995C5.86892 10.9409 7.05651 10.0607 8.36135 9.38824L8.37703 9.54959C8.40524 9.83987 8.42842 10.1305 8.44656 10.4214C8.47122 10.8167 8.79902 11.1247 9.19511 11.1247H14.2531V12.8652H9.19511Z" fill="black"/>
<path d="M37.408 6.944V16.272H41.84L41.6 18H35.296V6.944H37.408ZM46.3755 9.296C47.6235 9.296 48.5942 9.696 49.2875 10.496C49.9915 11.2853 50.3435 12.3733 50.3435 13.76C50.3435 14.6453 50.1835 15.4293 49.8635 16.112C49.5435 16.784 49.0848 17.3067 48.4875 17.68C47.8902 18.0533 47.1808 18.24 46.3595 18.24C45.1115 18.24 44.1355 17.8453 43.4315 17.056C42.7275 16.256 42.3755 15.1573 42.3755 13.76C42.3755 12.8747 42.5355 12.096 42.8555 11.424C43.1755 10.752 43.6342 10.2293 44.2315 9.856C44.8395 9.48267 45.5542 9.296 46.3755 9.296ZM46.3755 10.848C45.1488 10.848 44.5355 11.8187 44.5355 13.76C44.5355 14.7627 44.6848 15.504 44.9835 15.984C45.2928 16.4533 45.7515 16.688 46.3595 16.688C46.9675 16.688 47.4208 16.448 47.7195 15.968C48.0288 15.488 48.1835 14.752 48.1835 13.76C48.1835 12.768 48.0288 12.0373 47.7195 11.568C47.4208 11.088 46.9728 10.848 46.3755 10.848ZM59.6233 9.984C59.0793 10.176 58.2633 10.272 57.1753 10.272C57.6979 10.5067 58.0819 10.8 58.3273 11.152C58.5833 11.4933 58.7113 11.9253 58.7113 12.448C58.7113 13.0027 58.5726 13.4933 58.2953 13.92C58.0286 14.3467 57.6339 14.6827 57.1113 14.928C56.5993 15.1733 55.9966 15.296 55.3033 15.296C54.9193 15.296 54.5833 15.2533 54.2953 15.168C54.0606 15.328 53.9433 15.536 53.9433 15.792C53.9433 16.1867 54.2846 16.384 54.9673 16.384H56.2633C56.8819 16.384 57.4206 16.4853 57.8793 16.688C58.3486 16.8907 58.7113 17.1787 58.9673 17.552C59.2233 17.9147 59.3513 18.3253 59.3513 18.784C59.3513 19.6373 58.9886 20.2987 58.2633 20.768C57.5379 21.248 56.4926 21.488 55.1273 21.488C54.1459 21.488 53.3726 21.3867 52.8073 21.184C52.2526 20.9813 51.8579 20.688 51.6233 20.304C51.3886 19.92 51.2713 19.4293 51.2713 18.832H53.1113C53.1113 19.1307 53.1646 19.3653 53.2713 19.536C53.3886 19.7067 53.5913 19.8347 53.8793 19.92C54.1779 20.0053 54.6046 20.048 55.1593 20.048C55.9379 20.048 56.4873 19.952 56.8073 19.76C57.1273 19.568 57.2873 19.2907 57.2873 18.928C57.2873 18.608 57.1646 18.3573 56.9193 18.176C56.6739 18.0053 56.3166 17.92 55.8473 17.92H54.5673C53.7673 17.92 53.1646 17.7653 52.7593 17.456C52.3539 17.1467 52.1513 16.7573 52.1513 16.288C52.1513 15.9893 52.2366 15.7013 52.4073 15.424C52.5886 15.1467 52.8339 14.912 53.1432 14.72C52.6313 14.4533 52.2526 14.128 52.0073 13.744C51.7726 13.3493 51.6553 12.88 51.6553 12.336C51.6553 11.728 51.8046 11.1947 52.1033 10.736C52.4019 10.2773 52.8126 9.92533 53.3353 9.68C53.8686 9.424 54.4766 9.296 55.1593 9.296C56.0553 9.31733 56.7753 9.25333 57.3193 9.104C57.8739 8.944 58.4713 8.69333 59.1112 8.352L59.6233 9.984ZM55.1913 10.688C54.7326 10.688 54.3699 10.8373 54.1033 11.136C53.8473 11.424 53.7193 11.8133 53.7193 12.304C53.7193 12.816 53.8526 13.2213 54.1193 13.52C54.3859 13.8187 54.7539 13.968 55.2233 13.968C55.7139 13.968 56.0873 13.824 56.3433 13.536C56.5993 13.2373 56.7273 12.8213 56.7273 12.288C56.7273 11.2213 56.2153 10.688 55.1913 10.688ZM64.0161 9.296C65.2641 9.296 66.2348 9.696 66.9281 10.496C67.6321 11.2853 67.9841 12.3733 67.9841 13.76C67.9841 14.6453 67.8241 15.4293 67.5041 16.112C67.1841 16.784 66.7255 17.3067 66.1281 17.68C65.5308 18.0533 64.8215 18.24 64.0001 18.24C62.7521 18.24 61.7761 17.8453 61.0721 17.056C60.3681 16.256 60.0161 15.1573 60.0161 13.76C60.0161 12.8747 60.1761 12.096 60.4961 11.424C60.8161 10.752 61.2748 10.2293 61.8721 9.856C62.4801 9.48267 63.1948 9.296 64.0161 9.296ZM64.0161 10.848C62.7895 10.848 62.1761 11.8187 62.1761 13.76C62.1761 14.7627 62.3255 15.504 62.6241 15.984C62.9335 16.4533 63.3921 16.688 64.0001 16.688C64.6081 16.688 65.0615 16.448 65.3601 15.968C65.6695 15.488 65.8241 14.752 65.8241 13.76C65.8241 12.768 65.6695 12.0373 65.3601 11.568C65.0615 11.088 64.6135 10.848 64.0161 10.848ZM76.6719 18H74.8959L74.7839 16.816C74.4745 17.296 74.1065 17.6533 73.6799 17.888C73.2639 18.1227 72.7679 18.24 72.1919 18.24C71.4345 18.24 70.8479 18.0107 70.4319 17.552C70.0265 17.0827 69.8239 16.4373 69.8239 15.616V9.536H71.8719V15.36C71.8719 15.84 71.9519 16.1813 72.1119 16.384C72.2825 16.5867 72.5492 16.688 72.9119 16.688C73.5625 16.688 74.1332 16.288 74.6239 15.488V9.536H76.6719V18ZM83.9863 17.6C83.6876 17.8133 83.3516 17.9733 82.9783 18.08C82.6156 18.1867 82.2423 18.24 81.8583 18.24C81.0263 18.2293 80.3916 17.9947 79.9543 17.536C79.5276 17.0667 79.3143 16.3787 79.3143 15.472V11.008H77.9863V9.536H79.3143V7.664L81.3623 7.424V9.536H83.3303L83.1223 11.008H81.3623V15.424C81.3623 15.84 81.4316 16.1387 81.5703 16.32C81.7196 16.5013 81.9489 16.592 82.2583 16.592C82.5676 16.592 82.9036 16.4907 83.2663 16.288L83.9863 17.6Z" fill="black"/>
</svg>
