<svg width="90" height="32" viewBox="0 0 90 32" fill="none" xmlns="http://www.w3.org/2000/svg">
<path d="M11 10.6668C11 10.1145 11.4477 9.66683 12 9.66683H21.3333C21.8856 9.66683 22.3333 10.1145 22.3333 10.6668C22.3333 11.2191 21.8856 11.6668 21.3333 11.6668H12C11.4477 11.6668 11 11.2191 11 10.6668Z" fill="#5055BE"/>
<path d="M12 13.6668C11.4477 13.6668 11 14.1145 11 14.6668C11 15.2191 11.4477 15.6668 12 15.6668H18.6667C19.219 15.6668 19.6667 15.2191 19.6667 14.6668C19.6667 14.1145 19.219 13.6668 18.6667 13.6668H12Z" fill="#5055BE"/>
<path fill-rule="evenodd" clip-rule="evenodd" d="M11.3333 4.3335C7.83553 4.3335 5 7.16903 5 10.6668V24.0002C5 26.7616 7.23858 29.0002 10 29.0002H24.6667C25.9553 29.0002 27 27.9555 27 26.6668V6.66683C27 5.37817 25.9553 4.3335 24.6667 4.3335H11.3333ZM25 19.0002V6.66683C25 6.48273 24.8508 6.3335 24.6667 6.3335H11.3333C8.9401 6.3335 7 8.2736 7 10.6668V19.9998C7.83566 19.3721 8.87439 19.0002 10 19.0002H25ZM25 21.0002H10C8.34315 21.0002 7 22.3433 7 24.0002C7 25.657 8.34315 27.0002 10 27.0002H24.6667C24.8508 27.0002 25 26.8509 25 26.6668V21.0002Z" fill="#5055BE"/>
<path d="M55.002 23H51.24L46.026 10.702C46.158 11.7873 46.2533 12.77 46.312 13.65C46.3853 14.53 46.422 15.5787 46.422 16.796V23H43.782V7.798H47.456L52.758 20.118C52.67 19.5313 52.582 18.7613 52.494 17.808C52.406 16.84 52.362 15.8793 52.362 14.926V7.798H55.002V23ZM63.2273 11.032C64.9433 11.032 66.2779 11.582 67.2313 12.682C68.1993 13.7673 68.6833 15.2633 68.6833 17.17C68.6833 18.3873 68.4633 19.4653 68.0233 20.404C67.5833 21.328 66.9526 22.0467 66.1313 22.56C65.3099 23.0733 64.3346 23.33 63.2053 23.33C61.4893 23.33 60.1473 22.7873 59.1793 21.702C58.2113 20.602 57.7273 19.0913 57.7273 17.17C57.7273 15.9527 57.9473 14.882 58.3873 13.958C58.8273 13.034 59.4579 12.3153 60.2793 11.802C61.1153 11.2887 62.0979 11.032 63.2273 11.032ZM63.2273 13.166C61.5406 13.166 60.6973 14.5007 60.6973 17.17C60.6973 18.5487 60.9026 19.568 61.3133 20.228C61.7386 20.8733 62.3693 21.196 63.2053 21.196C64.0413 21.196 64.6646 20.866 65.0753 20.206C65.5006 19.546 65.7133 18.534 65.7133 17.17C65.7133 15.806 65.5006 14.8013 65.0753 14.156C64.6646 13.496 64.0486 13.166 63.2273 13.166ZM77.9889 22.45C77.5782 22.7433 77.1162 22.9633 76.6029 23.11C76.1042 23.2567 75.5909 23.33 75.0629 23.33C73.9189 23.3153 73.0462 22.9927 72.4449 22.362C71.8582 21.7167 71.5649 20.7707 71.5649 19.524V13.386H69.7389V11.362H71.5649V8.788L74.3809 8.458V11.362H77.0869L76.8009 13.386H74.3809V19.458C74.3809 20.03 74.4762 20.4407 74.6669 20.69C74.8722 20.9393 75.1876 21.064 75.6129 21.064C76.0382 21.064 76.5002 20.9247 76.9989 20.646L77.9889 22.45ZM88.7557 16.906C88.7557 17.0527 88.7337 17.434 88.6897 18.05H81.3857C81.4737 19.1793 81.767 19.986 82.2657 20.47C82.7643 20.954 83.4243 21.196 84.2457 21.196C84.759 21.196 85.243 21.1153 85.6977 20.954C86.1523 20.778 86.6363 20.514 87.1497 20.162L88.3157 21.768C87.025 22.8093 85.5877 23.33 84.0037 23.33C82.229 23.33 80.8577 22.7873 79.8897 21.702C78.9363 20.6167 78.4597 19.1353 78.4597 17.258C78.4597 16.07 78.665 15.0067 79.0757 14.068C79.4863 13.1147 80.0803 12.374 80.8577 11.846C81.635 11.3033 82.559 11.032 83.6297 11.032C85.2577 11.032 86.519 11.5527 87.4137 12.594C88.3083 13.6207 88.7557 15.058 88.7557 16.906ZM85.9617 16.092C85.9617 14.0533 85.2063 13.034 83.6957 13.034C83.0063 13.034 82.4637 13.2907 82.0677 13.804C81.6863 14.3027 81.459 15.1093 81.3857 16.224H85.9617V16.092Z" fill="#5055BE"/>
</svg>
