<svg width="108" height="24" viewBox="0 0 108 24" fill="none" xmlns="http://www.w3.org/2000/svg">
<path d="M18.6799 9.98322C18.7008 10.114 18.7204 10.245 18.7388 10.3761C18.7563 10.501 18.8492 10.6014 18.9704 10.6363C19.3282 10.7393 19.6625 10.8979 19.9633 11.1021C20.1138 11.2043 20.3347 11.0911 20.3155 10.9102C20.2744 10.5215 20.2229 10.1335 20.1612 9.74679L20.0971 9.34535C19.8912 8.05533 18.7785 7.10612 17.4721 7.10612L9.15768 7.10612C8.95216 6.04846 8.0209 5.25 6.90314 5.25H4.61158C3.25529 5.25 2.11289 6.26343 1.95118 7.61004L1.6787 9.87915C1.38904 12.2913 1.46379 14.7333 1.90046 17.1232C2.11598 18.3027 3.10248 19.1869 4.29851 19.2725L5.81252 19.3808C7.99325 19.5368 10.1792 19.5943 12.3639 19.5533C12.5027 19.5507 12.6203 19.4524 12.6567 19.3183C12.7479 18.9821 12.8772 18.6615 13.0395 18.3615C13.1166 18.219 13.014 18.0378 12.8521 18.042C10.5407 18.1022 8.22711 18.0497 5.91956 17.8846L4.40555 17.7763C3.89208 17.7396 3.46856 17.36 3.37603 16.8536C2.9664 14.6116 2.89627 12.3208 3.168 10.058L3.44048 7.78888C3.51167 7.19611 4.01455 6.75 4.61158 6.75H6.90314C7.34319 6.75 7.69991 7.10672 7.69991 7.54677C7.69991 8.13183 8.1742 8.60612 8.75926 8.60612H17.4721C18.0413 8.60612 18.5261 9.0197 18.6159 9.58178L18.6799 9.98322Z" fill="black"/>
<path d="M17.9999 12C16.8953 12 15.9999 12.8954 15.9999 14C15.9999 15.1046 16.8953 16 17.9999 16C19.1045 16 19.9999 15.1046 19.9999 14C19.9999 12.8954 19.1045 12 17.9999 12Z" fill="black"/>
<path d="M13.9999 20.5C13.9999 18.8431 15.3431 17.5 16.9999 17.5H18.9999C20.6568 17.5 21.9999 18.8431 21.9999 20.5C21.9999 21.0523 21.5522 21.5 20.9999 21.5H14.9999C14.4476 21.5 13.9999 21.0523 13.9999 20.5Z" fill="black"/>
<path d="M35.56 5.944C36.9787 5.944 38.0773 6.23733 38.856 6.824C39.6453 7.41067 40.04 8.29067 40.04 9.464C40.04 10.6907 39.6453 11.6133 38.856 12.232C38.0667 12.84 37.016 13.144 35.704 13.144H34.408V17H32.296V5.944H35.56ZM35.544 11.56C36.3013 11.56 36.872 11.4053 37.256 11.096C37.64 10.776 37.832 10.232 37.832 9.464C37.832 8.152 37.0693 7.496 35.544 7.496H34.408V11.56H35.544ZM48.1448 12.568C48.1448 12.6747 48.1288 12.952 48.0968 13.4H42.7848C42.8488 14.2213 43.0621 14.808 43.4248 15.16C43.7874 15.512 44.2674 15.688 44.8648 15.688C45.2381 15.688 45.5901 15.6293 45.9208 15.512C46.2514 15.384 46.6034 15.192 46.9768 14.936L47.8248 16.104C46.8861 16.8613 45.8408 17.24 44.6888 17.24C43.3981 17.24 42.4008 16.8453 41.6968 16.056C41.0034 15.2667 40.6568 14.1893 40.6568 12.824C40.6568 11.96 40.8061 11.1867 41.1048 10.504C41.4034 9.81067 41.8354 9.272 42.4008 8.888C42.9661 8.49333 43.6381 8.296 44.4168 8.296C45.6008 8.296 46.5181 8.67467 47.1688 9.432C47.8194 10.1787 48.1448 11.224 48.1448 12.568ZM46.1128 11.976C46.1128 10.4933 45.5634 9.752 44.4648 9.752C43.9634 9.752 43.5688 9.93867 43.2808 10.312C43.0034 10.6747 42.8381 11.2613 42.7848 12.072H46.1128V11.976ZM54.158 8.312C54.4673 8.312 54.75 8.34933 55.006 8.424L54.654 10.408C54.398 10.344 54.1473 10.312 53.902 10.312C53.4007 10.312 53.006 10.4933 52.718 10.856C52.43 11.208 52.2007 11.752 52.03 12.488V17H49.982V8.536H51.758L51.95 10.2C52.1527 9.592 52.446 9.128 52.83 8.808C53.214 8.47733 53.6567 8.312 54.158 8.312ZM58.7478 8.296C59.8891 8.296 60.8918 8.632 61.7558 9.304L60.9558 10.504C60.2304 10.0453 59.5211 9.816 58.8278 9.816C58.4224 9.816 58.1078 9.896 57.8838 10.056C57.6598 10.2053 57.5478 10.408 57.5478 10.664C57.5478 10.856 57.5958 11.016 57.6918 11.144C57.7878 11.272 57.9584 11.3947 58.2038 11.512C58.4598 11.6187 58.8331 11.7413 59.3238 11.88C60.2411 12.1253 60.9184 12.4507 61.3558 12.856C61.8038 13.2613 62.0278 13.8267 62.0278 14.552C62.0278 15.3947 61.6864 16.056 61.0038 16.536C60.3211 17.0053 59.4731 17.24 58.4598 17.24C57.7664 17.24 57.1318 17.1333 56.5558 16.92C55.9904 16.7067 55.4998 16.4133 55.0838 16.04L56.1078 14.888C56.8438 15.4427 57.6118 15.72 58.4118 15.72C58.8704 15.72 59.2331 15.6293 59.4998 15.448C59.7771 15.2667 59.9158 15.016 59.9158 14.696C59.9158 14.4507 59.8624 14.2587 59.7558 14.12C59.6598 13.9707 59.4784 13.8427 59.2118 13.736C58.9558 13.6187 58.5504 13.48 57.9958 13.32C57.1318 13.0853 56.4971 12.76 56.0918 12.344C55.6864 11.9173 55.4838 11.3893 55.4838 10.76C55.4838 10.2907 55.6171 9.86933 55.8838 9.496C56.1611 9.12267 56.5451 8.82933 57.0358 8.616C57.5371 8.40267 58.1078 8.296 58.7478 8.296ZM67.1411 8.296C68.3891 8.296 69.3598 8.696 70.0531 9.496C70.7571 10.2853 71.1091 11.3733 71.1091 12.76C71.1091 13.6453 70.9491 14.4293 70.6291 15.112C70.3091 15.784 69.8505 16.3067 69.2531 16.68C68.6558 17.0533 67.9465 17.24 67.1251 17.24C65.8771 17.24 64.9011 16.8453 64.1971 16.056C63.4931 15.256 63.1411 14.1573 63.1411 12.76C63.1411 11.8747 63.3011 11.096 63.6211 10.424C63.9411 9.752 64.3998 9.22933 64.9971 8.856C65.6051 8.48267 66.3198 8.296 67.1411 8.296ZM67.1411 9.848C65.9145 9.848 65.3011 10.8187 65.3011 12.76C65.3011 13.7627 65.4505 14.504 65.7491 14.984C66.0585 15.4533 66.5171 15.688 67.1251 15.688C67.7331 15.688 68.1865 15.448 68.4851 14.968C68.7945 14.488 68.9491 13.752 68.9491 12.76C68.9491 11.768 68.7945 11.0373 68.4851 10.568C68.1865 10.088 67.7385 9.848 67.1411 9.848ZM77.5409 8.296C78.2982 8.296 78.8849 8.52533 79.3009 8.984C79.7275 9.432 79.9409 10.0613 79.9409 10.872V17H77.8929V11.192C77.8929 10.6907 77.8022 10.3387 77.6209 10.136C77.4502 9.93333 77.1942 9.832 76.8529 9.832C76.5009 9.832 76.1809 9.944 75.8929 10.168C75.6155 10.3813 75.3435 10.696 75.0769 11.112V17H73.0289V8.536H74.8049L74.9649 9.64C75.6582 8.744 76.5169 8.296 77.5409 8.296ZM88.5818 14.76C88.5818 15.0907 88.6298 15.336 88.7258 15.496C88.8324 15.6453 88.9978 15.7627 89.2218 15.848L88.7898 17.208C88.3098 17.1653 87.9151 17.048 87.6058 16.856C87.3071 16.664 87.0778 16.3707 86.9178 15.976C86.6298 16.4027 86.2671 16.7227 85.8298 16.936C85.4031 17.1387 84.9231 17.24 84.3898 17.24C83.5471 17.24 82.8804 17 82.3898 16.52C81.8991 16.04 81.6538 15.4107 81.6538 14.632C81.6538 13.7147 81.9844 13.016 82.6458 12.536C83.3178 12.0453 84.2724 11.8 85.5098 11.8H86.5658V11.32C86.5658 10.776 86.4378 10.3973 86.1818 10.184C85.9364 9.96 85.5364 9.848 84.9818 9.848C84.3631 9.848 83.6164 9.99733 82.7418 10.296L82.2618 8.904C83.3178 8.49867 84.3418 8.296 85.3338 8.296C87.4991 8.296 88.5818 9.26667 88.5818 11.208V14.76ZM84.9338 15.752C85.6271 15.752 86.1711 15.4053 86.5658 14.712V13H85.7178C84.3951 13 83.7338 13.4907 83.7338 14.472C83.7338 14.8773 83.8351 15.192 84.0378 15.416C84.2404 15.64 84.5391 15.752 84.9338 15.752ZM92.9039 17.24C92.2532 17.24 91.7412 17.0533 91.3679 16.68C91.0052 16.296 90.8239 15.7573 90.8239 15.064V5.144L92.8719 4.92V15C92.8719 15.3947 93.0319 15.592 93.3519 15.592C93.5119 15.592 93.6719 15.5653 93.8319 15.512L94.2639 16.952C93.8372 17.144 93.3839 17.24 92.9039 17.24ZM97.6706 8.536V17H95.6226V8.536H97.6706ZM96.6306 4.248C97.0146 4.248 97.324 4.37067 97.5586 4.616C97.804 4.85067 97.9266 5.144 97.9266 5.496C97.9266 5.848 97.804 6.14133 97.5586 6.376C97.324 6.61067 97.0146 6.728 96.6306 6.728C96.2573 6.728 95.948 6.61067 95.7026 6.376C95.468 6.14133 95.3506 5.848 95.3506 5.496C95.3506 5.144 95.468 4.85067 95.7026 4.616C95.948 4.37067 96.2573 4.248 96.6306 4.248ZM106.394 14.76C106.394 15.0907 106.442 15.336 106.538 15.496C106.645 15.6453 106.81 15.7627 107.034 15.848L106.602 17.208C106.122 17.1653 105.728 17.048 105.418 16.856C105.12 16.664 104.89 16.3707 104.73 15.976C104.442 16.4027 104.08 16.7227 103.642 16.936C103.216 17.1387 102.736 17.24 102.202 17.24C101.36 17.24 100.693 17 100.202 16.52C99.7116 16.04 99.4663 15.4107 99.4663 14.632C99.4663 13.7147 99.7969 13.016 100.458 12.536C101.13 12.0453 102.085 11.8 103.322 11.8H104.378V11.32C104.378 10.776 104.25 10.3973 103.994 10.184C103.749 9.96 103.349 9.848 102.794 9.848C102.176 9.848 101.429 9.99733 100.554 10.296L100.074 8.904C101.13 8.49867 102.154 8.296 103.146 8.296C105.312 8.296 106.394 9.26667 106.394 11.208V14.76ZM102.746 15.752C103.44 15.752 103.984 15.4053 104.378 14.712V13H103.53C102.208 13 101.546 13.4907 101.546 14.472C101.546 14.8773 101.648 15.192 101.85 15.416C102.053 15.64 102.352 15.752 102.746 15.752Z" fill="black"/>
</svg>
