<svg width="111" height="24" viewBox="0 0 111 24" fill="none" xmlns="http://www.w3.org/2000/svg">
<path fill-rule="evenodd" clip-rule="evenodd" d="M7.75 7.5C7.75 5.15279 9.65279 3.25 12 3.25C14.3472 3.25 16.25 5.15279 16.25 7.5C16.25 9.84721 14.3472 11.75 12 11.75C9.65279 11.75 7.75 9.84721 7.75 7.5ZM12 4.75C10.4812 4.75 9.25 5.98122 9.25 7.5C9.25 9.01878 10.4812 10.25 12 10.25C13.5188 10.25 14.75 9.01878 14.75 7.5C14.75 5.98122 13.5188 4.75 12 4.75Z" fill="black"/>
<path fill-rule="evenodd" clip-rule="evenodd" d="M8 14.75C6.75736 14.75 5.75 15.7574 5.75 17V18.1883C5.75 18.2064 5.76311 18.2218 5.78097 18.2247C9.89972 18.8972 14.1003 18.8972 18.219 18.2247C18.2369 18.2218 18.25 18.2064 18.25 18.1883V17C18.25 15.7574 17.2426 14.75 16 14.75H15.6591C15.6328 14.75 15.6066 14.7542 15.5815 14.7623L14.716 15.045C12.9512 15.6212 11.0488 15.6212 9.28398 15.045L8.41847 14.7623C8.39342 14.7542 8.36722 14.75 8.34087 14.75H8ZM4.25 17C4.25 14.9289 5.92893 13.25 8 13.25H8.34087C8.52536 13.25 8.70869 13.2792 8.88407 13.3364L9.74959 13.6191C11.2119 14.0965 12.7881 14.0965 14.2504 13.6191L15.1159 13.3364C15.2913 13.2792 15.4746 13.25 15.6591 13.25H16C18.0711 13.25 19.75 14.9289 19.75 17V18.1883C19.75 18.9415 19.2041 19.5837 18.4607 19.7051C14.1819 20.4037 9.8181 20.4037 5.53927 19.7051C4.79588 19.5837 4.25 18.9415 4.25 18.1883V17Z" fill="black"/>
<path d="M38.56 6.944C39.9787 6.944 41.0773 7.23733 41.856 7.824C42.6453 8.41067 43.04 9.29067 43.04 10.464C43.04 11.6907 42.6453 12.6133 41.856 13.232C41.0667 13.84 40.016 14.144 38.704 14.144H37.408V18H35.296V6.944H38.56ZM38.544 12.56C39.3013 12.56 39.872 12.4053 40.256 12.096C40.64 11.776 40.832 11.232 40.832 10.464C40.832 9.152 40.0693 8.496 38.544 8.496H37.408V12.56H38.544ZM51.1448 13.568C51.1448 13.6747 51.1288 13.952 51.0968 14.4H45.7848C45.8488 15.2213 46.0621 15.808 46.4248 16.16C46.7874 16.512 47.2674 16.688 47.8648 16.688C48.2381 16.688 48.5901 16.6293 48.9208 16.512C49.2514 16.384 49.6034 16.192 49.9768 15.936L50.8248 17.104C49.8861 17.8613 48.8408 18.24 47.6888 18.24C46.3981 18.24 45.4008 17.8453 44.6968 17.056C44.0034 16.2667 43.6568 15.1893 43.6568 13.824C43.6568 12.96 43.8061 12.1867 44.1048 11.504C44.4034 10.8107 44.8354 10.272 45.4008 9.888C45.9661 9.49333 46.6381 9.296 47.4168 9.296C48.6008 9.296 49.5181 9.67467 50.1688 10.432C50.8194 11.1787 51.1448 12.224 51.1448 13.568ZM49.1128 12.976C49.1128 11.4933 48.5634 10.752 47.4648 10.752C46.9634 10.752 46.5688 10.9387 46.2808 11.312C46.0034 11.6747 45.8381 12.2613 45.7848 13.072H49.1128V12.976ZM57.158 9.312C57.4673 9.312 57.75 9.34933 58.006 9.424L57.654 11.408C57.398 11.344 57.1473 11.312 56.902 11.312C56.4007 11.312 56.006 11.4933 55.718 11.856C55.43 12.208 55.2007 12.752 55.03 13.488V18H52.982V9.536H54.758L54.95 11.2C55.1527 10.592 55.446 10.128 55.83 9.808C56.214 9.47733 56.6567 9.312 57.158 9.312ZM61.7478 9.296C62.8891 9.296 63.8918 9.632 64.7558 10.304L63.9558 11.504C63.2304 11.0453 62.5211 10.816 61.8278 10.816C61.4224 10.816 61.1078 10.896 60.8838 11.056C60.6598 11.2053 60.5478 11.408 60.5478 11.664C60.5478 11.856 60.5958 12.016 60.6918 12.144C60.7878 12.272 60.9584 12.3947 61.2038 12.512C61.4598 12.6187 61.8331 12.7413 62.3238 12.88C63.2411 13.1253 63.9184 13.4507 64.3558 13.856C64.8038 14.2613 65.0278 14.8267 65.0278 15.552C65.0278 16.3947 64.6864 17.056 64.0038 17.536C63.3211 18.0053 62.4731 18.24 61.4598 18.24C60.7664 18.24 60.1318 18.1333 59.5558 17.92C58.9904 17.7067 58.4998 17.4133 58.0838 17.04L59.1078 15.888C59.8438 16.4427 60.6118 16.72 61.4118 16.72C61.8704 16.72 62.2331 16.6293 62.4998 16.448C62.7771 16.2667 62.9158 16.016 62.9158 15.696C62.9158 15.4507 62.8624 15.2587 62.7558 15.12C62.6598 14.9707 62.4784 14.8427 62.2118 14.736C61.9558 14.6187 61.5504 14.48 60.9958 14.32C60.1318 14.0853 59.4971 13.76 59.0918 13.344C58.6864 12.9173 58.4838 12.3893 58.4838 11.76C58.4838 11.2907 58.6171 10.8693 58.8838 10.496C59.1611 10.1227 59.5451 9.82933 60.0358 9.616C60.5371 9.40267 61.1078 9.296 61.7478 9.296ZM70.1411 9.296C71.3891 9.296 72.3598 9.696 73.0531 10.496C73.7571 11.2853 74.1091 12.3733 74.1091 13.76C74.1091 14.6453 73.9491 15.4293 73.6291 16.112C73.3091 16.784 72.8505 17.3067 72.2531 17.68C71.6558 18.0533 70.9465 18.24 70.1251 18.24C68.8771 18.24 67.9011 17.8453 67.1971 17.056C66.4931 16.256 66.1411 15.1573 66.1411 13.76C66.1411 12.8747 66.3011 12.096 66.6211 11.424C66.9411 10.752 67.3998 10.2293 67.9971 9.856C68.6051 9.48267 69.3198 9.296 70.1411 9.296ZM70.1411 10.848C68.9145 10.848 68.3011 11.8187 68.3011 13.76C68.3011 14.7627 68.4505 15.504 68.7491 15.984C69.0585 16.4533 69.5171 16.688 70.1251 16.688C70.7331 16.688 71.1865 16.448 71.4851 15.968C71.7945 15.488 71.9491 14.752 71.9491 13.76C71.9491 12.768 71.7945 12.0373 71.4851 11.568C71.1865 11.088 70.7385 10.848 70.1411 10.848ZM80.5409 9.296C81.2982 9.296 81.8849 9.52533 82.3009 9.984C82.7275 10.432 82.9409 11.0613 82.9409 11.872V18H80.8929V12.192C80.8929 11.6907 80.8022 11.3387 80.6209 11.136C80.4502 10.9333 80.1942 10.832 79.8529 10.832C79.5009 10.832 79.1809 10.944 78.8929 11.168C78.6155 11.3813 78.3435 11.696 78.0769 12.112V18H76.0289V9.536H77.8049L77.9649 10.64C78.6582 9.744 79.5169 9.296 80.5409 9.296ZM91.5818 15.76C91.5818 16.0907 91.6298 16.336 91.7258 16.496C91.8324 16.6453 91.9978 16.7627 92.2218 16.848L91.7898 18.208C91.3098 18.1653 90.9151 18.048 90.6058 17.856C90.3071 17.664 90.0778 17.3707 89.9178 16.976C89.6298 17.4027 89.2671 17.7227 88.8298 17.936C88.4031 18.1387 87.9231 18.24 87.3898 18.24C86.5471 18.24 85.8804 18 85.3898 17.52C84.8991 17.04 84.6538 16.4107 84.6538 15.632C84.6538 14.7147 84.9844 14.016 85.6458 13.536C86.3178 13.0453 87.2724 12.8 88.5098 12.8H89.5658V12.32C89.5658 11.776 89.4378 11.3973 89.1818 11.184C88.9364 10.96 88.5364 10.848 87.9818 10.848C87.3631 10.848 86.6164 10.9973 85.7418 11.296L85.2618 9.904C86.3178 9.49867 87.3418 9.296 88.3338 9.296C90.4991 9.296 91.5818 10.2667 91.5818 12.208V15.76ZM87.9338 16.752C88.6271 16.752 89.1711 16.4053 89.5658 15.712V14H88.7178C87.3951 14 86.7338 14.4907 86.7338 15.472C86.7338 15.8773 86.8351 16.192 87.0378 16.416C87.2404 16.64 87.5391 16.752 87.9338 16.752ZM95.9039 18.24C95.2532 18.24 94.7412 18.0533 94.3679 17.68C94.0052 17.296 93.8239 16.7573 93.8239 16.064V6.144L95.8719 5.92V16C95.8719 16.3947 96.0319 16.592 96.3519 16.592C96.5119 16.592 96.6719 16.5653 96.8319 16.512L97.2639 17.952C96.8372 18.144 96.3839 18.24 95.9039 18.24ZM100.671 9.536V18H98.6226V9.536H100.671ZM99.6306 5.248C100.015 5.248 100.324 5.37067 100.559 5.616C100.804 5.85067 100.927 6.144 100.927 6.496C100.927 6.848 100.804 7.14133 100.559 7.376C100.324 7.61067 100.015 7.728 99.6306 7.728C99.2573 7.728 98.948 7.61067 98.7026 7.376C98.468 7.14133 98.3506 6.848 98.3506 6.496C98.3506 6.144 98.468 5.85067 98.7026 5.616C98.948 5.37067 99.2573 5.248 99.6306 5.248ZM109.394 15.76C109.394 16.0907 109.442 16.336 109.538 16.496C109.645 16.6453 109.81 16.7627 110.034 16.848L109.602 18.208C109.122 18.1653 108.728 18.048 108.418 17.856C108.12 17.664 107.89 17.3707 107.73 16.976C107.442 17.4027 107.08 17.7227 106.642 17.936C106.216 18.1387 105.736 18.24 105.202 18.24C104.36 18.24 103.693 18 103.202 17.52C102.712 17.04 102.466 16.4107 102.466 15.632C102.466 14.7147 102.797 14.016 103.458 13.536C104.13 13.0453 105.085 12.8 106.322 12.8H107.378V12.32C107.378 11.776 107.25 11.3973 106.994 11.184C106.749 10.96 106.349 10.848 105.794 10.848C105.176 10.848 104.429 10.9973 103.554 11.296L103.074 9.904C104.13 9.49867 105.154 9.296 106.146 9.296C108.312 9.296 109.394 10.2667 109.394 12.208V15.76ZM105.746 16.752C106.44 16.752 106.984 16.4053 107.378 15.712V14H106.53C105.208 14 104.546 14.4907 104.546 15.472C104.546 15.8773 104.648 16.192 104.85 16.416C105.053 16.64 105.352 16.752 105.746 16.752Z" fill="black"/>
</svg>
