<svg width="82" height="24" viewBox="0 0 82 24" fill="none" xmlns="http://www.w3.org/2000/svg">
<path fill-rule="evenodd" clip-rule="evenodd" d="M7.75 7.5C7.75 5.15279 9.65279 3.25 12 3.25C14.3472 3.25 16.25 5.15279 16.25 7.5C16.25 9.84721 14.3472 11.75 12 11.75C9.65279 11.75 7.75 9.84721 7.75 7.5ZM12 4.75C10.4812 4.75 9.25 5.98122 9.25 7.5C9.25 9.01878 10.4812 10.25 12 10.25C13.5188 10.25 14.75 9.01878 14.75 7.5C14.75 5.98122 13.5188 4.75 12 4.75Z" fill="#5055BE"/>
<path fill-rule="evenodd" clip-rule="evenodd" d="M8 14.75C6.75736 14.75 5.75 15.7574 5.75 17V18.1883C5.75 18.2064 5.76311 18.2218 5.78097 18.2247C9.89972 18.8972 14.1003 18.8972 18.219 18.2247C18.2369 18.2218 18.25 18.2064 18.25 18.1883V17C18.25 15.7574 17.2426 14.75 16 14.75H15.6591C15.6328 14.75 15.6066 14.7542 15.5815 14.7623L14.716 15.045C12.9512 15.6212 11.0488 15.6212 9.28398 15.045L8.41847 14.7623C8.39342 14.7542 8.36722 14.75 8.34087 14.75H8ZM4.25 17C4.25 14.9289 5.92893 13.25 8 13.25H8.34087C8.52536 13.25 8.70869 13.2792 8.88407 13.3364L9.74959 13.6191C11.2119 14.0965 12.7881 14.0965 14.2504 13.6191L15.1159 13.3364C15.2913 13.2792 15.4746 13.25 15.6591 13.25H16C18.0711 13.25 19.75 14.9289 19.75 17V18.1883C19.75 18.9415 19.2041 19.5837 18.4607 19.7051C14.1819 20.4037 9.8181 20.4037 5.53927 19.7051C4.79588 19.5837 4.25 18.9415 4.25 18.1883V17Z" fill="#5055BE"/>
<path d="M38.56 6.944C39.9787 6.944 41.0773 7.23733 41.856 7.824C42.6453 8.41067 43.04 9.29067 43.04 10.464C43.04 11.6907 42.6453 12.6133 41.856 13.232C41.0667 13.84 40.016 14.144 38.704 14.144H37.408V18H35.296V6.944H38.56ZM38.544 12.56C39.3013 12.56 39.872 12.4053 40.256 12.096C40.64 11.776 40.832 11.232 40.832 10.464C40.832 9.152 40.0693 8.496 38.544 8.496H37.408V12.56H38.544ZM48.5486 9.312C48.858 9.312 49.1406 9.34933 49.3966 9.424L49.0446 11.408C48.7886 11.344 48.538 11.312 48.2926 11.312C47.7913 11.312 47.3966 11.4933 47.1086 11.856C46.8206 12.208 46.5913 12.752 46.4206 13.488V18H44.3726V9.536H46.1486L46.3406 11.2C46.5433 10.592 46.8366 10.128 47.2206 9.808C47.6046 9.47733 48.0473 9.312 48.5486 9.312ZM53.6411 9.296C54.8891 9.296 55.8598 9.696 56.5531 10.496C57.2571 11.2853 57.6091 12.3733 57.6091 13.76C57.6091 14.6453 57.4491 15.4293 57.1291 16.112C56.8091 16.784 56.3505 17.3067 55.7531 17.68C55.1558 18.0533 54.4465 18.24 53.6251 18.24C52.3771 18.24 51.4011 17.8453 50.6971 17.056C49.9931 16.256 49.6411 15.1573 49.6411 13.76C49.6411 12.8747 49.8011 12.096 50.1211 11.424C50.4411 10.752 50.8998 10.2293 51.4971 9.856C52.1051 9.48267 52.8198 9.296 53.6411 9.296ZM53.6411 10.848C52.4145 10.848 51.8011 11.8187 51.8011 13.76C51.8011 14.7627 51.9505 15.504 52.2491 15.984C52.5585 16.4533 53.0171 16.688 53.6251 16.688C54.2331 16.688 54.6865 16.448 54.9851 15.968C55.2945 15.488 55.4491 14.752 55.4491 13.76C55.4491 12.768 55.2945 12.0373 54.9851 11.568C54.6865 11.088 54.2385 10.848 53.6411 10.848ZM62.9689 5.92C63.8649 5.92 64.7289 6.12267 65.5609 6.528L64.9369 7.888C64.3715 7.62133 63.7742 7.488 63.1449 7.488C62.6222 7.488 62.2595 7.584 62.0569 7.776C61.8649 7.95733 61.7689 8.256 61.7689 8.672V9.536H66.4729V18H64.4249V11.008H61.7689V18H59.7209V11.008H58.3929V9.536H59.7209V8.64C59.7209 7.81867 59.9875 7.16267 60.5209 6.672C61.0542 6.17067 61.8702 5.92 62.9689 5.92ZM70.9351 18.24C70.2845 18.24 69.7725 18.0533 69.3991 17.68C69.0365 17.296 68.8551 16.7573 68.8551 16.064V6.144L70.9031 5.92V16C70.9031 16.3947 71.0631 16.592 71.3831 16.592C71.5431 16.592 71.7031 16.5653 71.8631 16.512L72.2951 17.952C71.8685 18.144 71.4151 18.24 70.9351 18.24ZM80.5198 13.568C80.5198 13.6747 80.5038 13.952 80.4718 14.4H75.1598C75.2238 15.2213 75.4371 15.808 75.7998 16.16C76.1624 16.512 76.6424 16.688 77.2398 16.688C77.6131 16.688 77.9651 16.6293 78.2958 16.512C78.6264 16.384 78.9784 16.192 79.3518 15.936L80.1998 17.104C79.2611 17.8613 78.2158 18.24 77.0638 18.24C75.7731 18.24 74.7758 17.8453 74.0718 17.056C73.3784 16.2667 73.0318 15.1893 73.0318 13.824C73.0318 12.96 73.1811 12.1867 73.4798 11.504C73.7784 10.8107 74.2104 10.272 74.7758 9.888C75.3411 9.49333 76.0131 9.296 76.7918 9.296C77.9758 9.296 78.8931 9.67467 79.5438 10.432C80.1944 11.1787 80.5198 12.224 80.5198 13.568ZM78.4878 12.976C78.4878 11.4933 77.9384 10.752 76.8398 10.752C76.3384 10.752 75.9438 10.9387 75.6558 11.312C75.3784 11.6747 75.2131 12.2613 75.1598 13.072H78.4878V12.976Z" fill="#5055BE"/>
</svg>
