<svg width="141" height="32" viewBox="0 0 141 32" fill="none" xmlns="http://www.w3.org/2000/svg">
<path d="M21 17.3333C21 16.781 20.5523 16.3333 20 16.3333H12C11.4477 16.3333 11 16.781 11 17.3333C11 17.8856 11.4477 18.3333 12 18.3333H20C20.5523 18.3333 21 17.8856 21 17.3333Z" fill="#5055BE"/>
<path d="M21 22.6667C21 22.1144 20.5523 21.6667 20 21.6667H12C11.4477 21.6667 11 22.1144 11 22.6667C11 23.219 11.4477 23.6667 12 23.6667H20C20.5523 23.6667 21 23.219 21 22.6667Z" fill="#5055BE"/>
<path fill-rule="evenodd" clip-rule="evenodd" d="M9.33335 3C7.30831 3 5.66669 4.64162 5.66669 6.66667V25.3333C5.66669 27.3584 7.30831 29 9.33335 29H22.6667C24.6917 29 26.3334 27.3584 26.3334 25.3333V10.6235C26.3334 10.1158 26.1678 9.62201 25.8617 9.21693L21.8647 3.92672C21.4237 3.34306 20.7345 3 20.003 3H9.33335ZM7.66669 6.66667C7.66669 5.74619 8.41288 5 9.33335 5H19V10.8627C19 11.415 19.4477 11.8627 20 11.8627H24.3334V25.3333C24.3334 26.2538 23.5872 27 22.6667 27H9.33335C8.41288 27 7.66669 26.2538 7.66669 25.3333V6.66667Z" fill="#5055BE"/>
<path d="M48.16 7.468C49.2307 7.468 50.162 7.622 50.954 7.93C51.746 8.238 52.4867 8.70733 53.176 9.338L51.746 10.988C51.2033 10.5333 50.6533 10.2033 50.096 9.998C49.5533 9.79267 48.9667 9.69 48.336 9.69C47.632 9.69 47.06 9.85133 46.62 10.174C46.1947 10.482 45.982 10.922 45.982 11.494C45.982 11.8753 46.0627 12.1907 46.224 12.44C46.4 12.6893 46.708 12.924 47.148 13.144C47.588 13.364 48.2407 13.606 49.106 13.87C50.602 14.3393 51.724 14.926 52.472 15.63C53.2347 16.3193 53.616 17.3313 53.616 18.666C53.616 19.5753 53.3813 20.382 52.912 21.086C52.4573 21.79 51.7973 22.34 50.932 22.736C50.0667 23.132 49.04 23.33 47.852 23.33C46.6933 23.33 45.652 23.1467 44.728 22.78C43.8187 22.3987 43.034 21.8853 42.374 21.24L43.87 19.568C44.4567 20.0667 45.0653 20.448 45.696 20.712C46.3267 20.9613 47.0233 21.086 47.786 21.086C48.622 21.086 49.2967 20.888 49.81 20.492C50.3233 20.096 50.58 19.5387 50.58 18.82C50.58 18.38 50.492 18.0207 50.316 17.742C50.14 17.4487 49.8393 17.192 49.414 16.972C48.9887 16.7373 48.3727 16.4953 47.566 16.246C45.9527 15.7473 44.7867 15.146 44.068 14.442C43.3493 13.738 42.99 12.814 42.99 11.67C42.99 10.834 43.21 10.1007 43.65 9.47C44.09 8.83933 44.6987 8.348 45.476 7.996C46.268 7.644 47.1627 7.468 48.16 7.468ZM64.6065 19.92C64.6065 20.3747 64.6725 20.712 64.8045 20.932C64.9512 21.1373 65.1785 21.2987 65.4865 21.416L64.8925 23.286C64.2325 23.2273 63.6899 23.066 63.2645 22.802C62.8539 22.538 62.5385 22.1347 62.3185 21.592C61.9225 22.1787 61.4239 22.6187 60.8225 22.912C60.2359 23.1907 59.5759 23.33 58.8425 23.33C57.6839 23.33 56.7672 23 56.0925 22.34C55.4179 21.68 55.0805 20.8147 55.0805 19.744C55.0805 18.4827 55.5352 17.522 56.4445 16.862C57.3685 16.1873 58.6812 15.85 60.3825 15.85H61.8345V15.19C61.8345 14.442 61.6585 13.9213 61.3065 13.628C60.9692 13.32 60.4192 13.166 59.6565 13.166C58.8059 13.166 57.7792 13.3713 56.5765 13.782L55.9165 11.868C57.3685 11.3107 58.7765 11.032 60.1405 11.032C63.1179 11.032 64.6065 12.3667 64.6065 15.036V19.92ZM59.5905 21.284C60.5439 21.284 61.2919 20.8073 61.8345 19.854V17.5H60.6685C58.8499 17.5 57.9405 18.1747 57.9405 19.524C57.9405 20.0813 58.0799 20.514 58.3585 20.822C58.6372 21.13 59.0479 21.284 59.5905 21.284ZM70.5495 23.33C69.6548 23.33 68.9508 23.0733 68.4375 22.56C67.9388 22.032 67.6895 21.2913 67.6895 20.338V6.698L70.5055 6.39V20.25C70.5055 20.7927 70.7255 21.064 71.1655 21.064C71.3855 21.064 71.6055 21.0273 71.8255 20.954L72.4195 22.934C71.8328 23.198 71.2095 23.33 70.5495 23.33ZM82.7823 19.92C82.7823 20.3747 82.8483 20.712 82.9803 20.932C83.127 21.1373 83.3543 21.2987 83.6623 21.416L83.0683 23.286C82.4083 23.2273 81.8657 23.066 81.4403 22.802C81.0297 22.538 80.7143 22.1347 80.4943 21.592C80.0983 22.1787 79.5997 22.6187 78.9983 22.912C78.4117 23.1907 77.7517 23.33 77.0183 23.33C75.8597 23.33 74.943 23 74.2683 22.34C73.5937 21.68 73.2563 20.8147 73.2563 19.744C73.2563 18.4827 73.711 17.522 74.6203 16.862C75.5443 16.1873 76.857 15.85 78.5583 15.85H80.0103V15.19C80.0103 14.442 79.8343 13.9213 79.4823 13.628C79.145 13.32 78.595 13.166 77.8323 13.166C76.9817 13.166 75.955 13.3713 74.7523 13.782L74.0923 11.868C75.5443 11.3107 76.9523 11.032 78.3163 11.032C81.2937 11.032 82.7823 12.3667 82.7823 15.036V19.92ZM77.7663 21.284C78.7197 21.284 79.4677 20.8073 80.0103 19.854V17.5H78.8443C77.0257 17.5 76.1163 18.1747 76.1163 19.524C76.1163 20.0813 76.2557 20.514 76.5343 20.822C76.813 21.13 77.2237 21.284 77.7663 21.284ZM91.9321 11.054C92.3574 11.054 92.7461 11.1053 93.0981 11.208L92.6141 13.936C92.2621 13.848 91.9174 13.804 91.5801 13.804C90.8908 13.804 90.3481 14.0533 89.9521 14.552C89.5561 15.036 89.2408 15.784 89.0061 16.796V23H86.1901V11.362H88.6321L88.8961 13.65C89.1748 12.814 89.5781 12.176 90.1061 11.736C90.6341 11.2813 91.2428 11.054 91.9321 11.054ZM100.48 23.044C100.011 24.4813 99.2996 25.596 98.3463 26.388C97.393 27.1947 96.0876 27.664 94.4303 27.796L94.1443 25.75C94.907 25.6327 95.5156 25.464 95.9703 25.244C96.4396 25.0387 96.8136 24.76 97.0923 24.408C97.371 24.056 97.6276 23.5867 97.8623 23H96.8943L93.1983 11.362H96.1903L98.7203 21.13L101.36 11.362H104.264L100.48 23.044ZM115.151 11.032C116.721 11.032 118.099 11.494 119.287 12.418L118.187 14.068C117.19 13.4373 116.215 13.122 115.261 13.122C114.704 13.122 114.271 13.232 113.963 13.452C113.655 13.6573 113.501 13.936 113.501 14.288C113.501 14.552 113.567 14.772 113.699 14.948C113.831 15.124 114.066 15.2927 114.403 15.454C114.755 15.6007 115.269 15.7693 115.943 15.96C117.205 16.2973 118.136 16.7447 118.737 17.302C119.353 17.8593 119.661 18.6367 119.661 19.634C119.661 20.7927 119.192 21.702 118.253 22.362C117.315 23.0073 116.149 23.33 114.755 23.33C113.802 23.33 112.929 23.1833 112.137 22.89C111.36 22.5967 110.685 22.1933 110.113 21.68L111.521 20.096C112.533 20.8587 113.589 21.24 114.689 21.24C115.32 21.24 115.819 21.1153 116.185 20.866C116.567 20.6167 116.757 20.272 116.757 19.832C116.757 19.4947 116.684 19.2307 116.537 19.04C116.405 18.8347 116.156 18.6587 115.789 18.512C115.437 18.3507 114.88 18.16 114.117 17.94C112.929 17.6173 112.057 17.17 111.499 16.598C110.942 16.0113 110.663 15.2853 110.663 14.42C110.663 13.7747 110.847 13.1953 111.213 12.682C111.595 12.1687 112.123 11.7653 112.797 11.472C113.487 11.1787 114.271 11.032 115.151 11.032ZM131.488 16.906C131.488 17.0527 131.466 17.434 131.422 18.05H124.118C124.206 19.1793 124.499 19.986 124.998 20.47C125.497 20.954 126.157 21.196 126.978 21.196C127.491 21.196 127.975 21.1153 128.43 20.954C128.885 20.778 129.369 20.514 129.882 20.162L131.048 21.768C129.757 22.8093 128.32 23.33 126.736 23.33C124.961 23.33 123.59 22.7873 122.622 21.702C121.669 20.6167 121.192 19.1353 121.192 17.258C121.192 16.07 121.397 15.0067 121.808 14.068C122.219 13.1147 122.813 12.374 123.59 11.846C124.367 11.3033 125.291 11.032 126.362 11.032C127.99 11.032 129.251 11.5527 130.146 12.594C131.041 13.6207 131.488 15.058 131.488 16.906ZM128.694 16.092C128.694 14.0533 127.939 13.034 126.428 13.034C125.739 13.034 125.196 13.2907 124.8 13.804C124.419 14.3027 124.191 15.1093 124.118 16.224H128.694V16.092ZM140.68 22.45C140.27 22.7433 139.808 22.9633 139.294 23.11C138.796 23.2567 138.282 23.33 137.754 23.33C136.61 23.3153 135.738 22.9927 135.136 22.362C134.55 21.7167 134.256 20.7707 134.256 19.524V13.386H132.43V11.362H134.256V8.788L137.072 8.458V11.362H139.778L139.492 13.386H137.072V19.458C137.072 20.03 137.168 20.4407 137.358 20.69C137.564 20.9393 137.879 21.064 138.304 21.064C138.73 21.064 139.192 20.9247 139.69 20.646L140.68 22.45Z" fill="#5055BE"/>
</svg>
