<svg width="77" height="24" viewBox="0 0 77 24" fill="none" xmlns="http://www.w3.org/2000/svg">
<path d="M8.25 8C8.25 7.58579 8.58579 7.25 9 7.25H16C16.4142 7.25 16.75 7.58579 16.75 8C16.75 8.41421 16.4142 8.75 16 8.75H9C8.58579 8.75 8.25 8.41421 8.25 8Z" fill="black"/>
<path d="M9 10.25C8.58579 10.25 8.25 10.5858 8.25 11C8.25 11.4142 8.58579 11.75 9 11.75H14C14.4142 11.75 14.75 11.4142 14.75 11C14.75 10.5858 14.4142 10.25 14 10.25H9Z" fill="black"/>
<path fill-rule="evenodd" clip-rule="evenodd" d="M8.5 3.25C5.87665 3.25 3.75 5.37665 3.75 8V18C3.75 20.0711 5.42893 21.75 7.5 21.75H18.5C19.4665 21.75 20.25 20.9665 20.25 20V5C20.25 4.0335 19.4665 3.25 18.5 3.25H8.5ZM18.75 14.25V5C18.75 4.86193 18.6381 4.75 18.5 4.75H8.5C6.70507 4.75 5.25 6.20507 5.25 8V14.9997C5.87675 14.529 6.6558 14.25 7.5 14.25H18.75ZM18.75 15.75H7.5C6.25736 15.75 5.25 16.7574 5.25 18C5.25 19.2426 6.25736 20.25 7.5 20.25H18.5C18.6381 20.25 18.75 20.1381 18.75 20V15.75Z" fill="black"/>
<path d="M35.48 6.704C36.2587 6.704 36.936 6.816 37.512 7.04C38.088 7.264 38.6267 7.60533 39.128 8.064L38.088 9.264C37.6933 8.93333 37.2933 8.69333 36.888 8.544C36.4933 8.39467 36.0667 8.32 35.608 8.32C35.096 8.32 34.68 8.43733 34.36 8.672C34.0507 8.896 33.896 9.216 33.896 9.632C33.896 9.90933 33.9547 10.1387 34.072 10.32C34.2 10.5013 34.424 10.672 34.744 10.832C35.064 10.992 35.5387 11.168 36.168 11.36C37.256 11.7013 38.072 12.128 38.616 12.64C39.1707 13.1413 39.448 13.8773 39.448 14.848C39.448 15.5093 39.2773 16.096 38.936 16.608C38.6053 17.12 38.1253 17.52 37.496 17.808C36.8667 18.096 36.12 18.24 35.256 18.24C34.4133 18.24 33.656 18.1067 32.984 17.84C32.3227 17.5627 31.752 17.1893 31.272 16.72L32.36 15.504C32.7867 15.8667 33.2293 16.144 33.688 16.336C34.1467 16.5173 34.6533 16.608 35.208 16.608C35.816 16.608 36.3067 16.464 36.68 16.176C37.0533 15.888 37.24 15.4827 37.24 14.96C37.24 14.64 37.176 14.3787 37.048 14.176C36.92 13.9627 36.7013 13.776 36.392 13.616C36.0827 13.4453 35.6347 13.2693 35.048 13.088C33.8747 12.7253 33.0267 12.288 32.504 11.776C31.9813 11.264 31.72 10.592 31.72 9.76C31.72 9.152 31.88 8.61867 32.2 8.16C32.52 7.70133 32.9627 7.344 33.528 7.088C34.104 6.832 34.7547 6.704 35.48 6.704ZM47.4411 15.76C47.4411 16.0907 47.4891 16.336 47.5851 16.496C47.6918 16.6453 47.8571 16.7627 48.0811 16.848L47.6491 18.208C47.1691 18.1653 46.7745 18.048 46.4651 17.856C46.1665 17.664 45.9371 17.3707 45.7771 16.976C45.4891 17.4027 45.1265 17.7227 44.6891 17.936C44.2625 18.1387 43.7825 18.24 43.2491 18.24C42.4065 18.24 41.7398 18 41.2491 17.52C40.7585 17.04 40.5131 16.4107 40.5131 15.632C40.5131 14.7147 40.8438 14.016 41.5051 13.536C42.1771 13.0453 43.1318 12.8 44.3691 12.8H45.4251V12.32C45.4251 11.776 45.2971 11.3973 45.0411 11.184C44.7958 10.96 44.3958 10.848 43.8411 10.848C43.2225 10.848 42.4758 10.9973 41.6011 11.296L41.1211 9.904C42.1771 9.49867 43.2011 9.296 44.1931 9.296C46.3585 9.296 47.4411 10.2667 47.4411 12.208V15.76ZM43.7931 16.752C44.4865 16.752 45.0305 16.4053 45.4251 15.712V14H44.5771C43.2545 14 42.5931 14.4907 42.5931 15.472C42.5931 15.8773 42.6945 16.192 42.8971 16.416C43.0998 16.64 43.3985 16.752 43.7931 16.752ZM51.7633 18.24C51.1126 18.24 50.6006 18.0533 50.2273 17.68C49.8646 17.296 49.6833 16.7573 49.6833 16.064V6.144L51.7313 5.92V16C51.7313 16.3947 51.8913 16.592 52.2113 16.592C52.3713 16.592 52.5313 16.5653 52.6913 16.512L53.1233 17.952C52.6966 18.144 52.2433 18.24 51.7633 18.24ZM60.6599 15.76C60.6599 16.0907 60.7079 16.336 60.8039 16.496C60.9105 16.6453 61.0759 16.7627 61.2999 16.848L60.8679 18.208C60.3879 18.1653 59.9932 18.048 59.6839 17.856C59.3852 17.664 59.1559 17.3707 58.9959 16.976C58.7079 17.4027 58.3452 17.7227 57.9079 17.936C57.4812 18.1387 57.0012 18.24 56.4679 18.24C55.6252 18.24 54.9585 18 54.4679 17.52C53.9772 17.04 53.7319 16.4107 53.7319 15.632C53.7319 14.7147 54.0625 14.016 54.7239 13.536C55.3959 13.0453 56.3505 12.8 57.5879 12.8H58.6439V12.32C58.6439 11.776 58.5159 11.3973 58.2599 11.184C58.0145 10.96 57.6145 10.848 57.0599 10.848C56.4412 10.848 55.6945 10.9973 54.8199 11.296L54.3399 9.904C55.3959 9.49867 56.4199 9.296 57.4119 9.296C59.5772 9.296 60.6599 10.2667 60.6599 12.208V15.76ZM57.0119 16.752C57.7052 16.752 58.2492 16.4053 58.6439 15.712V14H57.7959C56.4732 14 55.8119 14.4907 55.8119 15.472C55.8119 15.8773 55.9132 16.192 56.1159 16.416C56.3185 16.64 56.6172 16.752 57.0119 16.752ZM67.3143 9.312C67.6236 9.312 67.9063 9.34933 68.1623 9.424L67.8103 11.408C67.5543 11.344 67.3036 11.312 67.0583 11.312C66.5569 11.312 66.1623 11.4933 65.8743 11.856C65.5863 12.208 65.3569 12.752 65.1863 13.488V18H63.1383V9.536H64.9143L65.1063 11.2C65.3089 10.592 65.6023 10.128 65.9863 9.808C66.3703 9.47733 66.8129 9.312 67.3143 9.312ZM73.5311 18.032C73.1898 19.0773 72.6725 19.888 71.9791 20.464C71.2858 21.0507 70.3365 21.392 69.1311 21.488L68.9231 20C69.4778 19.9147 69.9205 19.792 70.2511 19.632C70.5925 19.4827 70.8645 19.28 71.0671 19.024C71.2698 18.768 71.4565 18.4267 71.6271 18H70.9231L68.2351 9.536H70.4111L72.2511 16.64L74.1711 9.536H76.2831L73.5311 18.032Z" fill="black"/>
</svg>
