<svg width="80" height="24" viewBox="0 0 80 24" fill="none" xmlns="http://www.w3.org/2000/svg">
<path fill-rule="evenodd" clip-rule="evenodd" d="M7.25009 6.63098V5.4612C7.25009 4.59495 7.88384 3.85906 8.7405 3.73056L9.96041 3.54757C11.3126 3.34474 12.6875 3.34474 14.0398 3.54757L15.2597 3.73056C16.1163 3.85906 16.7501 4.59495 16.7501 5.4612V6.63098L18.4641 6.76933C19.7765 6.87527 20.847 7.86341 21.0575 9.16313C21.5227 12.0357 21.5227 14.9643 21.0575 17.8369C20.847 19.1366 19.7765 20.1247 18.4641 20.2307L16.5922 20.3818C13.5358 20.6285 10.4644 20.6285 7.40796 20.3818L5.53605 20.2307C4.22366 20.1247 3.15312 19.1366 2.94264 17.8369C2.47745 14.9643 2.47745 12.0357 2.94264 9.16313C3.15312 7.86341 4.22366 6.87527 5.53605 6.76933L7.25009 6.63098ZM10.1829 5.03098C11.3876 4.85027 12.6126 4.85027 13.8173 5.03098L15.0372 5.21396C15.1596 5.23232 15.2501 5.33745 15.2501 5.4612V6.5258C13.0852 6.40233 10.915 6.40233 8.75009 6.5258V5.4612C8.75009 5.33745 8.84063 5.23232 8.96301 5.21396L10.1829 5.03098ZM7.52865 8.11337C10.5048 7.87314 13.4954 7.87314 16.4715 8.11337L18.3434 8.26447C18.9676 8.31485 19.4767 8.78479 19.5768 9.40292C19.6392 9.78785 19.6926 10.1738 19.7373 10.5606C14.8597 12.9624 9.14047 12.9624 4.26287 10.5606C4.30752 10.1738 4.36101 9.78785 4.42335 9.40292C4.52345 8.78479 5.03258 8.31485 5.65673 8.26447L7.52865 8.11337ZM4.12898 12.1567C9.12838 14.4304 14.8718 14.4304 19.8712 12.1567C19.9665 13.9728 19.8684 15.7966 19.5768 17.5971C19.4767 18.2152 18.9676 18.6852 18.3434 18.7355L16.4715 18.8866C13.4954 19.1269 10.5048 19.1269 7.52865 18.8866L5.65673 18.7355C5.03258 18.6852 4.52345 18.2152 4.42335 17.5971C4.13178 15.7966 4.03366 13.9728 4.12898 12.1567Z" fill="#5055BE"/>
<path d="M38.48 6.704C39.2587 6.704 39.936 6.816 40.512 7.04C41.088 7.264 41.6267 7.60533 42.128 8.064L41.088 9.264C40.6933 8.93333 40.2933 8.69333 39.888 8.544C39.4933 8.39467 39.0667 8.32 38.608 8.32C38.096 8.32 37.68 8.43733 37.36 8.672C37.0507 8.896 36.896 9.216 36.896 9.632C36.896 9.90933 36.9547 10.1387 37.072 10.32C37.2 10.5013 37.424 10.672 37.744 10.832C38.064 10.992 38.5387 11.168 39.168 11.36C40.256 11.7013 41.072 12.128 41.616 12.64C42.1707 13.1413 42.448 13.8773 42.448 14.848C42.448 15.5093 42.2773 16.096 41.936 16.608C41.6053 17.12 41.1253 17.52 40.496 17.808C39.8667 18.096 39.12 18.24 38.256 18.24C37.4133 18.24 36.656 18.1067 35.984 17.84C35.3227 17.5627 34.752 17.1893 34.272 16.72L35.36 15.504C35.7867 15.8667 36.2293 16.144 36.688 16.336C37.1467 16.5173 37.6533 16.608 38.208 16.608C38.816 16.608 39.3067 16.464 39.68 16.176C40.0533 15.888 40.24 15.4827 40.24 14.96C40.24 14.64 40.176 14.3787 40.048 14.176C39.92 13.9627 39.7013 13.776 39.392 13.616C39.0827 13.4453 38.6347 13.2693 38.048 13.088C36.8747 12.7253 36.0267 12.288 35.504 11.776C34.9813 11.264 34.72 10.592 34.72 9.76C34.72 9.152 34.88 8.61867 35.2 8.16C35.52 7.70133 35.9627 7.344 36.528 7.088C37.104 6.832 37.7547 6.704 38.48 6.704ZM50.4411 15.76C50.4411 16.0907 50.4891 16.336 50.5851 16.496C50.6918 16.6453 50.8571 16.7627 51.0811 16.848L50.6491 18.208C50.1691 18.1653 49.7745 18.048 49.4651 17.856C49.1665 17.664 48.9371 17.3707 48.7771 16.976C48.4891 17.4027 48.1265 17.7227 47.6891 17.936C47.2625 18.1387 46.7825 18.24 46.2491 18.24C45.4065 18.24 44.7398 18 44.2491 17.52C43.7585 17.04 43.5131 16.4107 43.5131 15.632C43.5131 14.7147 43.8438 14.016 44.5051 13.536C45.1771 13.0453 46.1318 12.8 47.3691 12.8H48.4251V12.32C48.4251 11.776 48.2971 11.3973 48.0411 11.184C47.7958 10.96 47.3958 10.848 46.8411 10.848C46.2225 10.848 45.4758 10.9973 44.6011 11.296L44.1211 9.904C45.1771 9.49867 46.2011 9.296 47.1931 9.296C49.3585 9.296 50.4411 10.2667 50.4411 12.208V15.76ZM46.7931 16.752C47.4865 16.752 48.0305 16.4053 48.4251 15.712V14H47.5771C46.2545 14 45.5931 14.4907 45.5931 15.472C45.5931 15.8773 45.6945 16.192 45.8971 16.416C46.0998 16.64 46.3985 16.752 46.7931 16.752ZM54.7633 18.24C54.1126 18.24 53.6006 18.0533 53.2273 17.68C52.8646 17.296 52.6833 16.7573 52.6833 16.064V6.144L54.7313 5.92V16C54.7313 16.3947 54.8913 16.592 55.2113 16.592C55.3713 16.592 55.5313 16.5653 55.6913 16.512L56.1233 17.952C55.6966 18.144 55.2433 18.24 54.7633 18.24ZM63.6599 15.76C63.6599 16.0907 63.7079 16.336 63.8039 16.496C63.9105 16.6453 64.0759 16.7627 64.2999 16.848L63.8679 18.208C63.3879 18.1653 62.9932 18.048 62.6839 17.856C62.3852 17.664 62.1559 17.3707 61.9959 16.976C61.7079 17.4027 61.3452 17.7227 60.9079 17.936C60.4812 18.1387 60.0012 18.24 59.4679 18.24C58.6252 18.24 57.9585 18 57.4679 17.52C56.9772 17.04 56.7319 16.4107 56.7319 15.632C56.7319 14.7147 57.0625 14.016 57.7239 13.536C58.3959 13.0453 59.3505 12.8 60.5879 12.8H61.6439V12.32C61.6439 11.776 61.5159 11.3973 61.2599 11.184C61.0145 10.96 60.6145 10.848 60.0599 10.848C59.4412 10.848 58.6945 10.9973 57.8199 11.296L57.3399 9.904C58.3959 9.49867 59.4199 9.296 60.4119 9.296C62.5772 9.296 63.6599 10.2667 63.6599 12.208V15.76ZM60.0119 16.752C60.7052 16.752 61.2492 16.4053 61.6439 15.712V14H60.7959C59.4732 14 58.8119 14.4907 58.8119 15.472C58.8119 15.8773 58.9132 16.192 59.1159 16.416C59.3185 16.64 59.6172 16.752 60.0119 16.752ZM70.3143 9.312C70.6236 9.312 70.9063 9.34933 71.1623 9.424L70.8103 11.408C70.5543 11.344 70.3036 11.312 70.0583 11.312C69.5569 11.312 69.1623 11.4933 68.8743 11.856C68.5863 12.208 68.3569 12.752 68.1863 13.488V18H66.1383V9.536H67.9143L68.1063 11.2C68.3089 10.592 68.6023 10.128 68.9863 9.808C69.3703 9.47733 69.8129 9.312 70.3143 9.312ZM76.5311 18.032C76.1898 19.0773 75.6725 19.888 74.9791 20.464C74.2858 21.0507 73.3365 21.392 72.1311 21.488L71.9231 20C72.4778 19.9147 72.9205 19.792 73.2511 19.632C73.5925 19.4827 73.8645 19.28 74.0671 19.024C74.2698 18.768 74.4565 18.4267 74.6271 18H73.9231L71.2351 9.536H73.4111L75.2511 16.64L77.1711 9.536H79.2831L76.5311 18.032Z" fill="#5055BE"/>
</svg>
