<svg width="18" height="18" viewBox="0 0 18 18" fill="none" xmlns="http://www.w3.org/2000/svg">
<path fill-rule="evenodd" clip-rule="evenodd" d="M2.61587 4.67753C2.74024 3.6142 3.64117 2.8125 4.71174 2.8125H12.7687C12.9053 2.8125 13.0372 2.86219 13.1399 2.95231L15.2102 4.77015C15.6757 5.17883 15.9328 5.77506 15.9106 6.39407L15.6526 13.5741C15.6127 14.6836 14.7017 15.5625 13.5914 15.5625H4.58372C3.5865 15.5625 2.74461 14.8215 2.61797 13.8324C2.2456 10.9237 2.22956 7.9805 2.57021 5.06796L2.61587 4.67753ZM4.71174 3.9375C4.21193 3.9375 3.79132 4.31178 3.73325 4.80822L3.68759 5.19865C3.35757 8.02028 3.37311 10.8716 3.73387 13.6895C3.78861 14.1171 4.15259 14.4375 4.58372 14.4375H5.06154V11.25C5.06154 10.5251 5.64916 9.9375 6.37404 9.9375H11.624C12.3489 9.9375 12.9365 10.5251 12.9365 11.25V14.4375H13.5914C14.0961 14.4375 14.5102 14.038 14.5283 13.5337L14.7863 6.35367C14.7964 6.07231 14.6795 5.80129 14.468 5.61553L12.5615 3.94162V5.69998C12.5615 6.42486 11.9739 7.01248 11.249 7.01248H6.74904C6.02416 7.01248 5.43654 6.42486 5.43654 5.69998V3.9375H4.71174ZM6.56154 3.9375V5.69998C6.56154 5.80353 6.64549 5.88748 6.74904 5.88748H11.249C11.3526 5.88748 11.4365 5.80353 11.4365 5.69998V3.9375H6.56154ZM11.8115 14.4375H6.18654V11.25C6.18654 11.1464 6.27049 11.0625 6.37404 11.0625H11.624C11.7276 11.0625 11.8115 11.1464 11.8115 11.25V14.4375Z" fill="black"/>
</svg>
