<svg width="410" height="231" viewBox="0 0 410 231" fill="none" xmlns="http://www.w3.org/2000/svg">
<path d="M61.8693 62V71.9099C47.7588 81.2793 37.2663 91.6697 30.392 103.081C23.6382 114.492 20.2613 124.402 20.2613 132.811C20.2613 139.417 22.191 145.303 26.0503 150.468C28.4623 147.586 30.995 145.483 33.6482 144.162C36.4221 142.721 39.3166 142 42.3317 142C54.6332 142 60.7839 148.006 60.7839 160.018C60.7839 166.985 58.0101 172.39 52.4623 176.234C47.0352 180.078 40.6432 182 33.2864 182C22.794 182 14.593 178.757 8.68342 172.27C2.89447 165.784 0 158.036 0 149.027C0 132.691 6.09045 116.354 18.2714 100.018C30.4523 83.6817 44.9849 71.009 61.8693 62ZM144 62V71.9099C129.889 81.2793 119.397 91.6697 112.523 103.081C105.769 114.492 102.392 124.402 102.392 132.811C102.392 139.417 104.382 145.303 108.362 150.468C110.774 147.586 113.307 145.483 115.96 144.162C118.734 142.721 121.628 142 124.643 142C136.824 142 142.915 148.006 142.915 160.018C142.915 166.985 140.201 172.39 134.774 176.234C129.347 180.078 122.955 182 115.598 182C105.106 182 96.9045 178.757 90.995 172.27C85.206 165.784 82.3116 158.036 82.3116 149.027C82.3116 133.532 88.3417 117.255 100.402 100.198C112.583 83.1411 127.116 70.4084 144 62Z" fill="#9DA1F3" fill-opacity="0.35"/>
<path d="M69.112 143.976L68.952 145.272H65.896V155H64.376V145.272H61.24V143.976H69.112ZM73.0786 146.376C74.2626 146.376 75.18 146.771 75.8306 147.56C76.492 148.349 76.8226 149.421 76.8226 150.776C76.8226 151.651 76.6733 152.424 76.3746 153.096C76.076 153.757 75.644 154.275 75.0786 154.648C74.5133 155.011 73.8413 155.192 73.0626 155.192C71.8786 155.192 70.956 154.797 70.2946 154.008C69.6333 153.219 69.3026 152.147 69.3026 150.792C69.3026 149.917 69.452 149.149 69.7506 148.488C70.0493 147.816 70.4813 147.299 71.0466 146.936C71.612 146.563 72.2893 146.376 73.0786 146.376ZM73.0786 147.56C71.6173 147.56 70.8866 148.637 70.8866 150.792C70.8866 152.936 71.612 154.008 73.0626 154.008C74.5133 154.008 75.2386 152.931 75.2386 150.776C75.2386 148.632 74.5186 147.56 73.0786 147.56ZM82.4224 146.376C83.6064 146.376 84.5237 146.771 85.1744 147.56C85.8357 148.349 86.1664 149.421 86.1664 150.776C86.1664 151.651 86.017 152.424 85.7184 153.096C85.4197 153.757 84.9877 154.275 84.4224 154.648C83.857 155.011 83.185 155.192 82.4064 155.192C81.2224 155.192 80.2997 154.797 79.6384 154.008C78.977 153.219 78.6464 152.147 78.6464 150.792C78.6464 149.917 78.7957 149.149 79.0944 148.488C79.393 147.816 79.825 147.299 80.3904 146.936C80.9557 146.563 81.633 146.376 82.4224 146.376ZM82.4224 147.56C80.961 147.56 80.2304 148.637 80.2304 150.792C80.2304 152.936 80.9557 154.008 82.4064 154.008C83.857 154.008 84.5824 152.931 84.5824 150.776C84.5824 148.632 83.8624 147.56 82.4224 147.56ZM101.297 146.376C101.99 146.376 102.545 146.611 102.961 147.08C103.377 147.539 103.585 148.163 103.585 148.952V155H102.113V149.16C102.113 148.072 101.718 147.528 100.929 147.528C100.513 147.528 100.161 147.651 99.8725 147.896C99.5845 148.131 99.2752 148.504 98.9445 149.016V155H97.4725V149.16C97.4725 148.072 97.0778 147.528 96.2885 147.528C95.8618 147.528 95.5045 147.651 95.2165 147.896C94.9285 148.141 94.6245 148.515 94.3045 149.016V155H92.8325V146.568H94.0965L94.2245 147.8C94.8538 146.851 95.6645 146.376 96.6565 146.376C97.1792 146.376 97.6218 146.509 97.9845 146.776C98.3578 147.043 98.6245 147.416 98.7845 147.896C99.1152 147.405 99.4778 147.032 99.8725 146.776C100.278 146.509 100.753 146.376 101.297 146.376ZM112.231 153.032C112.231 153.373 112.29 153.629 112.407 153.8C112.525 153.96 112.701 154.083 112.935 154.168L112.599 155.192C112.162 155.139 111.81 155.016 111.543 154.824C111.277 154.632 111.079 154.333 110.951 153.928C110.386 154.771 109.549 155.192 108.439 155.192C107.607 155.192 106.951 154.957 106.471 154.488C105.991 154.019 105.751 153.405 105.751 152.648C105.751 151.752 106.071 151.064 106.711 150.584C107.362 150.104 108.279 149.864 109.463 149.864H110.759V149.24C110.759 148.643 110.615 148.216 110.327 147.96C110.039 147.704 109.597 147.576 108.999 147.576C108.381 147.576 107.623 147.725 106.727 148.024L106.359 146.952C107.405 146.568 108.375 146.376 109.271 146.376C110.263 146.376 111.005 146.621 111.495 147.112C111.986 147.592 112.231 148.28 112.231 149.176V153.032ZM108.775 154.088C109.618 154.088 110.279 153.651 110.759 152.776V150.84H109.655C108.098 150.84 107.319 151.416 107.319 152.568C107.319 153.069 107.442 153.448 107.687 153.704C107.933 153.96 108.295 154.088 108.775 154.088ZM119.222 146.376C119.99 146.376 120.588 146.605 121.014 147.064C121.452 147.523 121.67 148.152 121.67 148.952V155H120.198V149.16C120.198 148.563 120.086 148.141 119.862 147.896C119.638 147.651 119.308 147.528 118.87 147.528C118.422 147.528 118.028 147.656 117.686 147.912C117.345 148.168 117.025 148.536 116.726 149.016V155H115.254V146.568H116.518L116.646 147.816C116.945 147.368 117.313 147.016 117.75 146.76C118.198 146.504 118.689 146.376 119.222 146.376ZM127.896 155.048C127.565 156.029 127.101 156.803 126.504 157.368C125.917 157.944 125.075 158.291 123.976 158.408L123.816 157.256C124.371 157.16 124.813 157.021 125.144 156.84C125.475 156.659 125.736 156.424 125.928 156.136C126.131 155.859 126.317 155.48 126.488 155H125.992L123.16 146.568H124.728L126.984 153.928L129.192 146.568H130.712L127.896 155.048ZM140.501 146.376C141.579 146.376 142.368 146.76 142.869 147.528C143.371 148.296 143.621 149.379 143.621 150.776C143.621 152.099 143.333 153.165 142.757 153.976C142.181 154.787 141.365 155.192 140.309 155.192C139.371 155.192 138.635 154.872 138.101 154.232V158.232L136.629 158.408V146.568H137.893L138.005 147.704C138.315 147.277 138.688 146.952 139.125 146.728C139.563 146.493 140.021 146.376 140.501 146.376ZM139.957 153.992C141.344 153.992 142.037 152.92 142.037 150.776C142.037 148.621 141.403 147.544 140.133 147.544C139.717 147.544 139.339 147.667 138.997 147.912C138.656 148.157 138.357 148.472 138.101 148.856V152.968C138.315 153.299 138.581 153.555 138.901 153.736C139.221 153.907 139.573 153.992 139.957 153.992ZM152.497 150.536C152.497 150.781 152.487 151.032 152.465 151.288H147.089C147.153 152.216 147.388 152.899 147.793 153.336C148.199 153.773 148.721 153.992 149.361 153.992C149.767 153.992 150.14 153.933 150.481 153.816C150.823 153.699 151.18 153.512 151.553 153.256L152.193 154.136C151.297 154.84 150.316 155.192 149.249 155.192C148.076 155.192 147.159 154.808 146.497 154.04C145.847 153.272 145.521 152.216 145.521 150.872C145.521 149.997 145.66 149.224 145.937 148.552C146.225 147.869 146.631 147.336 147.153 146.952C147.687 146.568 148.311 146.376 149.025 146.376C150.145 146.376 151.004 146.744 151.601 147.48C152.199 148.216 152.497 149.235 152.497 150.536ZM151.041 150.104C151.041 149.272 150.876 148.637 150.545 148.2C150.215 147.763 149.719 147.544 149.057 147.544C147.852 147.544 147.196 148.429 147.089 150.2H151.041V150.104ZM158.016 146.376C159.2 146.376 160.117 146.771 160.768 147.56C161.429 148.349 161.76 149.421 161.76 150.776C161.76 151.651 161.611 152.424 161.312 153.096C161.013 153.757 160.581 154.275 160.016 154.648C159.451 155.011 158.779 155.192 158 155.192C156.816 155.192 155.893 154.797 155.232 154.008C154.571 153.219 154.24 152.147 154.24 150.792C154.24 149.917 154.389 149.149 154.688 148.488C154.987 147.816 155.419 147.299 155.984 146.936C156.549 146.563 157.227 146.376 158.016 146.376ZM158.016 147.56C156.555 147.56 155.824 148.637 155.824 150.792C155.824 152.936 156.549 154.008 158 154.008C159.451 154.008 160.176 152.931 160.176 150.776C160.176 148.632 159.456 147.56 158.016 147.56ZM168.064 146.376C169.141 146.376 169.931 146.76 170.432 147.528C170.933 148.296 171.184 149.379 171.184 150.776C171.184 152.099 170.896 153.165 170.32 153.976C169.744 154.787 168.928 155.192 167.872 155.192C166.933 155.192 166.197 154.872 165.664 154.232V158.232L164.192 158.408V146.568H165.456L165.568 147.704C165.877 147.277 166.251 146.952 166.688 146.728C167.125 146.493 167.584 146.376 168.064 146.376ZM167.52 153.992C168.907 153.992 169.6 152.92 169.6 150.776C169.6 148.621 168.965 147.544 167.696 147.544C167.28 147.544 166.901 147.667 166.56 147.912C166.219 148.157 165.92 148.472 165.664 148.856V152.968C165.877 153.299 166.144 153.555 166.464 153.736C166.784 153.907 167.136 153.992 167.52 153.992ZM175.372 155.192C174.828 155.192 174.396 155.032 174.076 154.712C173.767 154.381 173.612 153.923 173.612 153.336V143.176L175.084 143V153.304C175.084 153.539 175.121 153.709 175.196 153.816C175.281 153.923 175.42 153.976 175.612 153.976C175.815 153.976 175.996 153.944 176.156 153.88L176.54 154.904C176.188 155.096 175.799 155.192 175.372 155.192ZM184.669 150.536C184.669 150.781 184.659 151.032 184.637 151.288H179.261C179.325 152.216 179.56 152.899 179.965 153.336C180.371 153.773 180.893 153.992 181.533 153.992C181.939 153.992 182.312 153.933 182.653 153.816C182.995 153.699 183.352 153.512 183.725 153.256L184.365 154.136C183.469 154.84 182.488 155.192 181.421 155.192C180.248 155.192 179.331 154.808 178.669 154.04C178.019 153.272 177.693 152.216 177.693 150.872C177.693 149.997 177.832 149.224 178.109 148.552C178.397 147.869 178.803 147.336 179.325 146.952C179.859 146.568 180.483 146.376 181.197 146.376C182.317 146.376 183.176 146.744 183.773 147.48C184.371 148.216 184.669 149.235 184.669 150.536ZM183.213 150.104C183.213 149.272 183.048 148.637 182.717 148.2C182.387 147.763 181.891 147.544 181.229 147.544C180.024 147.544 179.368 148.429 179.261 150.2H183.213V150.104ZM193.542 146.376C194.118 146.376 194.636 146.456 195.094 146.616C195.553 146.776 195.99 147.016 196.406 147.336L195.782 148.264C195.398 148.019 195.03 147.837 194.678 147.72C194.337 147.603 193.974 147.544 193.59 147.544C193.11 147.544 192.732 147.645 192.454 147.848C192.177 148.04 192.038 148.307 192.038 148.648C192.038 148.989 192.166 149.256 192.422 149.448C192.689 149.64 193.164 149.827 193.846 150.008C194.785 150.243 195.484 150.563 195.942 150.968C196.412 151.373 196.646 151.928 196.646 152.632C196.646 153.464 196.321 154.099 195.67 154.536C195.03 154.973 194.246 155.192 193.318 155.192C192.038 155.192 190.977 154.824 190.134 154.088L190.918 153.192C191.633 153.736 192.422 154.008 193.286 154.008C193.841 154.008 194.278 153.896 194.598 153.672C194.929 153.437 195.094 153.123 195.094 152.728C195.094 152.44 195.036 152.211 194.918 152.04C194.801 151.859 194.598 151.704 194.31 151.576C194.022 151.437 193.601 151.293 193.046 151.144C192.15 150.909 191.5 150.595 191.094 150.2C190.7 149.805 190.502 149.304 190.502 148.696C190.502 148.259 190.63 147.864 190.886 147.512C191.153 147.149 191.516 146.872 191.974 146.68C192.444 146.477 192.966 146.376 193.542 146.376ZM202.595 146.376C203.672 146.376 204.462 146.76 204.963 147.528C205.464 148.296 205.715 149.379 205.715 150.776C205.715 152.099 205.427 153.165 204.851 153.976C204.275 154.787 203.459 155.192 202.403 155.192C201.464 155.192 200.728 154.872 200.195 154.232V158.232L198.723 158.408V146.568H199.987L200.099 147.704C200.408 147.277 200.782 146.952 201.219 146.728C201.656 146.493 202.115 146.376 202.595 146.376ZM202.051 153.992C203.438 153.992 204.131 152.92 204.131 150.776C204.131 148.621 203.496 147.544 202.227 147.544C201.811 147.544 201.432 147.667 201.091 147.912C200.75 148.157 200.451 148.472 200.195 148.856V152.968C200.408 153.299 200.675 153.555 200.995 153.736C201.315 153.907 201.667 153.992 202.051 153.992ZM214.591 150.536C214.591 150.781 214.58 151.032 214.559 151.288H209.183C209.247 152.216 209.482 152.899 209.887 153.336C210.292 153.773 210.815 153.992 211.455 153.992C211.86 153.992 212.234 153.933 212.575 153.816C212.916 153.699 213.274 153.512 213.647 153.256L214.287 154.136C213.391 154.84 212.41 155.192 211.343 155.192C210.17 155.192 209.252 154.808 208.591 154.04C207.94 153.272 207.615 152.216 207.615 150.872C207.615 149.997 207.754 149.224 208.031 148.552C208.319 147.869 208.724 147.336 209.247 146.952C209.78 146.568 210.404 146.376 211.119 146.376C212.239 146.376 213.098 146.744 213.695 147.48C214.292 148.216 214.591 149.235 214.591 150.536ZM213.135 150.104C213.135 149.272 212.97 148.637 212.639 148.2C212.308 147.763 211.812 147.544 211.151 147.544C209.946 147.544 209.29 148.429 209.183 150.2H213.135V150.104ZM220.91 146.376C221.678 146.376 222.275 146.605 222.702 147.064C223.139 147.523 223.358 148.152 223.358 148.952V155H221.886V149.16C221.886 148.563 221.774 148.141 221.55 147.896C221.326 147.651 220.995 147.528 220.558 147.528C220.11 147.528 219.715 147.656 219.374 147.912C219.033 148.168 218.713 148.536 218.414 149.016V155H216.942V146.568H218.206L218.334 147.816C218.633 147.368 219.001 147.016 219.438 146.76C219.886 146.504 220.377 146.376 220.91 146.376ZM232.845 143.176V155H231.549L231.405 153.832C231.128 154.259 230.781 154.595 230.365 154.84C229.949 155.075 229.485 155.192 228.973 155.192C227.97 155.192 227.186 154.797 226.621 154.008C226.066 153.219 225.789 152.157 225.789 150.824C225.789 149.96 225.922 149.192 226.189 148.52C226.456 147.848 226.84 147.325 227.341 146.952C227.842 146.568 228.429 146.376 229.101 146.376C229.965 146.376 230.722 146.723 231.373 147.416V143L232.845 143.176ZM229.293 154.024C229.741 154.024 230.125 153.923 230.445 153.72C230.765 153.507 231.074 153.192 231.373 152.776V148.648C231.096 148.285 230.797 148.013 230.477 147.832C230.168 147.64 229.816 147.544 229.421 147.544C228.77 147.544 228.264 147.816 227.901 148.36C227.549 148.904 227.373 149.715 227.373 150.792C227.373 151.88 227.538 152.691 227.869 153.224C228.2 153.757 228.674 154.024 229.293 154.024ZM248.578 146.376C249.271 146.376 249.826 146.611 250.242 147.08C250.658 147.539 250.866 148.163 250.866 148.952V155H249.394V149.16C249.394 148.072 248.999 147.528 248.21 147.528C247.794 147.528 247.442 147.651 247.154 147.896C246.866 148.131 246.556 148.504 246.226 149.016V155H244.754V149.16C244.754 148.072 244.359 147.528 243.57 147.528C243.143 147.528 242.786 147.651 242.498 147.896C242.21 148.141 241.906 148.515 241.586 149.016V155H240.114V146.568H241.378L241.506 147.8C242.135 146.851 242.946 146.376 243.938 146.376C244.46 146.376 244.903 146.509 245.266 146.776C245.639 147.043 245.906 147.416 246.066 147.896C246.396 147.405 246.759 147.032 247.154 146.776C247.559 146.509 248.034 146.376 248.578 146.376ZM257.001 146.376C258.185 146.376 259.102 146.771 259.753 147.56C260.414 148.349 260.745 149.421 260.745 150.776C260.745 151.651 260.595 152.424 260.297 153.096C259.998 153.757 259.566 154.275 259.001 154.648C258.435 155.011 257.763 155.192 256.985 155.192C255.801 155.192 254.878 154.797 254.217 154.008C253.555 153.219 253.225 152.147 253.225 150.792C253.225 149.917 253.374 149.149 253.673 148.488C253.971 147.816 254.403 147.299 254.969 146.936C255.534 146.563 256.211 146.376 257.001 146.376ZM257.001 147.56C255.539 147.56 254.809 148.637 254.809 150.792C254.809 152.936 255.534 154.008 256.985 154.008C258.435 154.008 259.161 152.931 259.161 150.776C259.161 148.632 258.441 147.56 257.001 147.56ZM267.144 146.376C267.912 146.376 268.51 146.605 268.936 147.064C269.374 147.523 269.592 148.152 269.592 148.952V155H268.12V149.16C268.12 148.563 268.008 148.141 267.784 147.896C267.56 147.651 267.23 147.528 266.792 147.528C266.344 147.528 265.95 147.656 265.608 147.912C265.267 148.168 264.947 148.536 264.648 149.016V155H263.176V146.568H264.44L264.568 147.816C264.867 147.368 265.235 147.016 265.672 146.76C266.12 146.504 266.611 146.376 267.144 146.376ZM278.919 150.536C278.919 150.781 278.909 151.032 278.887 151.288H273.511C273.575 152.216 273.81 152.899 274.215 153.336C274.621 153.773 275.143 153.992 275.783 153.992C276.189 153.992 276.562 153.933 276.903 153.816C277.245 153.699 277.602 153.512 277.975 153.256L278.615 154.136C277.719 154.84 276.738 155.192 275.671 155.192C274.498 155.192 273.581 154.808 272.919 154.04C272.269 153.272 271.943 152.216 271.943 150.872C271.943 149.997 272.082 149.224 272.359 148.552C272.647 147.869 273.053 147.336 273.575 146.952C274.109 146.568 274.733 146.376 275.447 146.376C276.567 146.376 277.426 146.744 278.023 147.48C278.621 148.216 278.919 149.235 278.919 150.536ZM277.463 150.104C277.463 149.272 277.298 148.637 276.967 148.2C276.637 147.763 276.141 147.544 275.479 147.544C274.274 147.544 273.618 148.429 273.511 150.2H277.463V150.104ZM284.584 155.048C284.253 156.029 283.789 156.803 283.192 157.368C282.605 157.944 281.762 158.291 280.664 158.408L280.504 157.256C281.058 157.16 281.501 157.021 281.832 156.84C282.162 156.659 282.424 156.424 282.616 156.136C282.818 155.859 283.005 155.48 283.176 155H282.68L279.848 146.568H281.416L283.672 153.928L285.88 146.568H287.4L284.584 155.048ZM297.573 154.616C297.018 155 296.389 155.192 295.685 155.192C294.97 155.192 294.41 154.989 294.005 154.584C293.61 154.168 293.413 153.571 293.413 152.792V147.704H291.941V146.568H293.413V144.664L294.885 144.488V146.568H296.885L296.725 147.704H294.885V152.728C294.885 153.165 294.96 153.485 295.109 153.688C295.269 153.88 295.53 153.976 295.893 153.976C296.224 153.976 296.597 153.864 297.013 153.64L297.573 154.616ZM303.066 146.376C303.834 146.376 304.431 146.605 304.858 147.064C305.295 147.523 305.514 148.152 305.514 148.952V155H304.042V149.16C304.042 148.563 303.925 148.141 303.69 147.896C303.466 147.651 303.135 147.528 302.698 147.528C302.261 147.528 301.871 147.656 301.53 147.912C301.189 148.168 300.869 148.531 300.57 149V155H299.098V143.192L300.57 143.032V147.736C301.231 146.829 302.063 146.376 303.066 146.376ZM314.841 150.536C314.841 150.781 314.83 151.032 314.809 151.288H309.433C309.497 152.216 309.732 152.899 310.137 153.336C310.542 153.773 311.065 153.992 311.705 153.992C312.11 153.992 312.484 153.933 312.825 153.816C313.166 153.699 313.524 153.512 313.897 153.256L314.537 154.136C313.641 154.84 312.66 155.192 311.593 155.192C310.42 155.192 309.502 154.808 308.841 154.04C308.19 153.272 307.865 152.216 307.865 150.872C307.865 149.997 308.004 149.224 308.281 148.552C308.569 147.869 308.974 147.336 309.497 146.952C310.03 146.568 310.654 146.376 311.369 146.376C312.489 146.376 313.348 146.744 313.945 147.48C314.542 148.216 314.841 149.235 314.841 150.536ZM313.385 150.104C313.385 149.272 313.22 148.637 312.889 148.2C312.558 147.763 312.062 147.544 311.401 147.544C310.196 147.544 309.54 148.429 309.433 150.2H313.385V150.104ZM320.505 155.048C320.175 156.029 319.711 156.803 319.113 157.368C318.527 157.944 317.684 158.291 316.585 158.408L316.425 157.256C316.98 157.16 317.423 157.021 317.753 156.84C318.084 156.659 318.345 156.424 318.537 156.136C318.74 155.859 318.927 155.48 319.097 155H318.601L315.769 146.568H317.337L319.593 153.928L321.801 146.568H323.321L320.505 155.048ZM335.607 150.536C335.607 150.781 335.596 151.032 335.575 151.288H330.199C330.263 152.216 330.497 152.899 330.903 153.336C331.308 153.773 331.831 153.992 332.471 153.992C332.876 153.992 333.249 153.933 333.591 153.816C333.932 153.699 334.289 153.512 334.663 153.256L335.303 154.136C334.407 154.84 333.425 155.192 332.359 155.192C331.185 155.192 330.268 154.808 329.607 154.04C328.956 153.272 328.631 152.216 328.631 150.872C328.631 149.997 328.769 149.224 329.047 148.552C329.335 147.869 329.74 147.336 330.263 146.952C330.796 146.568 331.42 146.376 332.135 146.376C333.255 146.376 334.113 146.744 334.711 147.48C335.308 148.216 335.607 149.235 335.607 150.536ZM334.151 150.104C334.151 149.272 333.985 148.637 333.655 148.2C333.324 147.763 332.828 147.544 332.167 147.544C330.961 147.544 330.305 148.429 330.199 150.2H334.151V150.104ZM343.481 153.032C343.481 153.373 343.54 153.629 343.657 153.8C343.775 153.96 343.951 154.083 344.185 154.168L343.849 155.192C343.412 155.139 343.06 155.016 342.793 154.824C342.527 154.632 342.329 154.333 342.201 153.928C341.636 154.771 340.799 155.192 339.689 155.192C338.857 155.192 338.201 154.957 337.721 154.488C337.241 154.019 337.001 153.405 337.001 152.648C337.001 151.752 337.321 151.064 337.961 150.584C338.612 150.104 339.529 149.864 340.713 149.864H342.009V149.24C342.009 148.643 341.865 148.216 341.577 147.96C341.289 147.704 340.847 147.576 340.249 147.576C339.631 147.576 338.873 147.725 337.977 148.024L337.609 146.952C338.655 146.568 339.625 146.376 340.521 146.376C341.513 146.376 342.255 146.621 342.745 147.112C343.236 147.592 343.481 148.28 343.481 149.176V153.032ZM340.025 154.088C340.868 154.088 341.529 153.651 342.009 152.776V150.84H340.905C339.348 150.84 338.569 151.416 338.569 152.568C338.569 153.069 338.692 153.448 338.937 153.704C339.183 153.96 339.545 154.088 340.025 154.088ZM350.168 146.376C350.467 146.376 350.744 146.408 351 146.472L350.728 147.912C350.472 147.848 350.227 147.816 349.992 147.816C349.47 147.816 349.048 148.008 348.728 148.392C348.408 148.776 348.158 149.373 347.976 150.184V155H346.504V146.568H347.768L347.912 148.28C348.136 147.651 348.44 147.176 348.824 146.856C349.208 146.536 349.656 146.376 350.168 146.376ZM356.644 146.376C357.412 146.376 358.01 146.605 358.436 147.064C358.874 147.523 359.092 148.152 359.092 148.952V155H357.62V149.16C357.62 148.563 357.508 148.141 357.284 147.896C357.06 147.651 356.73 147.528 356.292 147.528C355.844 147.528 355.45 147.656 355.108 147.912C354.767 148.168 354.447 148.536 354.148 149.016V155H352.676V146.568H353.94L354.068 147.816C354.367 147.368 354.735 147.016 355.172 146.76C355.62 146.504 356.111 146.376 356.644 146.376ZM368.419 150.536C368.419 150.781 368.409 151.032 368.387 151.288H363.011C363.075 152.216 363.31 152.899 363.715 153.336C364.121 153.773 364.643 153.992 365.283 153.992C365.689 153.992 366.062 153.933 366.403 153.816C366.745 153.699 367.102 153.512 367.475 153.256L368.115 154.136C367.219 154.84 366.238 155.192 365.171 155.192C363.998 155.192 363.081 154.808 362.419 154.04C361.769 153.272 361.443 152.216 361.443 150.872C361.443 149.997 361.582 149.224 361.859 148.552C362.147 147.869 362.553 147.336 363.075 146.952C363.609 146.568 364.233 146.376 364.947 146.376C366.067 146.376 366.926 146.744 367.523 147.48C368.121 148.216 368.419 149.235 368.419 150.536ZM366.963 150.104C366.963 149.272 366.798 148.637 366.467 148.2C366.137 147.763 365.641 147.544 364.979 147.544C363.774 147.544 363.118 148.429 363.011 150.2H366.963V150.104ZM377.298 143.176V155H376.002L375.858 153.832C375.581 154.259 375.234 154.595 374.818 154.84C374.402 155.075 373.938 155.192 373.426 155.192C372.423 155.192 371.639 154.797 371.074 154.008C370.519 153.219 370.242 152.157 370.242 150.824C370.242 149.96 370.375 149.192 370.642 148.52C370.909 147.848 371.293 147.325 371.794 146.952C372.295 146.568 372.882 146.376 373.554 146.376C374.418 146.376 375.175 146.723 375.826 147.416V143L377.298 143.176ZM373.746 154.024C374.194 154.024 374.578 153.923 374.898 153.72C375.218 153.507 375.527 153.192 375.826 152.776V148.648C375.549 148.285 375.25 148.013 374.93 147.832C374.621 147.64 374.269 147.544 373.874 147.544C373.223 147.544 372.717 147.816 372.354 148.36C372.002 148.904 371.826 149.715 371.826 150.792C371.826 151.88 371.991 152.691 372.322 153.224C372.653 153.757 373.127 154.024 373.746 154.024ZM388.823 154.616C388.268 155 387.639 155.192 386.935 155.192C386.22 155.192 385.66 154.989 385.255 154.584C384.86 154.168 384.663 153.571 384.663 152.792V147.704H383.191V146.568H384.663V144.664L386.135 144.488V146.568H388.135L387.975 147.704H386.135V152.728C386.135 153.165 386.21 153.485 386.359 153.688C386.519 153.88 386.78 153.976 387.143 153.976C387.474 153.976 387.847 153.864 388.263 153.64L388.823 154.616ZM393.282 146.376C394.466 146.376 395.383 146.771 396.034 147.56C396.695 148.349 397.026 149.421 397.026 150.776C397.026 151.651 396.876 152.424 396.578 153.096C396.279 153.757 395.847 154.275 395.282 154.648C394.716 155.011 394.044 155.192 393.266 155.192C392.082 155.192 391.159 154.797 390.498 154.008C389.836 153.219 389.506 152.147 389.506 150.792C389.506 149.917 389.655 149.149 389.954 148.488C390.252 147.816 390.684 147.299 391.25 146.936C391.815 146.563 392.492 146.376 393.282 146.376ZM393.282 147.56C391.82 147.56 391.09 148.637 391.09 150.792C391.09 152.936 391.815 154.008 393.266 154.008C394.716 154.008 395.442 152.931 395.442 150.776C395.442 148.632 394.722 147.56 393.282 147.56ZM66.376 165.376C67.336 165.376 68.0987 165.765 68.664 166.544C69.2293 167.312 69.512 168.389 69.512 169.776C69.512 170.651 69.3787 171.424 69.112 172.096C68.8453 172.757 68.4613 173.275 67.96 173.648C67.4587 174.011 66.872 174.192 66.2 174.192C65.3147 174.192 64.568 173.819 63.96 173.072L63.816 174H62.52V162.176L63.992 162V166.624C64.6 165.792 65.3947 165.376 66.376 165.376ZM65.848 173.024C66.4987 173.024 67.0053 172.763 67.368 172.24C67.7413 171.707 67.928 170.885 67.928 169.776C67.928 168.635 67.7573 167.813 67.416 167.312C67.0747 166.8 66.5893 166.544 65.96 166.544C65.2133 166.544 64.5573 166.981 63.992 167.856V171.888C64.216 172.24 64.488 172.517 64.808 172.72C65.1387 172.923 65.4853 173.024 65.848 173.024ZM78.292 174H77.028L76.916 172.688C76.596 173.211 76.228 173.595 75.812 173.84C75.396 174.075 74.8893 174.192 74.292 174.192C73.556 174.192 72.98 173.968 72.564 173.52C72.148 173.072 71.94 172.437 71.94 171.616V165.568H73.412V171.456C73.412 172.032 73.5133 172.443 73.716 172.688C73.9187 172.923 74.2493 173.04 74.708 173.04C75.5293 173.04 76.2333 172.555 76.82 171.584V165.568H78.292V174ZM84.7085 174.048C84.3778 175.029 83.9138 175.803 83.3165 176.368C82.7298 176.944 81.8872 177.291 80.7885 177.408L80.6285 176.256C81.1832 176.16 81.6258 176.021 81.9565 175.84C82.2872 175.659 82.5485 175.424 82.7405 175.136C82.9432 174.859 83.1298 174.48 83.3005 174H82.8045L79.9725 165.568H81.5405L83.7965 172.928L86.0045 165.568H87.5245L84.7085 174.048ZM97.6979 173.616C97.1432 174 96.5139 174.192 95.8099 174.192C95.0952 174.192 94.5352 173.989 94.1299 173.584C93.7352 173.168 93.5379 172.571 93.5379 171.792V166.704H92.0659V165.568H93.5379V163.664L95.0099 163.488V165.568H97.0099L96.8499 166.704H95.0099V171.728C95.0099 172.165 95.0845 172.485 95.2339 172.688C95.3939 172.88 95.6552 172.976 96.0179 172.976C96.3485 172.976 96.7219 172.864 97.1379 172.64L97.6979 173.616ZM103.191 165.376C103.959 165.376 104.556 165.605 104.983 166.064C105.42 166.523 105.639 167.152 105.639 167.952V174H104.167V168.16C104.167 167.563 104.05 167.141 103.815 166.896C103.591 166.651 103.26 166.528 102.823 166.528C102.386 166.528 101.996 166.656 101.655 166.912C101.314 167.168 100.994 167.531 100.695 168V174H99.2231V162.192L100.695 162.032V166.736C101.356 165.829 102.188 165.376 103.191 165.376ZM110.07 165.568V174H108.598V165.568H110.07ZM109.318 161.52C109.627 161.52 109.878 161.616 110.07 161.808C110.262 162 110.358 162.24 110.358 162.528C110.358 162.816 110.262 163.056 110.07 163.248C109.878 163.429 109.627 163.52 109.318 163.52C109.019 163.52 108.774 163.429 108.582 163.248C108.39 163.056 108.294 162.816 108.294 162.528C108.294 162.24 108.39 162 108.582 161.808C108.774 161.616 109.019 161.52 109.318 161.52ZM117.082 165.376C117.85 165.376 118.447 165.605 118.874 166.064C119.311 166.523 119.53 167.152 119.53 167.952V174H118.058V168.16C118.058 167.563 117.946 167.141 117.722 166.896C117.498 166.651 117.167 166.528 116.73 166.528C116.282 166.528 115.887 166.656 115.546 166.912C115.204 167.168 114.884 167.536 114.586 168.016V174H113.114V165.568H114.378L114.506 166.816C114.804 166.368 115.172 166.016 115.61 165.76C116.058 165.504 116.548 165.376 117.082 165.376ZM129.289 165.952C128.969 166.059 128.617 166.128 128.233 166.16C127.849 166.192 127.379 166.208 126.825 166.208C127.817 166.656 128.313 167.365 128.313 168.336C128.313 169.179 128.025 169.867 127.449 170.4C126.873 170.933 126.089 171.2 125.097 171.2C124.713 171.2 124.355 171.147 124.025 171.04C123.897 171.125 123.795 171.243 123.721 171.392C123.646 171.531 123.609 171.675 123.609 171.824C123.609 172.283 123.977 172.512 124.713 172.512H126.057C126.622 172.512 127.123 172.613 127.561 172.816C127.998 173.019 128.334 173.296 128.569 173.648C128.814 174 128.937 174.4 128.937 174.848C128.937 175.669 128.601 176.299 127.929 176.736C127.257 177.184 126.275 177.408 124.985 177.408C124.078 177.408 123.358 177.312 122.825 177.12C122.302 176.939 121.929 176.661 121.705 176.288C121.481 175.915 121.369 175.435 121.369 174.848H122.697C122.697 175.189 122.761 175.456 122.889 175.648C123.017 175.851 123.246 176 123.577 176.096C123.907 176.203 124.377 176.256 124.985 176.256C125.87 176.256 126.499 176.144 126.873 175.92C127.257 175.707 127.449 175.381 127.449 174.944C127.449 174.549 127.299 174.251 127.001 174.048C126.702 173.845 126.286 173.744 125.753 173.744H124.425C123.71 173.744 123.166 173.595 122.793 173.296C122.43 172.987 122.249 172.603 122.249 172.144C122.249 171.867 122.329 171.6 122.489 171.344C122.649 171.088 122.878 170.859 123.177 170.656C122.686 170.4 122.323 170.085 122.089 169.712C121.865 169.328 121.753 168.864 121.753 168.32C121.753 167.755 121.891 167.248 122.169 166.8C122.457 166.352 122.846 166.005 123.337 165.76C123.838 165.504 124.393 165.376 125.001 165.376C125.662 165.387 126.217 165.365 126.665 165.312C127.113 165.248 127.481 165.168 127.769 165.072C128.067 164.965 128.43 164.816 128.857 164.624L129.289 165.952ZM125.001 166.432C124.446 166.432 124.014 166.608 123.705 166.96C123.406 167.301 123.257 167.755 123.257 168.32C123.257 168.896 123.411 169.36 123.721 169.712C124.03 170.053 124.467 170.224 125.033 170.224C125.609 170.224 126.046 170.059 126.345 169.728C126.654 169.387 126.809 168.912 126.809 168.304C126.809 167.056 126.206 166.432 125.001 166.432ZM132.98 165.376C133.556 165.376 134.073 165.456 134.532 165.616C134.991 165.776 135.428 166.016 135.844 166.336L135.22 167.264C134.836 167.019 134.468 166.837 134.116 166.72C133.775 166.603 133.412 166.544 133.028 166.544C132.548 166.544 132.169 166.645 131.892 166.848C131.615 167.04 131.476 167.307 131.476 167.648C131.476 167.989 131.604 168.256 131.86 168.448C132.127 168.64 132.601 168.827 133.284 169.008C134.223 169.243 134.921 169.563 135.38 169.968C135.849 170.373 136.084 170.928 136.084 171.632C136.084 172.464 135.759 173.099 135.108 173.536C134.468 173.973 133.684 174.192 132.756 174.192C131.476 174.192 130.415 173.824 129.572 173.088L130.356 172.192C131.071 172.736 131.86 173.008 132.724 173.008C133.279 173.008 133.716 172.896 134.036 172.672C134.367 172.437 134.532 172.123 134.532 171.728C134.532 171.44 134.473 171.211 134.356 171.04C134.239 170.859 134.036 170.704 133.748 170.576C133.46 170.437 133.039 170.293 132.484 170.144C131.588 169.909 130.937 169.595 130.532 169.2C130.137 168.805 129.94 168.304 129.94 167.696C129.94 167.259 130.068 166.864 130.324 166.512C130.591 166.149 130.953 165.872 131.412 165.68C131.881 165.477 132.404 165.376 132.98 165.376ZM146.651 173.616C146.096 174 145.467 174.192 144.763 174.192C144.048 174.192 143.488 173.989 143.083 173.584C142.688 173.168 142.491 172.571 142.491 171.792V166.704H141.019V165.568H142.491V163.664L143.963 163.488V165.568H145.963L145.803 166.704H143.963V171.728C143.963 172.165 144.038 172.485 144.187 172.688C144.347 172.88 144.608 172.976 144.971 172.976C145.302 172.976 145.675 172.864 146.091 172.64L146.651 173.616ZM152.144 165.376C152.912 165.376 153.51 165.605 153.936 166.064C154.374 166.523 154.592 167.152 154.592 167.952V174H153.12V168.16C153.12 167.563 153.003 167.141 152.768 166.896C152.544 166.651 152.214 166.528 151.776 166.528C151.339 166.528 150.95 166.656 150.608 166.912C150.267 167.168 149.947 167.531 149.648 168V174H148.176V162.192L149.648 162.032V166.736C150.31 165.829 151.142 165.376 152.144 165.376ZM163.919 169.536C163.919 169.781 163.909 170.032 163.887 170.288H158.511C158.575 171.216 158.81 171.899 159.215 172.336C159.621 172.773 160.143 172.992 160.783 172.992C161.189 172.992 161.562 172.933 161.903 172.816C162.245 172.699 162.602 172.512 162.975 172.256L163.615 173.136C162.719 173.84 161.738 174.192 160.671 174.192C159.498 174.192 158.581 173.808 157.919 173.04C157.269 172.272 156.943 171.216 156.943 169.872C156.943 168.997 157.082 168.224 157.359 167.552C157.647 166.869 158.053 166.336 158.575 165.952C159.109 165.568 159.733 165.376 160.447 165.376C161.567 165.376 162.426 165.744 163.023 166.48C163.621 167.216 163.919 168.235 163.919 169.536ZM162.463 169.104C162.463 168.272 162.298 167.637 161.967 167.2C161.637 166.763 161.141 166.544 160.479 166.544C159.274 166.544 158.618 167.429 158.511 169.2H162.463V169.104ZM169.584 174.048C169.253 175.029 168.789 175.803 168.192 176.368C167.605 176.944 166.762 177.291 165.664 177.408L165.504 176.256C166.058 176.16 166.501 176.021 166.832 175.84C167.162 175.659 167.424 175.424 167.616 175.136C167.818 174.859 168.005 174.48 168.176 174H167.68L164.848 165.568H166.416L168.672 172.928L170.88 165.568H172.4L169.584 174.048ZM184.845 162.176V174H183.549L183.405 172.832C183.128 173.259 182.781 173.595 182.365 173.84C181.949 174.075 181.485 174.192 180.973 174.192C179.97 174.192 179.186 173.797 178.621 173.008C178.066 172.219 177.789 171.157 177.789 169.824C177.789 168.96 177.922 168.192 178.189 167.52C178.456 166.848 178.84 166.325 179.341 165.952C179.842 165.568 180.429 165.376 181.101 165.376C181.965 165.376 182.722 165.723 183.373 166.416V162L184.845 162.176ZM181.293 173.024C181.741 173.024 182.125 172.923 182.445 172.72C182.765 172.507 183.074 172.192 183.373 171.776V167.648C183.096 167.285 182.797 167.013 182.477 166.832C182.168 166.64 181.816 166.544 181.421 166.544C180.77 166.544 180.264 166.816 179.901 167.36C179.549 167.904 179.373 168.715 179.373 169.792C179.373 170.88 179.538 171.691 179.869 172.224C180.2 172.757 180.674 173.024 181.293 173.024ZM191.047 165.376C192.231 165.376 193.149 165.771 193.799 166.56C194.461 167.349 194.791 168.421 194.791 169.776C194.791 170.651 194.642 171.424 194.343 172.096C194.045 172.757 193.613 173.275 193.047 173.648C192.482 174.011 191.81 174.192 191.031 174.192C189.847 174.192 188.925 173.797 188.263 173.008C187.602 172.219 187.271 171.147 187.271 169.792C187.271 168.917 187.421 168.149 187.719 167.488C188.018 166.816 188.45 166.299 189.015 165.936C189.581 165.563 190.258 165.376 191.047 165.376ZM191.047 166.56C189.586 166.56 188.855 167.637 188.855 169.792C188.855 171.936 189.581 173.008 191.031 173.008C192.482 173.008 193.207 171.931 193.207 169.776C193.207 167.632 192.487 166.56 191.047 166.56ZM201.191 165.376C201.959 165.376 202.556 165.605 202.983 166.064C203.42 166.523 203.639 167.152 203.639 167.952V174H202.167V168.16C202.167 167.563 202.055 167.141 201.831 166.896C201.607 166.651 201.276 166.528 200.839 166.528C200.391 166.528 199.996 166.656 199.655 166.912C199.314 167.168 198.994 167.536 198.695 168.016V174H197.223V165.568H198.487L198.615 166.816C198.914 166.368 199.282 166.016 199.719 165.76C200.167 165.504 200.658 165.376 201.191 165.376ZM206.122 167.168L205.882 162.976H207.466L207.226 167.168H206.122ZM214.354 173.616C213.799 174 213.17 174.192 212.466 174.192C211.751 174.192 211.191 173.989 210.786 173.584C210.391 173.168 210.194 172.571 210.194 171.792V166.704H208.722V165.568H210.194V163.664L211.666 163.488V165.568H213.666L213.506 166.704H211.666V171.728C211.666 172.165 211.741 172.485 211.89 172.688C212.05 172.88 212.311 172.976 212.674 172.976C213.005 172.976 213.378 172.864 213.794 172.64L214.354 173.616ZM229.746 165.568L227.826 174H225.826L224.354 166.896L222.834 174H220.882L218.914 165.568H220.386L221.906 172.976L223.57 165.568H225.218L226.802 172.976L228.338 165.568H229.746ZM237.075 172.032C237.075 172.373 237.134 172.629 237.251 172.8C237.368 172.96 237.544 173.083 237.779 173.168L237.443 174.192C237.006 174.139 236.654 174.016 236.387 173.824C236.12 173.632 235.923 173.333 235.795 172.928C235.23 173.771 234.392 174.192 233.283 174.192C232.451 174.192 231.795 173.957 231.315 173.488C230.835 173.019 230.595 172.405 230.595 171.648C230.595 170.752 230.915 170.064 231.555 169.584C232.206 169.104 233.123 168.864 234.307 168.864H235.603V168.24C235.603 167.643 235.459 167.216 235.171 166.96C234.883 166.704 234.44 166.576 233.843 166.576C233.224 166.576 232.467 166.725 231.571 167.024L231.203 165.952C232.248 165.568 233.219 165.376 234.115 165.376C235.107 165.376 235.848 165.621 236.339 166.112C236.83 166.592 237.075 167.28 237.075 168.176V172.032ZM233.619 173.088C234.462 173.088 235.123 172.651 235.603 171.776V169.84H234.499C232.942 169.84 232.163 170.416 232.163 171.568C232.163 172.069 232.286 172.448 232.531 172.704C232.776 172.96 233.139 173.088 233.619 173.088ZM244.066 165.376C244.834 165.376 245.431 165.605 245.858 166.064C246.295 166.523 246.514 167.152 246.514 167.952V174H245.042V168.16C245.042 167.563 244.93 167.141 244.706 166.896C244.482 166.651 244.151 166.528 243.714 166.528C243.266 166.528 242.871 166.656 242.53 166.912C242.189 167.168 241.869 167.536 241.57 168.016V174H240.098V165.568H241.362L241.49 166.816C241.789 166.368 242.157 166.016 242.594 165.76C243.042 165.504 243.533 165.376 244.066 165.376ZM253.729 173.616C253.174 174 252.545 174.192 251.841 174.192C251.126 174.192 250.566 173.989 250.161 173.584C249.766 173.168 249.569 172.571 249.569 171.792V166.704H248.097V165.568H249.569V163.664L251.041 163.488V165.568H253.041L252.881 166.704H251.041V171.728C251.041 172.165 251.116 172.485 251.265 172.688C251.425 172.88 251.686 172.976 252.049 172.976C252.38 172.976 252.753 172.864 253.169 172.64L253.729 173.616ZM255.701 171.968C256.021 171.968 256.288 172.075 256.501 172.288C256.714 172.501 256.821 172.763 256.821 173.072C256.821 173.403 256.725 173.781 256.533 174.208L255.461 176.656H254.405L255.045 174C254.906 173.893 254.794 173.76 254.709 173.6C254.634 173.44 254.597 173.264 254.597 173.072C254.597 172.763 254.704 172.501 254.917 172.288C255.13 172.075 255.392 171.968 255.701 171.968ZM267.651 173.616C267.096 174 266.467 174.192 265.763 174.192C265.048 174.192 264.488 173.989 264.083 173.584C263.688 173.168 263.491 172.571 263.491 171.792V166.704H262.019V165.568H263.491V163.664L264.963 163.488V165.568H266.963L266.803 166.704H264.963V171.728C264.963 172.165 265.038 172.485 265.187 172.688C265.347 172.88 265.608 172.976 265.971 172.976C266.302 172.976 266.675 172.864 267.091 172.64L267.651 173.616ZM272.11 165.376C273.294 165.376 274.211 165.771 274.862 166.56C275.523 167.349 275.854 168.421 275.854 169.776C275.854 170.651 275.705 171.424 275.406 172.096C275.107 172.757 274.675 173.275 274.11 173.648C273.545 174.011 272.873 174.192 272.094 174.192C270.91 174.192 269.987 173.797 269.326 173.008C268.665 172.219 268.334 171.147 268.334 169.792C268.334 168.917 268.483 168.149 268.782 167.488C269.081 166.816 269.513 166.299 270.078 165.936C270.643 165.563 271.321 165.376 272.11 165.376ZM272.11 166.56C270.649 166.56 269.918 167.637 269.918 169.792C269.918 171.936 270.643 173.008 272.094 173.008C273.545 173.008 274.27 171.931 274.27 169.776C274.27 167.632 273.55 166.56 272.11 166.56ZM283.992 165.568V174H282.52V165.568H283.992ZM283.24 161.52C283.549 161.52 283.8 161.616 283.992 161.808C284.184 162 284.28 162.24 284.28 162.528C284.28 162.816 284.184 163.056 283.992 163.248C283.8 163.429 283.549 163.52 283.24 163.52C282.941 163.52 282.696 163.429 282.504 163.248C282.312 163.056 282.216 162.816 282.216 162.528C282.216 162.24 282.312 162 282.504 161.808C282.696 161.616 282.941 161.52 283.24 161.52ZM295.5 165.376C296.193 165.376 296.748 165.611 297.164 166.08C297.58 166.539 297.788 167.163 297.788 167.952V174H296.316V168.16C296.316 167.072 295.921 166.528 295.132 166.528C294.716 166.528 294.364 166.651 294.076 166.896C293.788 167.131 293.478 167.504 293.148 168.016V174H291.676V168.16C291.676 167.072 291.281 166.528 290.492 166.528C290.065 166.528 289.708 166.651 289.42 166.896C289.132 167.141 288.828 167.515 288.508 168.016V174H287.036V165.568H288.3L288.428 166.8C289.057 165.851 289.868 165.376 290.86 165.376C291.382 165.376 291.825 165.509 292.188 165.776C292.561 166.043 292.828 166.416 292.988 166.896C293.318 166.405 293.681 166.032 294.076 165.776C294.481 165.509 294.956 165.376 295.5 165.376ZM304.626 165.376C305.704 165.376 306.493 165.76 306.994 166.528C307.496 167.296 307.746 168.379 307.746 169.776C307.746 171.099 307.458 172.165 306.882 172.976C306.306 173.787 305.49 174.192 304.434 174.192C303.496 174.192 302.76 173.872 302.226 173.232V177.232L300.754 177.408V165.568H302.018L302.13 166.704C302.44 166.277 302.813 165.952 303.25 165.728C303.688 165.493 304.146 165.376 304.626 165.376ZM304.082 172.992C305.469 172.992 306.162 171.92 306.162 169.776C306.162 167.621 305.528 166.544 304.258 166.544C303.842 166.544 303.464 166.667 303.122 166.912C302.781 167.157 302.482 167.472 302.226 167.856V171.968C302.44 172.299 302.706 172.555 303.026 172.736C303.346 172.907 303.698 172.992 304.082 172.992ZM313.918 165.376C314.217 165.376 314.494 165.408 314.75 165.472L314.478 166.912C314.222 166.848 313.977 166.816 313.742 166.816C313.22 166.816 312.798 167.008 312.478 167.392C312.158 167.776 311.908 168.373 311.726 169.184V174H310.254V165.568H311.518L311.662 167.28C311.886 166.651 312.19 166.176 312.574 165.856C312.958 165.536 313.406 165.376 313.918 165.376ZM322.31 169.536C322.31 169.781 322.299 170.032 322.278 170.288H316.902C316.966 171.216 317.201 171.899 317.606 172.336C318.011 172.773 318.534 172.992 319.174 172.992C319.579 172.992 319.953 172.933 320.294 172.816C320.635 172.699 320.993 172.512 321.366 172.256L322.006 173.136C321.11 173.84 320.129 174.192 319.062 174.192C317.889 174.192 316.971 173.808 316.31 173.04C315.659 172.272 315.334 171.216 315.334 169.872C315.334 168.997 315.473 168.224 315.75 167.552C316.038 166.869 316.443 166.336 316.966 165.952C317.499 165.568 318.123 165.376 318.838 165.376C319.958 165.376 320.817 165.744 321.414 166.48C322.011 167.216 322.31 168.235 322.31 169.536ZM320.854 169.104C320.854 168.272 320.689 167.637 320.358 167.2C320.027 166.763 319.531 166.544 318.87 166.544C317.665 166.544 317.009 167.429 316.902 169.2H320.854V169.104ZM326.949 165.376C327.525 165.376 328.042 165.456 328.501 165.616C328.959 165.776 329.397 166.016 329.813 166.336L329.189 167.264C328.805 167.019 328.437 166.837 328.085 166.72C327.743 166.603 327.381 166.544 326.997 166.544C326.517 166.544 326.138 166.645 325.861 166.848C325.583 167.04 325.445 167.307 325.445 167.648C325.445 167.989 325.573 168.256 325.829 168.448C326.095 168.64 326.57 168.827 327.253 169.008C328.191 169.243 328.89 169.563 329.349 169.968C329.818 170.373 330.053 170.928 330.053 171.632C330.053 172.464 329.727 173.099 329.077 173.536C328.437 173.973 327.653 174.192 326.725 174.192C325.445 174.192 324.383 173.824 323.541 173.088L324.325 172.192C325.039 172.736 325.829 173.008 326.693 173.008C327.247 173.008 327.685 172.896 328.005 172.672C328.335 172.437 328.501 172.123 328.501 171.728C328.501 171.44 328.442 171.211 328.325 171.04C328.207 170.859 328.005 170.704 327.717 170.576C327.429 170.437 327.007 170.293 326.453 170.144C325.557 169.909 324.906 169.595 324.501 169.2C324.106 168.805 323.909 168.304 323.909 167.696C323.909 167.259 324.037 166.864 324.293 166.512C324.559 166.149 324.922 165.872 325.381 165.68C325.85 165.477 326.373 165.376 326.949 165.376ZM334.261 165.376C334.837 165.376 335.354 165.456 335.813 165.616C336.272 165.776 336.709 166.016 337.125 166.336L336.501 167.264C336.117 167.019 335.749 166.837 335.397 166.72C335.056 166.603 334.693 166.544 334.309 166.544C333.829 166.544 333.45 166.645 333.173 166.848C332.896 167.04 332.757 167.307 332.757 167.648C332.757 167.989 332.885 168.256 333.141 168.448C333.408 168.64 333.882 168.827 334.565 169.008C335.504 169.243 336.202 169.563 336.661 169.968C337.13 170.373 337.365 170.928 337.365 171.632C337.365 172.464 337.04 173.099 336.389 173.536C335.749 173.973 334.965 174.192 334.037 174.192C332.757 174.192 331.696 173.824 330.853 173.088L331.637 172.192C332.352 172.736 333.141 173.008 334.005 173.008C334.56 173.008 334.997 172.896 335.317 172.672C335.648 172.437 335.813 172.123 335.813 171.728C335.813 171.44 335.754 171.211 335.637 171.04C335.52 170.859 335.317 170.704 335.029 170.576C334.741 170.437 334.32 170.293 333.765 170.144C332.869 169.909 332.218 169.595 331.813 169.2C331.418 168.805 331.221 168.304 331.221 167.696C331.221 167.259 331.349 166.864 331.605 166.512C331.872 166.149 332.234 165.872 332.693 165.68C333.162 165.477 333.685 165.376 334.261 165.376ZM347.548 165.376C348.626 165.376 349.415 165.76 349.916 166.528C350.418 167.296 350.668 168.379 350.668 169.776C350.668 171.099 350.38 172.165 349.804 172.976C349.228 173.787 348.412 174.192 347.356 174.192C346.418 174.192 345.682 173.872 345.148 173.232V177.232L343.676 177.408V165.568H344.94L345.052 166.704C345.362 166.277 345.735 165.952 346.172 165.728C346.61 165.493 347.068 165.376 347.548 165.376ZM347.004 172.992C348.391 172.992 349.084 171.92 349.084 169.776C349.084 167.621 348.45 166.544 347.18 166.544C346.764 166.544 346.386 166.667 346.044 166.912C345.703 167.157 345.404 167.472 345.148 167.856V171.968C345.362 172.299 345.628 172.555 345.948 172.736C346.268 172.907 346.62 172.992 347.004 172.992ZM359.544 169.536C359.544 169.781 359.534 170.032 359.512 170.288H354.136C354.2 171.216 354.435 171.899 354.84 172.336C355.246 172.773 355.768 172.992 356.408 172.992C356.814 172.992 357.187 172.933 357.528 172.816C357.87 172.699 358.227 172.512 358.6 172.256L359.24 173.136C358.344 173.84 357.363 174.192 356.296 174.192C355.123 174.192 354.206 173.808 353.544 173.04C352.894 172.272 352.568 171.216 352.568 169.872C352.568 168.997 352.707 168.224 352.984 167.552C353.272 166.869 353.678 166.336 354.2 165.952C354.734 165.568 355.358 165.376 356.072 165.376C357.192 165.376 358.051 165.744 358.648 166.48C359.246 167.216 359.544 168.235 359.544 169.536ZM358.088 169.104C358.088 168.272 357.923 167.637 357.592 167.2C357.262 166.763 356.766 166.544 356.104 166.544C354.899 166.544 354.243 167.429 354.136 169.2H358.088V169.104ZM365.063 165.376C366.247 165.376 367.164 165.771 367.815 166.56C368.476 167.349 368.807 168.421 368.807 169.776C368.807 170.651 368.658 171.424 368.359 172.096C368.06 172.757 367.628 173.275 367.063 173.648C366.498 174.011 365.826 174.192 365.047 174.192C363.863 174.192 362.94 173.797 362.279 173.008C361.618 172.219 361.287 171.147 361.287 169.792C361.287 168.917 361.436 168.149 361.735 167.488C362.034 166.816 362.466 166.299 363.031 165.936C363.596 165.563 364.274 165.376 365.063 165.376ZM365.063 166.56C363.602 166.56 362.871 167.637 362.871 169.792C362.871 171.936 363.596 173.008 365.047 173.008C366.498 173.008 367.223 171.931 367.223 169.776C367.223 167.632 366.503 166.56 365.063 166.56ZM375.111 165.376C376.188 165.376 376.977 165.76 377.479 166.528C377.98 167.296 378.231 168.379 378.231 169.776C378.231 171.099 377.943 172.165 377.367 172.976C376.791 173.787 375.975 174.192 374.919 174.192C373.98 174.192 373.244 173.872 372.711 173.232V177.232L371.239 177.408V165.568H372.503L372.615 166.704C372.924 166.277 373.297 165.952 373.735 165.728C374.172 165.493 374.631 165.376 375.111 165.376ZM374.567 172.992C375.953 172.992 376.647 171.92 376.647 169.776C376.647 167.621 376.012 166.544 374.743 166.544C374.327 166.544 373.948 166.667 373.607 166.912C373.265 167.157 372.967 167.472 372.711 167.856V171.968C372.924 172.299 373.191 172.555 373.511 172.736C373.831 172.907 374.183 172.992 374.567 172.992ZM382.419 174.192C381.875 174.192 381.443 174.032 381.123 173.712C380.813 173.381 380.659 172.923 380.659 172.336V162.176L382.131 162V172.304C382.131 172.539 382.168 172.709 382.243 172.816C382.328 172.923 382.467 172.976 382.659 172.976C382.861 172.976 383.043 172.944 383.203 172.88L383.587 173.904C383.235 174.096 382.845 174.192 382.419 174.192ZM391.716 169.536C391.716 169.781 391.705 170.032 391.684 170.288H386.308C386.372 171.216 386.607 171.899 387.012 172.336C387.417 172.773 387.94 172.992 388.58 172.992C388.985 172.992 389.359 172.933 389.7 172.816C390.041 172.699 390.399 172.512 390.772 172.256L391.412 173.136C390.516 173.84 389.535 174.192 388.468 174.192C387.295 174.192 386.377 173.808 385.716 173.04C385.065 172.272 384.74 171.216 384.74 169.872C384.74 168.997 384.879 168.224 385.156 167.552C385.444 166.869 385.849 166.336 386.372 165.952C386.905 165.568 387.529 165.376 388.244 165.376C389.364 165.376 390.223 165.744 390.82 166.48C391.417 167.216 391.716 168.235 391.716 169.536ZM390.26 169.104C390.26 168.272 390.095 167.637 389.764 167.2C389.433 166.763 388.937 166.544 388.276 166.544C387.071 166.544 386.415 167.429 386.308 169.2H390.26V169.104ZM66.776 192.616C66.2213 193 65.592 193.192 64.888 193.192C64.1733 193.192 63.6133 192.989 63.208 192.584C62.8133 192.168 62.616 191.571 62.616 190.792V185.704H61.144V184.568H62.616V182.664L64.088 182.488V184.568H66.088L65.928 185.704H64.088V190.728C64.088 191.165 64.1627 191.485 64.312 191.688C64.472 191.88 64.7333 191.976 65.096 191.976C65.4267 191.976 65.8 191.864 66.216 191.64L66.776 192.616ZM72.2693 184.376C73.0373 184.376 73.6346 184.605 74.0613 185.064C74.4986 185.523 74.7173 186.152 74.7173 186.952V193H73.2453V187.16C73.2453 186.563 73.1279 186.141 72.8933 185.896C72.6693 185.651 72.3386 185.528 71.9013 185.528C71.4639 185.528 71.0746 185.656 70.7333 185.912C70.3919 186.168 70.0719 186.531 69.7733 187V193H68.3013V181.192L69.7733 181.032V185.736C70.4346 184.829 71.2666 184.376 72.2693 184.376ZM83.3563 191.032C83.3563 191.373 83.4149 191.629 83.5323 191.8C83.6496 191.96 83.8256 192.083 84.0603 192.168L83.7243 193.192C83.2869 193.139 82.9349 193.016 82.6683 192.824C82.4016 192.632 82.2043 192.333 82.0763 191.928C81.5109 192.771 80.6736 193.192 79.5643 193.192C78.7323 193.192 78.0763 192.957 77.5963 192.488C77.1163 192.019 76.8763 191.405 76.8763 190.648C76.8763 189.752 77.1963 189.064 77.8363 188.584C78.4869 188.104 79.4043 187.864 80.5883 187.864H81.8843V187.24C81.8843 186.643 81.7403 186.216 81.4523 185.96C81.1643 185.704 80.7216 185.576 80.1243 185.576C79.5056 185.576 78.7483 185.725 77.8523 186.024L77.4843 184.952C78.5296 184.568 79.5003 184.376 80.3963 184.376C81.3883 184.376 82.1296 184.621 82.6203 185.112C83.1109 185.592 83.3563 186.28 83.3563 187.176V191.032ZM79.9003 192.088C80.7429 192.088 81.4043 191.651 81.8843 190.776V188.84H80.7803C79.2229 188.84 78.4443 189.416 78.4443 190.568C78.4443 191.069 78.5669 191.448 78.8123 191.704C79.0576 191.96 79.4203 192.088 79.9003 192.088ZM90.6354 192.616C90.0807 193 89.4514 193.192 88.7474 193.192C88.0327 193.192 87.4727 192.989 87.0674 192.584C86.6727 192.168 86.4754 191.571 86.4754 190.792V185.704H85.0034V184.568H86.4754V182.664L87.9474 182.488V184.568H89.9474L89.7874 185.704H87.9474V190.728C87.9474 191.165 88.022 191.485 88.1714 191.688C88.3314 191.88 88.5927 191.976 88.9554 191.976C89.286 191.976 89.6594 191.864 90.0754 191.64L90.6354 192.616ZM100.651 192.616C100.096 193 99.467 193.192 98.763 193.192C98.0483 193.192 97.4883 192.989 97.083 192.584C96.6883 192.168 96.491 191.571 96.491 190.792V185.704H95.019V184.568H96.491V182.664L97.963 182.488V184.568H99.963L99.803 185.704H97.963V190.728C97.963 191.165 98.0377 191.485 98.187 191.688C98.347 191.88 98.6083 191.976 98.971 191.976C99.3017 191.976 99.675 191.864 100.091 191.64L100.651 192.616ZM106.144 184.376C106.912 184.376 107.51 184.605 107.936 185.064C108.374 185.523 108.592 186.152 108.592 186.952V193H107.12V187.16C107.12 186.563 107.003 186.141 106.768 185.896C106.544 185.651 106.214 185.528 105.776 185.528C105.339 185.528 104.95 185.656 104.608 185.912C104.267 186.168 103.947 186.531 103.648 187V193H102.176V181.192L103.648 181.032V185.736C104.31 184.829 105.142 184.376 106.144 184.376ZM117.919 188.536C117.919 188.781 117.909 189.032 117.887 189.288H112.511C112.575 190.216 112.81 190.899 113.215 191.336C113.621 191.773 114.143 191.992 114.783 191.992C115.189 191.992 115.562 191.933 115.903 191.816C116.245 191.699 116.602 191.512 116.975 191.256L117.615 192.136C116.719 192.84 115.738 193.192 114.671 193.192C113.498 193.192 112.581 192.808 111.919 192.04C111.269 191.272 110.943 190.216 110.943 188.872C110.943 187.997 111.082 187.224 111.359 186.552C111.647 185.869 112.053 185.336 112.575 184.952C113.109 184.568 113.733 184.376 114.447 184.376C115.567 184.376 116.426 184.744 117.023 185.48C117.621 186.216 117.919 187.235 117.919 188.536ZM116.463 188.104C116.463 187.272 116.298 186.637 115.967 186.2C115.637 185.763 115.141 185.544 114.479 185.544C113.274 185.544 112.618 186.429 112.511 188.2H116.463V188.104ZM123.584 193.048C123.253 194.029 122.789 194.803 122.192 195.368C121.605 195.944 120.762 196.291 119.664 196.408L119.504 195.256C120.058 195.16 120.501 195.021 120.832 194.84C121.162 194.659 121.424 194.424 121.616 194.136C121.818 193.859 122.005 193.48 122.176 193H121.68L118.848 184.568H120.416L122.672 191.928L124.88 184.568H126.4L123.584 193.048ZM138.845 181.176V193H137.549L137.405 191.832C137.128 192.259 136.781 192.595 136.365 192.84C135.949 193.075 135.485 193.192 134.973 193.192C133.97 193.192 133.186 192.797 132.621 192.008C132.066 191.219 131.789 190.157 131.789 188.824C131.789 187.96 131.922 187.192 132.189 186.52C132.456 185.848 132.84 185.325 133.341 184.952C133.842 184.568 134.429 184.376 135.101 184.376C135.965 184.376 136.722 184.723 137.373 185.416V181L138.845 181.176ZM135.293 192.024C135.741 192.024 136.125 191.923 136.445 191.72C136.765 191.507 137.074 191.192 137.373 190.776V186.648C137.096 186.285 136.797 186.013 136.477 185.832C136.168 185.64 135.816 185.544 135.421 185.544C134.77 185.544 134.264 185.816 133.901 186.36C133.549 186.904 133.373 187.715 133.373 188.792C133.373 189.88 133.538 190.691 133.869 191.224C134.2 191.757 134.674 192.024 135.293 192.024ZM145.047 184.376C146.231 184.376 147.149 184.771 147.799 185.56C148.461 186.349 148.791 187.421 148.791 188.776C148.791 189.651 148.642 190.424 148.343 191.096C148.045 191.757 147.613 192.275 147.047 192.648C146.482 193.011 145.81 193.192 145.031 193.192C143.847 193.192 142.925 192.797 142.263 192.008C141.602 191.219 141.271 190.147 141.271 188.792C141.271 187.917 141.421 187.149 141.719 186.488C142.018 185.816 142.45 185.299 143.015 184.936C143.581 184.563 144.258 184.376 145.047 184.376ZM145.047 185.56C143.586 185.56 142.855 186.637 142.855 188.792C142.855 190.936 143.581 192.008 145.031 192.008C146.482 192.008 147.207 190.931 147.207 188.776C147.207 186.632 146.487 185.56 145.047 185.56ZM155.191 184.376C155.959 184.376 156.556 184.605 156.983 185.064C157.42 185.523 157.639 186.152 157.639 186.952V193H156.167V187.16C156.167 186.563 156.055 186.141 155.831 185.896C155.607 185.651 155.276 185.528 154.839 185.528C154.391 185.528 153.996 185.656 153.655 185.912C153.314 186.168 152.994 186.536 152.695 187.016V193H151.223V184.568H152.487L152.615 185.816C152.914 185.368 153.282 185.016 153.719 184.76C154.167 184.504 154.658 184.376 155.191 184.376ZM160.122 186.168L159.882 181.976H161.466L161.226 186.168H160.122ZM168.354 192.616C167.799 193 167.17 193.192 166.466 193.192C165.751 193.192 165.191 192.989 164.786 192.584C164.391 192.168 164.194 191.571 164.194 190.792V185.704H162.722V184.568H164.194V182.664L165.666 182.488V184.568H167.666L167.506 185.704H165.666V190.728C165.666 191.165 165.741 191.485 165.89 191.688C166.05 191.88 166.311 191.976 166.674 191.976C167.005 191.976 167.378 191.864 167.794 191.64L168.354 192.616ZM175.794 193.192C175.25 193.192 174.818 193.032 174.498 192.712C174.188 192.381 174.034 191.923 174.034 191.336V181.176L175.506 181V191.304C175.506 191.539 175.543 191.709 175.618 191.816C175.703 191.923 175.842 191.976 176.034 191.976C176.236 191.976 176.418 191.944 176.578 191.88L176.962 192.904C176.61 193.096 176.22 193.192 175.794 193.192ZM180.273 184.568V193H178.801V184.568H180.273ZM179.521 180.52C179.831 180.52 180.081 180.616 180.273 180.808C180.465 181 180.561 181.24 180.561 181.528C180.561 181.816 180.465 182.056 180.273 182.248C180.081 182.429 179.831 182.52 179.521 182.52C179.223 182.52 178.977 182.429 178.785 182.248C178.593 182.056 178.497 181.816 178.497 181.528C178.497 181.24 178.593 181 178.785 180.808C178.977 180.616 179.223 180.52 179.521 180.52ZM184.789 181V193H183.317V181.176L184.789 181ZM189.637 184.568L186.533 188.296L189.989 193H188.229L184.885 188.392L187.989 184.568H189.637ZM197.732 188.536C197.732 188.781 197.721 189.032 197.7 189.288H192.324C192.388 190.216 192.622 190.899 193.028 191.336C193.433 191.773 193.956 191.992 194.596 191.992C195.001 191.992 195.374 191.933 195.716 191.816C196.057 191.699 196.414 191.512 196.788 191.256L197.428 192.136C196.532 192.84 195.55 193.192 194.484 193.192C193.31 193.192 192.393 192.808 191.732 192.04C191.081 191.272 190.756 190.216 190.756 188.872C190.756 187.997 190.894 187.224 191.172 186.552C191.46 185.869 191.865 185.336 192.388 184.952C192.921 184.568 193.545 184.376 194.26 184.376C195.38 184.376 196.238 184.744 196.836 185.48C197.433 186.216 197.732 187.235 197.732 188.536ZM196.276 188.104C196.276 187.272 196.11 186.637 195.78 186.2C195.449 185.763 194.953 185.544 194.292 185.544C193.086 185.544 192.43 186.429 192.324 188.2H196.276V188.104ZM200.31 190.968C200.63 190.968 200.897 191.075 201.11 191.288C201.324 191.501 201.43 191.763 201.43 192.072C201.43 192.381 201.324 192.648 201.11 192.872C200.897 193.085 200.63 193.192 200.31 193.192C200.001 193.192 199.74 193.085 199.526 192.872C199.313 192.648 199.206 192.381 199.206 192.072C199.206 191.763 199.313 191.501 199.526 191.288C199.74 191.075 200.001 190.968 200.31 190.968ZM65.466 223.5C65.1953 223.5 64.9573 223.458 64.752 223.374C64.556 223.281 64.318 223.145 64.038 222.968C63.87 222.856 63.73 222.772 63.618 222.716C63.506 222.66 63.394 222.632 63.282 222.632C62.918 222.632 62.582 222.884 62.274 223.388L61.49 222.982C61.9567 222.077 62.596 221.624 63.408 221.624C63.6693 221.624 63.898 221.666 64.094 221.75C64.29 221.834 64.5187 221.96 64.78 222.128C64.9667 222.249 65.116 222.338 65.228 222.394C65.3493 222.45 65.4707 222.478 65.592 222.478C65.788 222.478 65.97 222.417 66.138 222.296C66.306 222.165 66.4507 222.002 66.572 221.806L67.342 222.226C66.9033 223.075 66.278 223.5 65.466 223.5ZM82.755 217.354L80.795 227H79.087L77.309 218.922L75.517 227H73.851L71.891 217.354H73.193L74.747 225.838L76.609 217.354H78.023L79.927 225.838L81.537 217.354H82.755ZM85.7254 219.622V227H84.4374V219.622H85.7254ZM85.0674 216.08C85.3381 216.08 85.5574 216.164 85.7254 216.332C85.8934 216.5 85.9774 216.71 85.9774 216.962C85.9774 217.214 85.8934 217.424 85.7254 217.592C85.5574 217.751 85.3381 217.83 85.0674 217.83C84.8061 217.83 84.5914 217.751 84.4234 217.592C84.2554 217.424 84.1714 217.214 84.1714 216.962C84.1714 216.71 84.2554 216.5 84.4234 216.332C84.5914 216.164 84.8061 216.08 85.0674 216.08ZM89.8586 227.168C89.3826 227.168 89.0046 227.028 88.7246 226.748C88.4539 226.459 88.3186 226.057 88.3186 225.544V216.654L89.6066 216.5V225.516C89.6066 225.721 89.6393 225.871 89.7046 225.964C89.7793 226.057 89.9006 226.104 90.0686 226.104C90.2459 226.104 90.4046 226.076 90.5446 226.02L90.8806 226.916C90.5726 227.084 90.2319 227.168 89.8586 227.168ZM93.9602 227.168C93.4842 227.168 93.1062 227.028 92.8262 226.748C92.5555 226.459 92.4202 226.057 92.4202 225.544V216.654L93.7082 216.5V225.516C93.7082 225.721 93.7408 225.871 93.8062 225.964C93.8808 226.057 94.0022 226.104 94.1702 226.104C94.3475 226.104 94.5062 226.076 94.6462 226.02L94.9822 226.916C94.6742 227.084 94.3335 227.168 93.9602 227.168ZM103.195 222.912H101.697V227H100.367V217.354H102.901C104.105 217.354 105.015 217.583 105.631 218.04C106.256 218.497 106.569 219.179 106.569 220.084C106.569 220.756 106.396 221.302 106.051 221.722C105.705 222.142 105.183 222.459 104.483 222.674L107.087 227H105.505L103.195 222.912ZM103.041 221.89C103.741 221.89 104.268 221.75 104.623 221.47C104.977 221.181 105.155 220.719 105.155 220.084C105.155 219.487 104.973 219.057 104.609 218.796C104.254 218.525 103.68 218.39 102.887 218.39H101.697V221.89H103.041ZM111.34 219.454C112.376 219.454 113.179 219.799 113.748 220.49C114.327 221.181 114.616 222.119 114.616 223.304C114.616 224.069 114.486 224.746 114.224 225.334C113.963 225.913 113.585 226.365 113.09 226.692C112.596 227.009 112.008 227.168 111.326 227.168C110.29 227.168 109.483 226.823 108.904 226.132C108.326 225.441 108.036 224.503 108.036 223.318C108.036 222.553 108.167 221.881 108.428 221.302C108.69 220.714 109.068 220.261 109.562 219.944C110.057 219.617 110.65 219.454 111.34 219.454ZM111.34 220.49C110.062 220.49 109.422 221.433 109.422 223.318C109.422 225.194 110.057 226.132 111.326 226.132C112.596 226.132 113.23 225.189 113.23 223.304C113.23 221.428 112.6 220.49 111.34 220.49ZM122.694 219.958C122.414 220.051 122.106 220.112 121.77 220.14C121.434 220.168 121.023 220.182 120.538 220.182C121.406 220.574 121.84 221.195 121.84 222.044C121.84 222.781 121.588 223.383 121.084 223.85C120.58 224.317 119.894 224.55 119.026 224.55C118.69 224.55 118.377 224.503 118.088 224.41C117.976 224.485 117.887 224.587 117.822 224.718C117.757 224.839 117.724 224.965 117.724 225.096C117.724 225.497 118.046 225.698 118.69 225.698H119.866C120.361 225.698 120.799 225.787 121.182 225.964C121.565 226.141 121.859 226.384 122.064 226.692C122.279 227 122.386 227.35 122.386 227.742C122.386 228.461 122.092 229.011 121.504 229.394C120.916 229.786 120.057 229.982 118.928 229.982C118.135 229.982 117.505 229.898 117.038 229.73C116.581 229.571 116.254 229.329 116.058 229.002C115.862 228.675 115.764 228.255 115.764 227.742H116.926C116.926 228.041 116.982 228.274 117.094 228.442C117.206 228.619 117.407 228.75 117.696 228.834C117.985 228.927 118.396 228.974 118.928 228.974C119.703 228.974 120.253 228.876 120.58 228.68C120.916 228.493 121.084 228.209 121.084 227.826C121.084 227.481 120.953 227.219 120.692 227.042C120.431 226.865 120.067 226.776 119.6 226.776H118.438C117.813 226.776 117.337 226.645 117.01 226.384C116.693 226.113 116.534 225.777 116.534 225.376C116.534 225.133 116.604 224.9 116.744 224.676C116.884 224.452 117.085 224.251 117.346 224.074C116.917 223.85 116.599 223.575 116.394 223.248C116.198 222.912 116.1 222.506 116.1 222.03C116.1 221.535 116.221 221.092 116.464 220.7C116.716 220.308 117.057 220.005 117.486 219.79C117.925 219.566 118.41 219.454 118.942 219.454C119.521 219.463 120.006 219.445 120.398 219.398C120.79 219.342 121.112 219.272 121.364 219.188C121.625 219.095 121.943 218.964 122.316 218.796L122.694 219.958ZM118.942 220.378C118.457 220.378 118.079 220.532 117.808 220.84C117.547 221.139 117.416 221.535 117.416 222.03C117.416 222.534 117.551 222.94 117.822 223.248C118.093 223.547 118.475 223.696 118.97 223.696C119.474 223.696 119.857 223.551 120.118 223.262C120.389 222.963 120.524 222.548 120.524 222.016C120.524 220.924 119.997 220.378 118.942 220.378ZM129.371 223.094C129.371 223.309 129.361 223.528 129.343 223.752H124.639C124.695 224.564 124.9 225.161 125.255 225.544C125.609 225.927 126.067 226.118 126.627 226.118C126.981 226.118 127.308 226.067 127.607 225.964C127.905 225.861 128.218 225.698 128.545 225.474L129.105 226.244C128.321 226.86 127.462 227.168 126.529 227.168C125.502 227.168 124.699 226.832 124.121 226.16C123.551 225.488 123.267 224.564 123.267 223.388C123.267 222.623 123.388 221.946 123.631 221.358C123.883 220.761 124.237 220.294 124.695 219.958C125.161 219.622 125.707 219.454 126.333 219.454C127.313 219.454 128.064 219.776 128.587 220.42C129.109 221.064 129.371 221.955 129.371 223.094ZM128.097 222.716C128.097 221.988 127.952 221.433 127.663 221.05C127.373 220.667 126.939 220.476 126.361 220.476C125.306 220.476 124.732 221.251 124.639 222.8H128.097V222.716ZM134.634 219.454C134.895 219.454 135.138 219.482 135.362 219.538L135.124 220.798C134.9 220.742 134.685 220.714 134.48 220.714C134.022 220.714 133.654 220.882 133.374 221.218C133.094 221.554 132.874 222.077 132.716 222.786V227H131.428V219.622H132.534L132.66 221.12C132.856 220.569 133.122 220.154 133.458 219.874C133.794 219.594 134.186 219.454 134.634 219.454ZM138.625 219.454C139.129 219.454 139.582 219.524 139.983 219.664C140.384 219.804 140.767 220.014 141.131 220.294L140.585 221.106C140.249 220.891 139.927 220.733 139.619 220.63C139.32 220.527 139.003 220.476 138.667 220.476C138.247 220.476 137.916 220.565 137.673 220.742C137.43 220.91 137.309 221.143 137.309 221.442C137.309 221.741 137.421 221.974 137.645 222.142C137.878 222.31 138.294 222.473 138.891 222.632C139.712 222.837 140.324 223.117 140.725 223.472C141.136 223.827 141.341 224.312 141.341 224.928C141.341 225.656 141.056 226.211 140.487 226.594C139.927 226.977 139.241 227.168 138.429 227.168C137.309 227.168 136.38 226.846 135.643 226.202L136.329 225.418C136.954 225.894 137.645 226.132 138.401 226.132C138.886 226.132 139.269 226.034 139.549 225.838C139.838 225.633 139.983 225.357 139.983 225.012C139.983 224.76 139.932 224.559 139.829 224.41C139.726 224.251 139.549 224.116 139.297 224.004C139.045 223.883 138.676 223.757 138.191 223.626C137.407 223.421 136.838 223.145 136.483 222.8C136.138 222.455 135.965 222.016 135.965 221.484C135.965 221.101 136.077 220.756 136.301 220.448C136.534 220.131 136.852 219.888 137.253 219.72C137.664 219.543 138.121 219.454 138.625 219.454Z" fill="white"/>
<path d="M84.348 109V93.244H72.44V109H64.796V73.016H72.44V87.212H84.348V73.016H91.992V109H84.348ZM120.485 101.356C120.485 102.431 120.641 103.228 120.953 103.748C121.265 104.233 121.785 104.597 122.513 104.84L120.953 109.728C119.324 109.589 117.989 109.208 116.949 108.584C115.944 107.96 115.164 106.989 114.609 105.672C112.806 108.445 110.05 109.832 106.341 109.832C103.602 109.832 101.418 109.052 99.7892 107.492C98.1945 105.897 97.3972 103.835 97.3972 101.304C97.3972 98.288 98.4892 95.9827 100.673 94.388C102.857 92.7933 105.994 91.996 110.085 91.996H113.257V90.644C113.257 88.9453 112.876 87.7667 112.113 87.108C111.35 86.4493 110.085 86.12 108.317 86.12C106.376 86.12 103.949 86.6053 101.037 87.576L99.3732 82.636C102.805 81.284 106.202 80.608 109.565 80.608C113.309 80.608 116.065 81.4227 117.833 83.052C119.601 84.6467 120.485 87.0387 120.485 90.228V101.356ZM108.369 104.528C110.449 104.528 112.078 103.505 113.257 101.46V96.208H110.813C106.826 96.208 104.833 97.6987 104.833 100.68C104.833 101.893 105.128 102.847 105.717 103.54C106.341 104.199 107.225 104.528 108.369 104.528ZM142.111 80.66C142.943 80.66 143.861 80.7987 144.867 81.076L143.619 88.2C142.648 87.9573 141.833 87.836 141.175 87.836C139.545 87.836 138.28 88.408 137.379 89.552C136.477 90.696 135.767 92.4293 135.247 94.752V109H127.863V81.44H134.259L134.935 86.796C135.593 84.8547 136.547 83.3467 137.795 82.272C139.077 81.1973 140.516 80.66 142.111 80.66ZM170.824 70.468V109H164.324L163.908 105.62C161.967 108.428 159.332 109.832 156.004 109.832C152.607 109.832 150.007 108.532 148.204 105.932C146.436 103.297 145.552 99.7267 145.552 95.22C145.552 92.3773 146.003 89.864 146.904 87.68C147.84 85.4613 149.158 83.728 150.856 82.48C152.555 81.232 154.514 80.608 156.732 80.608C159.298 80.608 161.534 81.5267 163.44 83.364V69.636L170.824 70.468ZM158.188 104.32C159.263 104.32 160.216 104.06 161.048 103.54C161.88 102.985 162.678 102.136 163.44 100.992V88.668C162.712 87.8013 161.967 87.16 161.204 86.744C160.476 86.2933 159.627 86.068 158.656 86.068C156.958 86.068 155.623 86.8133 154.652 88.304C153.716 89.7947 153.248 92.1 153.248 95.22C153.248 98.5133 153.664 100.853 154.496 102.24C155.363 103.627 156.594 104.32 158.188 104.32ZM230.197 73.016L223.905 109H213.973L208.981 80.868L203.729 109H194.057L187.817 73.016H195.461L199.569 103.072L205.029 73.016H213.089L218.341 103.072L222.969 73.016H230.197ZM245.642 80.608C249.768 80.608 252.992 81.908 255.314 84.508C257.637 87.0733 258.798 90.644 258.798 95.22C258.798 98.132 258.261 100.697 257.186 102.916C256.146 105.1 254.621 106.799 252.61 108.012C250.634 109.225 248.294 109.832 245.59 109.832C241.465 109.832 238.224 108.549 235.866 105.984C233.544 103.384 232.382 99.796 232.382 95.22C232.382 92.308 232.902 89.76 233.942 87.576C235.017 85.3573 236.542 83.6413 238.518 82.428C240.529 81.2147 242.904 80.608 245.642 80.608ZM245.642 86.12C243.77 86.12 242.366 86.8653 241.43 88.356C240.529 89.812 240.078 92.1 240.078 95.22C240.078 98.34 240.529 100.645 241.43 102.136C242.366 103.592 243.753 104.32 245.59 104.32C247.428 104.32 248.797 103.592 249.698 102.136C250.634 100.645 251.102 98.34 251.102 95.22C251.102 92.1 250.652 89.812 249.75 88.356C248.849 86.8653 247.48 86.12 245.642 86.12ZM278.661 80.66C279.493 80.66 280.412 80.7987 281.417 81.076L280.169 88.2C279.199 87.9573 278.384 87.836 277.725 87.836C276.096 87.836 274.831 88.408 273.929 89.552C273.028 90.696 272.317 92.4293 271.797 94.752V109H264.413V81.44H270.809L271.485 86.796C272.144 84.8547 273.097 83.3467 274.345 82.272C275.628 81.1973 277.067 80.66 278.661 80.66ZM292.465 69.636V109H285.081V70.468L292.465 69.636ZM309.209 81.44L300.421 93.556L309.989 109H301.617L292.725 93.92L301.565 81.44H309.209Z" fill="white"/>
<path d="M42.768 11.184C45.368 11.184 47.6213 11.5653 49.528 12.328C51.4693 13.056 53.2547 14.1827 54.884 15.708L51.244 19.92C49.9613 18.88 48.6787 18.1173 47.396 17.632C46.1133 17.1467 44.744 16.904 43.288 16.904C41.6933 16.904 40.4107 17.2507 39.44 17.944C38.504 18.6027 38.036 19.556 38.036 20.804C38.036 21.6707 38.2267 22.3813 38.608 22.936C39.024 23.4907 39.7347 24.0107 40.74 24.496C41.7453 24.9813 43.2533 25.536 45.264 26.16C48.8347 27.304 51.504 28.7253 53.272 30.424C55.04 32.088 55.924 34.48 55.924 37.6C55.924 39.8187 55.3693 41.7773 54.26 43.476C53.1507 45.14 51.5387 46.4573 49.424 47.428C47.3093 48.364 44.8307 48.832 41.988 48.832C39.1453 48.832 36.6147 48.3813 34.396 47.48C32.1773 46.5787 30.2707 45.348 28.676 43.788L32.576 39.472C33.9627 40.6507 35.4013 41.552 36.892 42.176C38.3827 42.7653 40.012 43.06 41.78 43.06C43.652 43.06 45.1427 42.6267 46.252 41.76C47.396 40.8933 47.968 39.68 47.968 38.12C47.968 37.1493 47.76 36.352 47.344 35.728C46.9627 35.0693 46.2867 34.48 45.316 33.96C44.3453 33.44 42.9413 32.9027 41.104 32.348C37.1867 31.1347 34.3787 29.6787 32.68 27.98C31.016 26.2813 30.184 24.0627 30.184 21.324C30.184 19.3133 30.7213 17.5453 31.796 16.02C32.8707 14.46 34.3613 13.264 36.268 12.432C38.1747 11.6 40.3413 11.184 42.768 11.184ZM84.3383 33.596C84.3383 33.9427 84.2863 34.896 84.1823 36.456H66.9703C67.213 38.952 67.889 40.72 68.9983 41.76C70.1077 42.8 71.6157 43.32 73.5223 43.32C74.701 43.32 75.8103 43.1293 76.8503 42.748C77.8903 42.3667 79.017 41.76 80.2303 40.928L83.2983 45.088C80.213 47.584 76.729 48.832 72.8463 48.832C68.513 48.832 65.185 47.532 62.8623 44.932C60.5397 42.332 59.3783 38.8133 59.3783 34.376C59.3783 31.568 59.8637 29.0547 60.8343 26.836C61.8397 24.5827 63.2783 22.8147 65.1503 21.532C67.057 20.2493 69.3103 19.608 71.9103 19.608C75.8277 19.608 78.8783 20.8387 81.0623 23.3C83.2463 25.7613 84.3383 29.1933 84.3383 33.596ZM77.0063 31.516C77.0063 26.94 75.3597 24.652 72.0663 24.652C70.541 24.652 69.345 25.224 68.4783 26.368C67.6463 27.4773 67.1437 29.2973 66.9703 31.828H77.0063V31.516ZM112.979 33.596C112.979 33.9427 112.927 34.896 112.823 36.456H95.611C95.8536 38.952 96.5296 40.72 97.639 41.76C98.7483 42.8 100.256 43.32 102.163 43.32C103.342 43.32 104.451 43.1293 105.491 42.748C106.531 42.3667 107.658 41.76 108.871 40.928L111.939 45.088C108.854 47.584 105.37 48.832 101.487 48.832C97.1536 48.832 93.8256 47.532 91.503 44.932C89.1803 42.332 88.019 38.8133 88.019 34.376C88.019 31.568 88.5043 29.0547 89.475 26.836C90.4803 24.5827 91.919 22.8147 93.791 21.532C95.6976 20.2493 97.951 19.608 100.551 19.608C104.468 19.608 107.519 20.8387 109.703 23.3C111.887 25.7613 112.979 29.1933 112.979 33.596ZM105.647 31.516C105.647 26.94 104 24.652 100.707 24.652C99.1816 24.652 97.9856 25.224 97.119 26.368C96.287 27.4773 95.7843 29.2973 95.611 31.828H105.647V31.516ZM157.903 12.016L146.359 34.428V48H138.715V34.48L127.171 12.016H135.543L142.719 28.344L149.843 12.016H157.903ZM169.58 19.608C173.705 19.608 176.929 20.908 179.252 23.508C181.574 26.0733 182.736 29.644 182.736 34.22C182.736 37.132 182.198 39.6973 181.124 41.916C180.084 44.1 178.558 45.7987 176.548 47.012C174.572 48.2253 172.232 48.832 169.528 48.832C165.402 48.832 162.161 47.5493 159.804 44.984C157.481 42.384 156.32 38.796 156.32 34.22C156.32 31.308 156.84 28.76 157.88 26.576C158.954 24.3573 160.48 22.6413 162.456 21.428C164.466 20.2147 166.841 19.608 169.58 19.608ZM169.58 25.12C167.708 25.12 166.304 25.8653 165.368 27.356C164.466 28.812 164.016 31.1 164.016 34.22C164.016 37.34 164.466 39.6453 165.368 41.136C166.304 42.592 167.69 43.32 169.528 43.32C171.365 43.32 172.734 42.592 173.636 41.136C174.572 39.6453 175.04 37.34 175.04 34.22C175.04 31.1 174.589 28.812 173.688 27.356C172.786 25.8653 171.417 25.12 169.58 25.12ZM210.919 48H204.523L204.159 44.308C203.188 45.8333 202.01 46.9773 200.623 47.74C199.236 48.468 197.624 48.832 195.787 48.832C193.291 48.832 191.384 48.0867 190.067 46.596C188.75 45.0707 188.091 42.956 188.091 40.252V20.44H195.475V39.316C195.475 40.772 195.718 41.812 196.203 42.436C196.688 43.0253 197.451 43.32 198.491 43.32C200.467 43.32 202.148 42.124 203.535 39.732V20.44H210.919V48ZM232.458 19.66C233.29 19.66 234.209 19.7987 235.214 20.076L233.966 27.2C232.996 26.9573 232.181 26.836 231.522 26.836C229.893 26.836 228.628 27.408 227.726 28.552C226.825 29.696 226.114 31.4293 225.594 33.752V48H218.21V20.44H224.606L225.282 25.796C225.941 23.8547 226.894 22.3467 228.142 21.272C229.425 20.1973 230.864 19.66 232.458 19.66Z" fill="white"/>
</svg>
