<svg width="152" height="24" viewBox="0 0 152 24" fill="none" xmlns="http://www.w3.org/2000/svg">
<path d="M10.5003 16C10.5003 15.1716 11.1719 14.5 12.0003 14.5C12.8287 14.5 13.5003 15.1716 13.5003 16C13.5003 16.8284 12.8287 17.5 12.0003 17.5C11.1719 17.5 10.5003 16.8284 10.5003 16Z" fill="#5055BE"/>
<path fill-rule="evenodd" clip-rule="evenodd" d="M7.62196 10.5971L7.30652 7.75817C7.26607 7.39419 7.26607 7.02685 7.30652 6.66288L7.32928 6.45798C7.57077 4.28459 9.27937 2.56493 11.4512 2.30943C11.816 2.26651 12.1846 2.26651 12.5494 2.30943C14.7212 2.56493 16.4298 4.28459 16.6713 6.45798L16.694 6.66288C16.7345 7.02685 16.7345 7.39419 16.694 7.75817L16.3786 10.5971L17.0652 10.652C18.1479 10.7384 19.032 11.5523 19.2076 12.6242C19.5736 14.8598 19.5736 17.1402 19.2076 19.3758C19.032 20.4477 18.1479 21.2616 17.0652 21.348L15.5691 21.4675C13.1937 21.6571 10.807 21.6571 8.43159 21.4675L6.93546 21.348C5.85273 21.2616 4.96862 20.4477 4.79311 19.3758C4.42704 17.1402 4.42704 14.8598 4.79311 12.6242C4.96862 11.5523 5.85273 10.7384 6.93546 10.652L7.62196 10.5971ZM11.6264 3.79915C11.8748 3.76993 12.1258 3.76993 12.3741 3.79915C13.8528 3.97311 15.016 5.14391 15.1805 6.62363L15.2032 6.82852C15.2314 7.08241 15.2314 7.33864 15.2032 7.59252L14.8821 10.483C12.9629 10.3594 11.0377 10.3594 9.1185 10.483L8.79734 7.59252C8.76913 7.33864 8.76913 7.08241 8.79734 6.82852L8.82011 6.62363C8.98452 5.14391 10.1478 3.97311 11.6264 3.79915ZM15.4497 12.0278C13.1538 11.8445 10.8469 11.8445 8.55096 12.0278L7.05482 12.1472C6.6599 12.1787 6.33742 12.4756 6.2734 12.8666C5.93361 14.9417 5.93361 17.0583 6.2734 19.1334C6.33742 19.5244 6.6599 19.8213 7.05482 19.8528L8.55095 19.9722C10.8469 20.1555 13.1538 20.1555 15.4497 19.9722L16.9458 19.8528C17.3408 19.8213 17.6632 19.5244 17.7273 19.1334C18.0671 17.0583 18.0671 14.9417 17.7273 12.8666C17.6632 12.4756 17.3408 12.1787 16.9458 12.1472L15.4497 12.0278Z" fill="#5055BE"/>
<path d="M43.36 14.384C43.36 15.1307 43.2 15.7973 42.88 16.384C42.5707 16.96 42.1013 17.4133 41.472 17.744C40.8533 18.0747 40.1067 18.24 39.232 18.24C37.9093 18.24 36.896 17.8933 36.192 17.2C35.488 16.496 35.136 15.5573 35.136 14.384V6.944H37.248V14.272C37.248 15.0507 37.408 15.632 37.728 16.016C38.0587 16.4 38.56 16.592 39.232 16.592C39.9147 16.592 40.416 16.4 40.736 16.016C41.0667 15.632 41.232 15.0507 41.232 14.272V6.944H43.36V14.384ZM48.3259 9.296C49.4672 9.296 50.4699 9.632 51.3339 10.304L50.5339 11.504C49.8085 11.0453 49.0992 10.816 48.4059 10.816C48.0005 10.816 47.6859 10.896 47.4619 11.056C47.2379 11.2053 47.1259 11.408 47.1259 11.664C47.1259 11.856 47.1739 12.016 47.2699 12.144C47.3659 12.272 47.5365 12.3947 47.7819 12.512C48.0379 12.6187 48.4112 12.7413 48.9019 12.88C49.8192 13.1253 50.4965 13.4507 50.9339 13.856C51.3819 14.2613 51.6059 14.8267 51.6059 15.552C51.6059 16.3947 51.2645 17.056 50.5819 17.536C49.8992 18.0053 49.0512 18.24 48.0379 18.24C47.3445 18.24 46.7099 18.1333 46.1339 17.92C45.5685 17.7067 45.0779 17.4133 44.6619 17.04L45.6859 15.888C46.4219 16.4427 47.1899 16.72 47.9899 16.72C48.4485 16.72 48.8112 16.6293 49.0779 16.448C49.3552 16.2667 49.4939 16.016 49.4939 15.696C49.4939 15.4507 49.4405 15.2587 49.3339 15.12C49.2379 14.9707 49.0565 14.8427 48.7899 14.736C48.5339 14.6187 48.1285 14.48 47.5739 14.32C46.7099 14.0853 46.0752 13.76 45.6699 13.344C45.2645 12.9173 45.0619 12.3893 45.0619 11.76C45.0619 11.2907 45.1952 10.8693 45.4619 10.496C45.7392 10.1227 46.1232 9.82933 46.6139 9.616C47.1152 9.40267 47.6859 9.296 48.3259 9.296ZM60.2073 13.568C60.2073 13.6747 60.1913 13.952 60.1593 14.4H54.8473C54.9113 15.2213 55.1246 15.808 55.4873 16.16C55.8499 16.512 56.3299 16.688 56.9273 16.688C57.3006 16.688 57.6526 16.6293 57.9833 16.512C58.3139 16.384 58.6659 16.192 59.0393 15.936L59.8873 17.104C58.9486 17.8613 57.9033 18.24 56.7513 18.24C55.4606 18.24 54.4633 17.8453 53.7593 17.056C53.0659 16.2667 52.7193 15.1893 52.7193 13.824C52.7193 12.96 52.8686 12.1867 53.1673 11.504C53.4659 10.8107 53.8979 10.272 54.4633 9.888C55.0286 9.49333 55.7006 9.296 56.4793 9.296C57.6633 9.296 58.5806 9.67467 59.2313 10.432C59.8819 11.1787 60.2073 12.224 60.2073 13.568ZM58.1753 12.976C58.1753 11.4933 57.6259 10.752 56.5273 10.752C56.0259 10.752 55.6313 10.9387 55.3433 11.312C55.0659 11.6747 54.9006 12.2613 54.8473 13.072H58.1753V12.976ZM66.2205 9.312C66.5298 9.312 66.8125 9.34933 67.0685 9.424L66.7165 11.408C66.4605 11.344 66.2098 11.312 65.9645 11.312C65.4632 11.312 65.0685 11.4933 64.7805 11.856C64.4925 12.208 64.2632 12.752 64.0925 13.488V18H62.0445V9.536H63.8205L64.0125 11.2C64.2152 10.592 64.5085 10.128 64.8925 9.808C65.2765 9.47733 65.7192 9.312 66.2205 9.312ZM75.6694 6.944C77.088 6.944 78.1867 7.23733 78.9654 7.824C79.7547 8.41067 80.1494 9.29067 80.1494 10.464C80.1494 11.6907 79.7547 12.6133 78.9654 13.232C78.176 13.84 77.1254 14.144 75.8134 14.144H74.5174V18H72.4054V6.944H75.6694ZM75.6534 12.56C76.4107 12.56 76.9814 12.4053 77.3654 12.096C77.7494 11.776 77.9414 11.232 77.9414 10.464C77.9414 9.152 77.1787 8.496 75.6534 8.496H74.5174V12.56H75.6534ZM88.2541 13.568C88.2541 13.6747 88.2381 13.952 88.2061 14.4H82.8941C82.9581 15.2213 83.1715 15.808 83.5341 16.16C83.8968 16.512 84.3768 16.688 84.9741 16.688C85.3475 16.688 85.6995 16.6293 86.0301 16.512C86.3608 16.384 86.7128 16.192 87.0861 15.936L87.9341 17.104C86.9955 17.8613 85.9501 18.24 84.7981 18.24C83.5075 18.24 82.5101 17.8453 81.8061 17.056C81.1128 16.2667 80.7661 15.1893 80.7661 13.824C80.7661 12.96 80.9155 12.1867 81.2141 11.504C81.5128 10.8107 81.9448 10.272 82.5101 9.888C83.0755 9.49333 83.7475 9.296 84.5261 9.296C85.7101 9.296 86.6275 9.67467 87.2781 10.432C87.9288 11.1787 88.2541 12.224 88.2541 13.568ZM86.2221 12.976C86.2221 11.4933 85.6728 10.752 84.5741 10.752C84.0728 10.752 83.6781 10.9387 83.3901 11.312C83.1128 11.6747 82.9475 12.2613 82.8941 13.072H86.2221V12.976ZM94.2674 9.312C94.5767 9.312 94.8594 9.34933 95.1154 9.424L94.7634 11.408C94.5074 11.344 94.2567 11.312 94.0114 11.312C93.51 11.312 93.1154 11.4933 92.8274 11.856C92.5394 12.208 92.31 12.752 92.1394 13.488V18H90.0914V9.536H91.8674L92.0594 11.2C92.262 10.592 92.5554 10.128 92.9394 9.808C93.3234 9.47733 93.766 9.312 94.2674 9.312ZM105.364 9.296C106.047 9.296 106.591 9.53067 106.996 10C107.402 10.4587 107.604 11.0827 107.604 11.872V18H105.556V12.192C105.556 11.2853 105.247 10.832 104.628 10.832C104.298 10.832 104.01 10.9387 103.764 11.152C103.53 11.3547 103.284 11.6747 103.028 12.112V18H100.98V12.192C100.98 11.2853 100.671 10.832 100.052 10.832C99.7109 10.832 99.4176 10.9387 99.1723 11.152C98.9376 11.3547 98.6923 11.6747 98.4363 12.112V18H96.3883V9.536H98.1643L98.3243 10.64C98.9643 9.744 99.7803 9.296 100.772 9.296C101.263 9.296 101.684 9.424 102.036 9.68C102.399 9.92533 102.66 10.272 102.82 10.72C103.162 10.2613 103.535 9.90933 103.94 9.664C104.356 9.41867 104.831 9.296 105.364 9.296ZM112.03 9.536V18H109.982V9.536H112.03ZM110.99 5.248C111.374 5.248 111.683 5.37067 111.918 5.616C112.163 5.85067 112.286 6.144 112.286 6.496C112.286 6.848 112.163 7.14133 111.918 7.376C111.683 7.61067 111.374 7.728 110.99 7.728C110.617 7.728 110.307 7.61067 110.062 7.376C109.827 7.14133 109.71 6.848 109.71 6.496C109.71 6.144 109.827 5.85067 110.062 5.616C110.307 5.37067 110.617 5.248 110.99 5.248ZM117.17 9.296C118.311 9.296 119.314 9.632 120.178 10.304L119.378 11.504C118.652 11.0453 117.943 10.816 117.25 10.816C116.844 10.816 116.53 10.896 116.306 11.056C116.082 11.2053 115.97 11.408 115.97 11.664C115.97 11.856 116.018 12.016 116.114 12.144C116.21 12.272 116.38 12.3947 116.626 12.512C116.882 12.6187 117.255 12.7413 117.746 12.88C118.663 13.1253 119.34 13.4507 119.778 13.856C120.226 14.2613 120.45 14.8267 120.45 15.552C120.45 16.3947 120.108 17.056 119.426 17.536C118.743 18.0053 117.895 18.24 116.882 18.24C116.188 18.24 115.554 18.1333 114.978 17.92C114.412 17.7067 113.922 17.4133 113.506 17.04L114.53 15.888C115.266 16.4427 116.034 16.72 116.834 16.72C117.292 16.72 117.655 16.6293 117.922 16.448C118.199 16.2667 118.338 16.016 118.338 15.696C118.338 15.4507 118.284 15.2587 118.178 15.12C118.082 14.9707 117.9 14.8427 117.634 14.736C117.378 14.6187 116.972 14.48 116.418 14.32C115.554 14.0853 114.919 13.76 114.514 13.344C114.108 12.9173 113.906 12.3893 113.906 11.76C113.906 11.2907 114.039 10.8693 114.306 10.496C114.583 10.1227 114.967 9.82933 115.458 9.616C115.959 9.40267 116.53 9.296 117.17 9.296ZM124.654 9.296C125.795 9.296 126.798 9.632 127.662 10.304L126.862 11.504C126.137 11.0453 125.427 10.816 124.734 10.816C124.329 10.816 124.014 10.896 123.79 11.056C123.566 11.2053 123.454 11.408 123.454 11.664C123.454 11.856 123.502 12.016 123.598 12.144C123.694 12.272 123.865 12.3947 124.11 12.512C124.366 12.6187 124.739 12.7413 125.23 12.88C126.147 13.1253 126.825 13.4507 127.262 13.856C127.71 14.2613 127.934 14.8267 127.934 15.552C127.934 16.3947 127.593 17.056 126.91 17.536C126.227 18.0053 125.379 18.24 124.366 18.24C123.673 18.24 123.038 18.1333 122.462 17.92C121.897 17.7067 121.406 17.4133 120.99 17.04L122.014 15.888C122.75 16.4427 123.518 16.72 124.318 16.72C124.777 16.72 125.139 16.6293 125.406 16.448C125.683 16.2667 125.822 16.016 125.822 15.696C125.822 15.4507 125.769 15.2587 125.662 15.12C125.566 14.9707 125.385 14.8427 125.118 14.736C124.862 14.6187 124.457 14.48 123.902 14.32C123.038 14.0853 122.403 13.76 121.998 13.344C121.593 12.9173 121.39 12.3893 121.39 11.76C121.39 11.2907 121.523 10.8693 121.79 10.496C122.067 10.1227 122.451 9.82933 122.942 9.616C123.443 9.40267 124.014 9.296 124.654 9.296ZM131.639 9.536V18H129.591V9.536H131.639ZM130.599 5.248C130.983 5.248 131.293 5.37067 131.527 5.616C131.773 5.85067 131.895 6.144 131.895 6.496C131.895 6.848 131.773 7.14133 131.527 7.376C131.293 7.61067 130.983 7.728 130.599 7.728C130.226 7.728 129.917 7.61067 129.671 7.376C129.437 7.14133 129.319 6.848 129.319 6.496C129.319 6.144 129.437 5.85067 129.671 5.616C129.917 5.37067 130.226 5.248 130.599 5.248ZM137.563 9.296C138.811 9.296 139.782 9.696 140.475 10.496C141.179 11.2853 141.531 12.3733 141.531 13.76C141.531 14.6453 141.371 15.4293 141.051 16.112C140.731 16.784 140.272 17.3067 139.675 17.68C139.078 18.0533 138.368 18.24 137.547 18.24C136.299 18.24 135.323 17.8453 134.619 17.056C133.915 16.256 133.563 15.1573 133.563 13.76C133.563 12.8747 133.723 12.096 134.043 11.424C134.363 10.752 134.822 10.2293 135.419 9.856C136.027 9.48267 136.742 9.296 137.563 9.296ZM137.563 10.848C136.336 10.848 135.723 11.8187 135.723 13.76C135.723 14.7627 135.872 15.504 136.171 15.984C136.48 16.4533 136.939 16.688 137.547 16.688C138.155 16.688 138.608 16.448 138.907 15.968C139.216 15.488 139.371 14.752 139.371 13.76C139.371 12.768 139.216 12.0373 138.907 11.568C138.608 11.088 138.16 10.848 137.563 10.848ZM147.963 9.296C148.72 9.296 149.307 9.52533 149.723 9.984C150.149 10.432 150.363 11.0613 150.363 11.872V18H148.315V12.192C148.315 11.6907 148.224 11.3387 148.043 11.136C147.872 10.9333 147.616 10.832 147.275 10.832C146.923 10.832 146.603 10.944 146.315 11.168C146.037 11.3813 145.765 11.696 145.499 12.112V18H143.451V9.536H145.227L145.387 10.64C146.08 9.744 146.939 9.296 147.963 9.296Z" fill="#5055BE"/>
</svg>
