<svg width="12" height="16" viewBox="0 0 12 16" fill="none" xmlns="http://www.w3.org/2000/svg">
<path d="M4.49971 5.75C4.49971 4.92157 5.17128 4.25 5.99971 4.25C6.82814 4.25 7.49971 4.92157 7.49971 5.75C7.49971 6.57843 6.82814 7.25 5.99971 7.25C5.17128 7.25 4.49971 6.57843 4.49971 5.75Z" fill="black"/>
<path d="M5.24971 8.375C4.00707 8.375 2.99971 9.38236 2.99971 10.625C2.99971 11.0392 3.3355 11.375 3.74971 11.375H8.24971C8.66392 11.375 8.99971 11.0392 8.99971 10.625C8.99971 9.38236 7.99235 8.375 6.74971 8.375H5.24971Z" fill="black"/>
<path fill-rule="evenodd" clip-rule="evenodd" d="M2.65736 1.16201C4.87421 0.843457 7.12522 0.843457 9.34208 1.16201C10.4412 1.31995 11.288 2.212 11.3886 3.31784L11.4838 4.36464C11.7038 6.78322 11.7038 9.21678 11.4838 11.6354L11.3886 12.6822C11.288 13.788 10.4412 14.68 9.34208 14.838C7.12522 15.1565 4.87421 15.1565 2.65736 14.838C1.55824 14.68 0.711418 13.788 0.610822 12.6822L0.515597 11.6354C0.295583 9.21679 0.295582 6.78322 0.515596 4.36464L0.610822 3.31784C0.711418 2.212 1.55824 1.31995 2.65736 1.16201ZM9.18206 2.27557C7.07134 1.97227 4.92809 1.97227 2.81737 2.27557C2.23403 2.3594 1.78459 2.83284 1.7312 3.41976L1.63597 4.46656C1.42212 6.81733 1.42212 9.18267 1.63597 11.5334L1.7312 12.5802C1.78459 13.1672 2.23403 13.6406 2.81737 13.7244C4.92809 14.0277 7.07134 14.0277 9.18206 13.7244C9.76541 13.6406 10.2148 13.1672 10.2682 12.5802L10.3635 11.5334C10.5773 9.18267 10.5773 6.81733 10.3635 4.46655L10.2682 3.41976C10.2148 2.83284 9.76541 2.3594 9.18206 2.27557Z" fill="black"/>
</svg>
